<svg width="18" height="18" viewBox="0 0 18 18" fill="none" xmlns="http://www.w3.org/2000/svg">
<path d="M13.1159 4.00337L13.1333 4.13701L12.9331 4.17847L12.9064 4.46314H13.1463L13.4654 4.43241L13.6301 4.23659L13.455 4.16847L13.3591 4.05816L13.2151 3.82495L13.1463 3.49512L12.8757 3.55027L12.7998 3.66651V3.79755L12.9301 3.88677L13.1159 4.00337Z" fill="#1F839F"/>
<path d="M12.8857 4.11312L12.9001 3.93469L12.7413 3.86621L12.5192 3.91767L12.3545 4.18197V4.35337H12.5466L12.8857 4.11312Z" fill="#1F839F"/>
<path d="M8.31373 4.87099L8.26487 4.99685H8.02832V5.11901H8.08459C8.08459 5.11901 8.08792 5.14492 8.09273 5.17898L8.23784 5.16677L8.32854 5.1105L8.35223 4.99685L8.46957 4.98686L8.51585 4.89135L8.40813 4.86914L8.31373 4.87099Z" fill="#1F839F"/>
<path d="M7.70359 5.09246L7.69434 5.21203L7.86573 5.19759L7.8835 5.07765L7.78059 4.99658L7.70359 5.09246Z" fill="#1F839F"/>
<path d="M17.9978 8.9069C17.9952 8.6437 17.9819 8.38235 17.9571 8.12508C17.8738 7.26737 17.6687 6.4452 17.3614 5.67449C17.3385 5.61711 17.3174 5.55899 17.293 5.50236C16.8835 4.53507 16.3086 3.65442 15.6049 2.89444C15.5587 2.84483 15.5117 2.79597 15.4646 2.74785C15.3317 2.60977 15.1951 2.47502 15.0537 2.34583C13.4538 0.889172 11.329 0 8.99981 0C6.65102 0 4.51101 0.90509 2.90665 2.38396C2.53277 2.7286 2.18924 3.1047 1.87755 3.50746C0.701861 5.02815 0 6.9331 0 8.99981C0 13.9628 4.03755 18 9.00019 18C12.491 18 15.5216 16.001 17.0135 13.0885C17.3326 12.4658 17.581 11.8021 17.7483 11.1065C17.7908 10.9299 17.8275 10.7526 17.8593 10.5731C17.95 10.0619 17.9996 9.53621 17.9996 8.99981C18 8.96872 17.9981 8.93799 17.9978 8.9069ZM16.3038 5.30986L16.356 5.25137C16.4245 5.38427 16.4886 5.51938 16.5496 5.65635L16.4645 5.65302L16.3038 5.67523V5.30986ZM15.0034 3.73956L15.0049 3.33754C15.1463 3.48747 15.2825 3.64183 15.4128 3.80175L15.2507 4.04311L14.6839 4.03792L14.6484 3.91984L15.0034 3.73956ZM4.14676 2.74044V2.72526H4.32703L4.34258 2.66344H4.63761V2.79227L4.55284 2.90554H4.14639L4.14676 2.74044ZM4.43476 3.14209C4.43476 3.14209 4.61503 3.11136 4.63058 3.11136C4.64613 3.11136 4.63058 3.29127 4.63058 3.29127L4.22412 3.31681L4.14676 3.22427L4.43476 3.14209ZM16.8772 6.71469H16.2187L15.8174 6.41596L15.395 6.45705V6.71469H15.2614L15.117 6.61178L14.3856 6.42632V5.95249L13.4586 6.02468L13.1714 6.17904H12.8034L12.6231 6.1609L12.1763 6.40893V6.87572L11.2631 7.53464L11.339 7.81598H11.5241L11.4756 8.08399L11.3453 8.13174L11.3382 8.83212L12.1275 9.73092H12.471L12.4917 9.67613H13.1092L13.2872 9.5114H13.6374L13.8296 9.7039L14.3515 9.75794L14.2823 10.452L14.8616 11.4748L14.5566 12.0579L14.5773 12.3325L14.8176 12.5721V13.2325L15.133 13.6567V14.2053H15.4054C13.8892 16.0669 11.5815 17.2593 8.99944 17.2593C4.44549 17.2596 0.74036 13.5541 0.74036 8.99981C0.74036 7.85337 0.975794 6.7606 1.39965 5.7674V5.50976L1.69505 5.15105C1.79759 4.95745 1.90754 4.76866 2.02488 4.58468L2.03821 4.7346L1.69542 5.15105C1.58918 5.35169 1.48997 5.55677 1.40002 5.7674V6.23753L1.74318 6.40263V7.056L2.07227 7.61756L2.33991 7.65865L2.37433 7.46616L2.05857 6.979L1.99675 6.50554H2.18184L2.25995 6.9927L2.71638 7.65865L2.59866 7.87373L2.88888 8.31757L3.60962 8.496V8.37939L3.89799 8.42048L3.8706 8.6263L4.09715 8.66776L4.44697 8.76327L4.94116 9.32631L5.57232 9.37407L5.63414 9.88899L5.20214 10.1911L5.18178 10.6508L5.11996 10.9322L5.74482 11.7143L5.79258 11.9824C5.79258 11.9824 6.01913 12.0438 6.04689 12.0438C6.07428 12.0438 6.55478 12.4077 6.55478 12.4077V13.8214L6.72617 13.8695L6.60956 14.5218L6.89793 14.9064L6.84463 15.5527L7.22554 16.2224L7.71455 16.6496L8.20615 16.6585L8.25427 16.5004L7.89298 16.1961L7.91371 16.0451L7.97849 15.86L7.99219 15.6712L7.74787 15.6638L7.6246 15.5091L7.82746 15.314L7.85485 15.1666L7.6283 15.1019L7.64162 14.9649L7.96442 14.916L8.45528 14.6802L8.62001 14.3782L9.13493 13.7192L9.01795 13.2039L9.17602 12.9296L9.64948 12.9441L9.96821 12.6916L10.0711 11.6973L10.4246 11.2483L10.4865 10.9599L10.164 10.8566L9.95118 10.5076L9.22377 10.5002L8.64703 10.2803L8.61964 9.869L8.42715 9.5325L7.90556 9.52473L7.60424 9.05164L7.3366 8.92097L7.3229 9.06534L6.83574 9.09421L6.65732 8.84582L6.14906 8.74254L5.73039 9.22637L5.07147 9.11457L5.02371 8.37199L4.54285 8.28981L4.73571 7.92555L4.68056 7.7164L4.04866 8.13878L3.65108 8.09028L3.50931 7.7797L3.59593 7.4595L3.81507 7.05563L4.31963 6.80021L5.29394 6.79984L5.29135 7.09709L5.64154 7.25997L5.61378 6.75208L5.86624 6.49814L6.37561 6.1635L6.41041 5.92806L6.91829 5.39945L7.45839 5.10034L7.41063 5.0611L7.77637 4.71683L7.91038 4.75237L7.97183 4.82937L8.11064 4.67537L8.1447 4.6602L7.99256 4.63872L7.83819 4.58727V4.4392L7.92 4.3722H8.10028L8.18283 4.40847L8.25427 4.55284L8.34163 4.53952V4.52693L8.36681 4.53544L8.62001 4.49658L8.65592 4.37294L8.80029 4.40921V4.54322L8.66628 4.63539H8.66665L8.68627 4.78235L9.14493 4.92376C9.14493 4.92376 9.1453 4.92561 9.14604 4.92932L9.25154 4.92043L9.25857 4.72165L8.89505 4.55617L8.87432 4.46067L9.17602 4.35776L9.18935 4.06902L8.87395 3.87689L8.85322 3.39011L8.42085 3.60259H8.26316L8.30462 3.23204L7.71603 3.09322L7.47245 3.2772V3.8384L7.03453 3.97721L6.85906 4.34295L6.66879 4.37368V3.90577L6.25715 3.84876L6.05133 3.71476L5.96841 3.41158L6.7047 2.98069L7.06488 2.87112L7.10116 3.11321L7.3018 3.10285L7.31735 2.98106L7.52724 2.95107L7.53094 2.9085L7.44062 2.87112L7.41989 2.74229L7.6779 2.72045L7.83375 2.55831L7.84226 2.54647L7.84411 2.54721L7.8915 2.49834L8.43381 2.42986L8.67369 2.63346L8.04475 2.96847L8.84508 3.15726L8.94873 2.88962H9.29855L9.42219 2.65641L9.17491 2.59459V2.29956L8.39938 1.95603L7.8641 2.01785L7.56204 2.17592L7.58277 2.56016L7.267 2.51204L7.21851 2.29956L7.52095 2.02488L6.97197 1.99749L6.81427 2.04524L6.74579 2.23033L6.95161 2.26513L6.91052 2.47095L6.5607 2.49168L6.50591 2.62865L5.9984 2.64271C5.9984 2.64271 5.98433 2.35471 5.96397 2.35471C5.94361 2.35471 6.36191 2.34768 6.36191 2.34768L6.66435 2.05228L6.49925 1.96973L6.27973 2.18295L5.91548 2.16222L5.69596 1.86015H5.22916L4.74201 2.22404H5.18844L5.22916 2.35471L5.1133 2.46244L5.60749 2.47613L5.683 2.65456L5.12662 2.63383L5.0996 2.49649L4.74978 2.42098L4.56432 2.31807L4.14787 2.3214C5.51124 1.32821 7.18778 0.74036 8.99981 0.74036C11.0884 0.74036 12.9966 1.52107 14.4526 2.80374L14.3545 2.97921L13.9736 3.12839L13.8129 3.30275L13.8499 3.50597L14.0465 3.53337L14.1649 3.82951L14.504 3.69292L14.5599 4.08901H14.4577L14.1794 4.04792L13.8706 4.09974L13.5719 4.52175L13.1447 4.58875L13.0829 4.95449L13.2632 4.99706L13.211 5.23212L12.7868 5.14698L12.3977 5.23212L12.3151 5.44868L12.3825 5.90326L12.6109 6.01024L12.9941 6.00802L13.2528 5.9847L13.3317 5.77888L13.7359 5.25359L14.0021 5.30801L14.2641 5.0711L14.313 5.25619L14.9579 5.69115L14.879 5.79702L14.5884 5.78147L14.7002 5.93991L14.879 5.97915L15.0885 5.89178L15.0841 5.63932L15.177 5.59268L15.1022 5.51346L14.6721 5.27358L14.5588 4.95486H14.9164L15.0308 5.06813L15.3388 5.33355L15.3517 5.6545L15.6708 5.99432L15.7897 5.52864L16.0107 5.40796L16.0521 5.78887L16.2679 6.02579L16.6984 6.01839C16.7817 6.23272 16.8565 6.45076 16.922 6.67323L16.8772 6.71469ZM4.90896 4.08901L5.12514 3.9861L5.3206 4.03274L5.25322 4.2952L5.04222 4.3622L4.90896 4.08901ZM6.05614 4.70684V4.87675H5.56232L5.37723 4.8253L5.42351 4.70684L5.66079 4.60874H5.98507V4.70684H6.05614ZM6.28343 4.94375V5.10848L6.15979 5.18807L6.0058 5.21658C6.0058 5.21658 6.0058 4.96967 6.0058 4.94375H6.28343ZM6.14425 4.87675V4.68093L6.31416 4.83566L6.14425 4.87675ZM6.22161 5.27284V5.43313L6.10353 5.55159H5.84107L5.88216 5.37168L6.00617 5.36095L6.03171 5.29913L6.22161 5.27284ZM5.56788 4.94375H5.8407L5.49088 5.43276L5.34651 5.35539L5.3776 5.14957L5.56788 4.94375ZM6.68508 5.21658V5.37649H6.42262L6.35081 5.27284V5.12403H6.37154L6.68508 5.21658ZM6.44261 4.99669L6.51739 4.91821L6.64362 4.99669L6.54256 5.07998L6.44261 4.99669ZM17.0112 7.13152L17.0372 7.10116C17.0479 7.1478 17.0594 7.19445 17.0697 7.24183L17.0112 7.13152Z" fill="#1F839F"/>
<path d="M1.40039 5.50958V5.76723C1.49034 5.55697 1.58955 5.35189 1.69579 5.15088L1.40039 5.50958Z" fill="#1F839F"/>
</svg>
