<svg width="14" height="14" viewBox="0 0 14 14" fill="none" xmlns="http://www.w3.org/2000/svg">
<path d="M2.28125 2.3125C3.59375 1 5.16667 0.34375 7 0.34375C8.83333 0.34375 10.3958 1 11.6875 2.3125C13 3.60417 13.6562 5.16667 13.6562 7C13.6562 8.20833 13.3542 9.32292 12.75 10.3438C12.1667 11.3646 11.3646 12.1771 10.3438 12.7812C9.32292 13.3646 8.20833 13.6562 7 13.6562C5.79167 13.6562 4.67708 13.3646 3.65625 12.7812C2.63542 12.1771 1.82292 11.3646 1.21875 10.3438C0.635417 9.32292 0.34375 8.20833 0.34375 7C0.34375 5.16667 0.989583 3.60417 2.28125 2.3125ZM3.21875 10.7812C4.26042 11.8229 5.52083 12.3438 7 12.3438C8.47917 12.3438 9.73958 11.8229 10.7812 10.7812C11.8229 9.73958 12.3438 8.47917 12.3438 7C12.3438 5.52083 11.8229 4.26042 10.7812 3.21875C9.73958 2.17708 8.47917 1.65625 7 1.65625C5.52083 1.65625 4.26042 2.17708 3.21875 3.21875C2.17708 4.26042 1.65625 5.52083 1.65625 7C1.65625 8.47917 2.17708 9.73958 3.21875 10.7812ZM7.34375 3.65625V7.15625L10.3438 8.9375L9.84375 9.78125L6.34375 7.65625V3.65625H7.34375Z" fill="black"/>
</svg>
