<svg width="39" height="18" viewBox="0 0 39 18" fill="none" xmlns="http://www.w3.org/2000/svg">
<g clip-path="url(#clip0)">
<rect width="39" height="17" transform="translate(0 0.0350342)" fill="white"/>
<path fill-rule="evenodd" clip-rule="evenodd" d="M25 13.035C24.2902 13.2356 22.7924 14.035 22 14.035C19.9366 14.035 19 13.0244 19 11.035C19 9.14597 20.1512 8.03503 22 8.03503C22.4127 8.03503 22.7359 7.90129 23 8.03503V5.03503H25V13.035ZM23 9.03503C22.7524 8.91801 22.3962 9.03503 22 9.03503C21.0261 9.03503 21 9.98184 21 11.035C21 12.1551 20.8611 12.035 22 12.035C22.1981 12.035 22.7359 12.1019 23 12.035V9.03503ZM38 13.035C37.2902 13.2356 36.8089 14.035 36 14.035C33.9531 14.035 32 13.0244 32 11.035C32 9.14597 33.1512 8.03503 35 8.03503C35.4292 8.03503 35.7359 7.90129 36 8.03503V5.03503H38V13.035ZM36 9.03503C35.7524 8.91801 35.3962 9.03503 35 9.03503C34.0096 9.03503 34 9.98184 34 11.035C34 12.1551 34.861 12.035 36 12.035C36.1981 12.035 35.7359 12.1019 36 12.035V9.03503ZM27 9.03503C27.2641 8.91801 27.6864 9.03503 28 9.03503C28.9904 9.03503 30 10.0153 30 11.035C30 12.2387 29.007 12.0183 28 12.035V14.035C30.0799 14.035 32 13.0913 32 11.035C32 9.16268 29.9479 8.03503 28 8.03503C27.0096 8.03503 26.6438 7.76758 26 8.03503V16.035H27V9.03503Z" fill="#3F3F42"/>
<path fill-rule="evenodd" clip-rule="evenodd" d="M13.3398 3.44482L13.604 3.75325L13.7526 3.66758L13.3398 3.44482Z" fill="#DC0032"/>
<path fill-rule="evenodd" clip-rule="evenodd" d="M12.9434 3.22205L13.4551 3.8389L13.6368 3.73609L13.4386 3.4962L12.9434 3.22205Z" fill="#DC0032"/>
<path fill-rule="evenodd" clip-rule="evenodd" d="M12.5312 2.99939L13.3072 3.92468L13.4888 3.82187L13.0431 3.27355L12.5312 2.99939Z" fill="#DC0032"/>
<path fill-rule="evenodd" clip-rule="evenodd" d="M12.1348 2.77649L13.1584 4.0102L13.34 3.90739L12.6301 3.05065L12.1348 2.77649ZM14.0994 4.9526L13.9839 5.02114L14.0994 5.15822V4.9526Z" fill="#DC0032"/>
<path fill-rule="evenodd" clip-rule="evenodd" d="M11.7383 2.55383L13.0095 4.09598L13.1912 3.99317L12.2336 2.82799L11.7383 2.55383ZM14.0331 4.98697L13.8515 5.10691L14.0992 5.41534V5.08978L14.0331 4.98697H14.0331Z" fill="#DC0032"/>
<path fill-rule="evenodd" clip-rule="evenodd" d="M11.3262 2.33118L12.8616 4.18175L13.0597 4.07894L11.838 2.60534L11.3262 2.33118ZM13.8852 5.07274L13.7036 5.19269L14.0998 5.67246V5.3469L13.8852 5.07274Z" fill="#DC0032"/>
<path fill-rule="evenodd" clip-rule="evenodd" d="M10.9297 2.10828L12.7293 4.26727L12.9109 4.16446L11.425 2.38243L10.9297 2.10828ZM13.7364 5.1754L13.5548 5.27821L14.0996 5.94647V5.62091L13.7364 5.1754Z" fill="#DC0032"/>
<path fill-rule="evenodd" clip-rule="evenodd" d="M10.5332 1.8855L12.5804 4.35292L12.7621 4.25011L11.0285 2.15965L10.5332 1.8855ZM13.5875 5.26105L13.4059 5.36386L14.0993 6.20347V5.8779L13.5875 5.26105Z" fill="#DC0032"/>
<path fill-rule="evenodd" clip-rule="evenodd" d="M10.1211 1.66272L12.4325 4.43857L12.6141 4.33576L10.6329 1.93688L10.1211 1.66272ZM13.4396 5.34669L13.258 5.4495L14.1 6.46046V6.1349L13.4396 5.34669Z" fill="#DC0032"/>
<path fill-rule="evenodd" clip-rule="evenodd" d="M9.72461 1.44006L12.2836 4.54147L12.4652 4.42153L10.2199 1.71422L9.72461 1.44006ZM13.2907 5.43246L13.1091 5.53527L14.0997 6.73472V6.40915L13.2907 5.43246Z" fill="#DC0032"/>
<path fill-rule="evenodd" clip-rule="evenodd" d="M9.3125 1.21741L12.1357 4.62724L12.3173 4.5073L9.82431 1.49156L9.3125 1.21741ZM13.1593 5.51824L12.9612 5.62105L14.1004 6.99184V6.66628L13.1593 5.51824Z" fill="#DC0032"/>
<path fill-rule="evenodd" clip-rule="evenodd" d="M8.91406 0.994507L11.9849 4.71275L12.183 4.59282L9.42587 1.26866L8.91406 0.994507ZM13.0085 5.60376L12.8269 5.70657L14.0982 7.26585V6.92315L13.0085 5.60376Z" fill="#DC0032"/>
<path fill-rule="evenodd" clip-rule="evenodd" d="M8.51953 0.771851L11.8545 4.79851L12.0361 4.67857L9.01483 1.04601L8.51953 0.771851ZM12.8616 5.68953L12.68 5.79234L14.0999 7.52297V7.1974L12.8616 5.68953Z" fill="#DC0032"/>
<path fill-rule="evenodd" clip-rule="evenodd" d="M8.10547 0.53186L11.7046 4.88409L11.8862 4.76415L8.61728 0.823152L8.10547 0.53186ZM12.7117 5.77511L12.5301 5.87792L14.0986 7.77987V7.45433L12.7117 5.77511Z" fill="#DC0032"/>
<path fill-rule="evenodd" clip-rule="evenodd" d="M7.71094 0.309204L11.5577 4.96986L11.7394 4.86705L8.22275 0.600495L7.71094 0.309204ZM12.5649 5.86087L12.3832 5.96368L14.1003 8.05412V7.71144L12.5649 5.86087Z" fill="#DC0032"/>
<path fill-rule="evenodd" clip-rule="evenodd" d="M7.31445 0.103516L11.4089 5.05546L11.5905 4.95265L7.80973 0.377673L7.31445 0.103516ZM12.416 5.94648L12.2344 6.04929L14.1 8.31108V7.98551L12.416 5.94648Z" fill="#DC0032"/>
<path fill-rule="evenodd" clip-rule="evenodd" d="M7.04883 0.0350342L11.2588 5.14119L11.4404 5.03839L7.41205 0.154978L7.31299 0.103573C7.23044 0.052169 7.14789 0.0350342 7.04883 0.0350342ZM12.2659 6.03221L12.0843 6.13502L14.0985 8.56816V8.24259L12.2659 6.03221Z" fill="#DC0032"/>
<path fill-rule="evenodd" clip-rule="evenodd" d="M7.04968 0.0350342C6.98364 0.0350342 6.9176 0.052169 6.85156 0.0693038L11.1111 5.22687L11.3092 5.12406L7.09921 0.0350342C7.0827 0.0350342 7.06619 0.0350342 7.04968 0.0350342ZM12.1347 6.11788L11.9531 6.22069L14.0994 8.84231V8.49962L12.1347 6.11788Z" fill="#DC0032"/>
<path fill-rule="evenodd" clip-rule="evenodd" d="M6.90124 0.0522461C6.86823 0.0693809 6.81869 0.0865156 6.80218 0.103651L6.70312 0.155055L10.9792 5.31262L11.1608 5.20981L6.90124 0.0522461ZM11.9863 6.20364L11.8047 6.32358L14.0995 9.09942V8.77386L11.9863 6.20364Z" fill="#DC0032"/>
<path fill-rule="evenodd" clip-rule="evenodd" d="M6.7363 0.120728L6.55469 0.223536L10.8307 5.39824L11.0123 5.29543L6.7363 0.120728ZM11.8378 6.28925L11.6562 6.4092L14.0997 9.35638V9.03082L11.8378 6.28925Z" fill="#DC0032"/>
<path fill-rule="evenodd" clip-rule="evenodd" d="M6.58786 0.206421L6.40625 0.309229L10.6823 5.48393L10.8639 5.38112L6.58786 0.206421ZM11.6894 6.37495L11.5078 6.49489L14.0998 9.63056V9.30499L11.6894 6.37495Z" fill="#DC0032"/>
<path fill-rule="evenodd" clip-rule="evenodd" d="M6.43942 0.29187L6.25781 0.39468L10.5339 5.56938L10.7155 5.46657L6.43942 0.29187ZM11.541 6.4604L11.3594 6.58034L14.1 9.88736V9.5618L11.541 6.4604Z" fill="#DC0032"/>
<path fill-rule="evenodd" clip-rule="evenodd" d="M6.29098 0.377686L6.10938 0.480495L10.3854 5.6552L10.567 5.55239L6.29098 0.377686ZM11.3925 6.54621L11.2109 6.66616L14.1001 10.1445V9.81896L11.3925 6.54621Z" fill="#DC0032"/>
<path fill-rule="evenodd" clip-rule="evenodd" d="M6.14255 0.463379L5.96094 0.566186L10.237 5.74089L10.4186 5.63808L6.14255 0.463379ZM11.2606 6.63191L11.079 6.75185L14.1003 10.4187V10.0931L11.2606 6.63191Z" fill="#DC0032"/>
<path fill-rule="evenodd" clip-rule="evenodd" d="M5.99216 0.53186L5.81055 0.651805L10.1031 5.82651L10.2847 5.7237L5.99216 0.53186ZM11.1102 6.73466L10.9286 6.83747L14.0985 10.6757V10.3501L11.1102 6.73466Z" fill="#DC0032"/>
<path fill-rule="evenodd" clip-rule="evenodd" d="M5.84567 0.617554L5.66406 0.720363L9.95664 5.9122L10.1382 5.80939L5.84567 0.617554ZM10.9637 6.82035L10.7821 6.92316L14.1006 10.9498V10.6071L10.9637 6.82035Z" fill="#DC0032"/>
<path fill-rule="evenodd" clip-rule="evenodd" d="M5.69528 0.703247L5.51367 0.806057L9.80625 6.01503L9.98786 5.89509L5.69528 0.703247ZM10.8133 6.90605L10.6317 7.00886L14.0988 11.2069V10.8813L10.8133 6.90605Z" fill="#DC0032"/>
<path fill-rule="evenodd" clip-rule="evenodd" d="M5.54684 0.789062L5.36523 0.89187L9.65781 6.10085L9.83942 5.9809L5.54684 0.789062ZM10.6649 6.99186L10.4833 7.09467L14.099 11.464V11.1385L10.6649 6.99186Z" fill="#DC0032"/>
<path fill-rule="evenodd" clip-rule="evenodd" d="M5.39841 0.874634L5.2168 0.977443L9.50938 6.18642L9.69099 6.06648L5.39841 0.874634ZM10.5165 7.07744L10.3349 7.18025L14.0991 11.7381V11.3954L10.5165 7.07744Z" fill="#DC0032"/>
<path fill-rule="evenodd" clip-rule="evenodd" d="M5.24997 0.960327L5.06836 1.06314L9.36094 6.27211L9.54255 6.15217L5.24997 0.960327ZM10.3846 7.16313L10.2029 7.26594L14.0993 11.9951V11.6696L10.3846 7.16313Z" fill="#DC0032"/>
<path fill-rule="evenodd" clip-rule="evenodd" d="M5.10242 1.02869L4.9043 1.13149L9.22989 6.35761L9.4115 6.23766L5.10242 1.02869ZM10.237 7.24862L10.0554 7.35143L14.1003 12.252V11.9264L10.237 7.24862Z" fill="#DC0032"/>
<path fill-rule="evenodd" clip-rule="evenodd" d="M4.95203 1.1145L4.75391 1.21731L9.09602 6.46056C9.11253 6.42629 9.12903 6.40916 9.16206 6.39202L9.26112 6.32348L4.95203 1.1145L4.95203 1.1145ZM10.0866 7.33444L9.90501 7.43725L14.0655 12.4749C14.082 12.4235 14.0985 12.3721 14.0985 12.3207V12.1836L10.0866 7.33444H10.0866Z" fill="#DC0032"/>
<path fill-rule="evenodd" clip-rule="evenodd" d="M4.80359 1.2002L4.60547 1.303L9.04664 6.6662V6.59766C9.04664 6.54625 9.07966 6.47771 9.11268 6.42631L4.80359 1.2002ZM9.93818 7.42013L9.8061 7.50581C9.78959 7.50581 9.77308 7.52294 9.75657 7.52294L13.9831 12.6462C14.0326 12.5777 14.0656 12.5092 14.0821 12.4406L9.93818 7.42013Z" fill="#DC0032"/>
<path fill-rule="evenodd" clip-rule="evenodd" d="M4.65513 1.28589L4.45703 1.3887L9.04677 6.94038V6.59768L4.65513 1.28589ZM9.47603 7.43729L13.8676 12.7662C13.9172 12.7319 13.9667 12.6634 14.0162 12.612L9.78972 7.50583C9.72368 7.5401 9.62462 7.5401 9.55858 7.50583L9.47603 7.43729Z" fill="#DC0032"/>
<path fill-rule="evenodd" clip-rule="evenodd" d="M4.50669 1.37158L4.30859 1.47439L13.7192 12.8519L13.8513 12.7834C13.8678 12.7662 13.8843 12.7491 13.9008 12.7319L9.57524 7.50585H9.55872L9.179 7.26596C9.14598 7.24882 9.12947 7.21455 9.09645 7.18028C9.06343 7.12888 9.06343 7.09461 9.04692 7.06034V6.87185L4.50669 1.37158Z" fill="#DC0032"/>
<path fill-rule="evenodd" clip-rule="evenodd" d="M4.35828 1.45715L4.16016 1.55996L13.5708 12.9375L13.7524 12.8347L4.35828 1.45715Z" fill="#DC0032"/>
<path fill-rule="evenodd" clip-rule="evenodd" d="M4.20984 1.52576L4.01172 1.62857L13.4388 13.0232L13.6204 12.9204L4.20984 1.52576Z" fill="#DC0032"/>
<path fill-rule="evenodd" clip-rule="evenodd" d="M4.0614 1.61145L3.86328 1.71426L13.2904 13.1089L13.472 13.0061L4.0614 1.61145Z" fill="#DC0032"/>
<path fill-rule="evenodd" clip-rule="evenodd" d="M3.91296 1.69714L3.71484 1.79995L13.142 13.1946L13.3236 13.0918L3.91296 1.69714Z" fill="#DC0032"/>
<path fill-rule="evenodd" clip-rule="evenodd" d="M3.74802 1.78284L3.56641 1.88565L12.9935 13.2974L13.1752 13.1775L3.74802 1.78284Z" fill="#DC0032"/>
<path fill-rule="evenodd" clip-rule="evenodd" d="M3.59958 1.86853L3.41797 1.97134L12.8451 13.3831L13.0267 13.2632L3.59958 1.86853Z" fill="#DC0032"/>
<path fill-rule="evenodd" clip-rule="evenodd" d="M3.45114 1.95422L3.26953 2.05703L12.7132 13.4688L12.8948 13.3489L3.45114 1.95422Z" fill="#DC0032"/>
<path fill-rule="evenodd" clip-rule="evenodd" d="M3.3027 2.02271L3.12109 2.12551L12.5647 13.5544L12.7464 13.4345L3.3027 2.02271Z" fill="#DC0032"/>
<path fill-rule="evenodd" clip-rule="evenodd" d="M3.15231 2.10828L2.9707 2.21109L12.4144 13.64L12.596 13.5372L3.15231 2.10828Z" fill="#DC0032"/>
<path fill-rule="evenodd" clip-rule="evenodd" d="M3.00388 2.19397L2.82227 2.29678L7.41202 7.84844L7.56059 7.95125C7.62663 7.98552 7.69267 8.0712 7.69267 8.15687V8.17401L12.2659 13.7257L12.4475 13.6229L3.00388 2.19397Z" fill="#DC0032"/>
<path fill-rule="evenodd" clip-rule="evenodd" d="M2.85544 2.27966L2.67383 2.38247L6.98292 7.60859L7.52772 7.917L2.85544 2.27966ZM7.67631 8.10548C7.67631 8.12262 7.69282 8.13975 7.69282 8.15689V8.44818L12.1175 13.8114L12.2991 13.7086L7.67631 8.10548Z" fill="#DC0032"/>
<path fill-rule="evenodd" clip-rule="evenodd" d="M2.707 2.36536L2.52539 2.46817L6.55381 7.35159L7.09864 7.66002L2.707 2.36536ZM7.69298 8.37967V8.70523L11.9856 13.8971L12.1672 13.7943L7.69298 8.37967Z" fill="#DC0032"/>
<path fill-rule="evenodd" clip-rule="evenodd" d="M2.55856 2.45105L2.37695 2.55386L6.14121 7.09459L6.66953 7.40302L2.55856 2.45105ZM7.69313 8.63671V8.97941L11.8371 13.9828L12.0187 13.88L7.69313 8.63671Z" fill="#DC0032"/>
<path fill-rule="evenodd" clip-rule="evenodd" d="M2.41013 2.51953L2.22852 2.62234L5.7121 6.83751L6.24042 7.16307L2.41013 2.51953ZM7.69328 8.91081V9.23637L11.6887 14.0684L11.8703 13.9656L7.69328 8.91081Z" fill="#DC0032"/>
<path fill-rule="evenodd" clip-rule="evenodd" d="M2.26168 2.60535L2.08008 2.70816L5.28299 6.58063L5.81131 6.90619L2.26168 2.60535ZM7.69343 9.16798V9.49354L11.5402 14.1542L11.7218 14.0514L7.69343 9.16798Z" fill="#DC0032"/>
<path fill-rule="evenodd" clip-rule="evenodd" d="M2.11325 2.69092L1.93164 2.79373L4.85388 6.34063L5.3822 6.64906L2.11325 2.69092ZM7.69358 9.4249V9.76759L11.3918 14.2569L11.5734 14.137L7.69358 9.4249Z" fill="#DC0032"/>
<path fill-rule="evenodd" clip-rule="evenodd" d="M1.96481 2.77649L1.7832 2.8793L4.42479 6.08351L4.95309 6.39193L1.96481 2.77649ZM7.69373 9.69895V10.0245L11.2599 14.3425L11.4415 14.2225L7.69373 9.69895Z" fill="#DC0032"/>
<path fill-rule="evenodd" clip-rule="evenodd" d="M1.81637 2.86218L1.63477 2.96499L3.99569 5.8265L4.54049 6.13493L1.81637 2.86218ZM7.69388 9.95599V10.2816L11.1114 14.4282L11.293 14.3082L7.69388 9.95599Z" fill="#DC0032"/>
<path fill-rule="evenodd" clip-rule="evenodd" d="M1.66794 2.948L1.48633 3.05081L3.56658 5.56962L4.11141 5.89518L1.66794 2.948ZM5.99353 8.49967L6.42278 9.01372V8.82523C6.42278 8.79097 6.38977 8.73956 6.35674 8.72242L5.99353 8.49967ZM7.69403 10.2132V10.5559L10.963 14.514L11.1446 14.394L7.69403 10.2132Z" fill="#DB0032"/>
<path fill-rule="evenodd" clip-rule="evenodd" d="M1.5195 3.01648L1.33789 3.11929L3.13747 5.31254L3.6823 5.6381L1.5195 3.01648ZM5.56442 8.24259L6.42294 9.27068V8.94512L6.10925 8.56815L5.56442 8.24259ZM7.69418 10.4873V10.8128L10.8146 14.5996L10.9962 14.4968L7.69418 10.4873Z" fill="#DC0032"/>
<path fill-rule="evenodd" clip-rule="evenodd" d="M1.37106 3.10217L1.18945 3.20498L2.72487 5.07267L3.25319 5.38109L1.37106 3.10217ZM5.13531 8.00271L6.42309 9.54485V9.21929L5.68014 8.31114L5.13531 8.00271ZM7.69434 10.7443V11.0698L10.6661 14.6853L10.8477 14.5825L7.69434 10.7443Z" fill="#DC0032"/>
<path fill-rule="evenodd" clip-rule="evenodd" d="M1.22262 3.18787L1.04102 3.29068L2.29576 4.81566L2.82408 5.12409L1.22262 3.18787ZM4.72271 7.74573L6.42324 9.8019V9.47634L5.25103 8.05414L4.72271 7.74573ZM7.69449 11.0185V11.344L10.5342 14.771L10.7158 14.6682L7.69449 11.0185Z" fill="#DC0032"/>
<path fill-rule="evenodd" clip-rule="evenodd" d="M1.07223 3.27356L0.890625 3.37637L1.86471 4.55868L2.39302 4.86708L1.07223 3.27356ZM4.29167 7.48873L6.42144 10.0589V9.73338L4.81997 7.81427L4.29167 7.48873ZM7.69268 11.2755V11.6011L10.3838 14.8567L10.5654 14.7539L7.69268 11.2755Z" fill="#DC0032"/>
<path fill-rule="evenodd" clip-rule="evenodd" d="M0.923795 3.35901L0.742188 3.46182L1.4356 4.30143L1.96392 4.62699L0.923795 3.35901ZM3.86256 7.23148L6.42159 10.3329V10.0073L4.39088 7.55704L3.86256 7.23148ZM7.69284 11.5323V11.8579L10.2354 14.9421L10.417 14.8393L7.69284 11.5323Z" fill="#DC0032"/>
<path fill-rule="evenodd" clip-rule="evenodd" d="M0.775358 3.44482L0.59375 3.54763L1.0065 4.04455L1.55132 4.37011L0.775358 3.44482ZM3.43345 6.99173L6.42174 10.59V10.2645L3.96177 7.30016L3.43345 6.99173ZM7.69299 11.8066V12.1322L10.0869 15.0279L10.2685 14.9251L7.69299 11.8066Z" fill="#DC0032"/>
<path fill-rule="evenodd" clip-rule="evenodd" d="M0.627805 3.51331L0.429688 3.61612L0.578275 3.8046L1.1231 4.11303L0.627805 3.51331ZM3.00523 6.73465L6.42278 10.8641V10.5214L3.55006 7.04308L3.00523 6.73465ZM7.69402 12.0636V12.3891L9.93938 15.1307L10.121 15.0107L7.69402 12.0636Z" fill="#DC0032"/>
<path fill-rule="evenodd" clip-rule="evenodd" d="M0.478849 3.599L0.363281 3.66754L0.693479 3.85602L0.478849 3.599V3.599ZM2.5756 6.47764L6.42241 11.1212V10.7956L3.12043 6.80321L2.5756 6.47764ZM7.69366 12.3206V12.6633L9.80694 15.2164L9.98855 15.0964L7.69366 12.3206Z" fill="#DC0032"/>
<path fill-rule="evenodd" clip-rule="evenodd" d="M2.16211 6.2207L6.42166 11.3783V11.0527L2.69042 6.54627L2.16211 6.2207ZM7.69291 12.5948V12.9204L9.6576 15.3021L9.83921 15.1822L7.69291 12.5948Z" fill="#DC0032"/>
<path fill-rule="evenodd" clip-rule="evenodd" d="M1.73438 5.98083L6.42318 11.6524V11.3097L2.26269 6.28926L1.73438 5.98083ZM7.69443 12.8519V13.1775L9.51053 15.3878L9.69214 15.2679L7.69443 12.8519Z" fill="#DC0032"/>
<path fill-rule="evenodd" clip-rule="evenodd" d="M1.30469 5.72388L6.42275 11.9095V11.584L1.833 6.03231L1.30469 5.72388ZM7.694 13.109V13.4517L9.36151 15.4736L9.54312 15.3708L7.694 13.109Z" fill="#DC0032"/>
<path fill-rule="evenodd" clip-rule="evenodd" d="M0.875 5.46667L6.42232 12.1664V11.8408L1.40332 5.79224L0.875 5.46667ZM7.69357 13.383V13.7085L9.21249 15.5591L9.3941 15.4563L7.69357 13.383Z" fill="#DB0032"/>
<path fill-rule="evenodd" clip-rule="evenodd" d="M0.445312 5.20984L6.42189 12.4407V12.1152L0.973628 5.5354L0.445312 5.20984ZM7.69314 13.6402V13.9657L9.07998 15.6449L9.26159 15.5421L7.69314 13.6402Z" fill="#DA0032"/>
<path fill-rule="evenodd" clip-rule="evenodd" d="M0.015625 4.96985L6.42146 12.6977V12.3721L0.560451 5.27828L0.015625 4.96985ZM7.69271 13.8971V14.2398L8.93096 15.7305L9.11257 15.6277L7.69271 13.8971Z" fill="#D90032"/>
<path fill-rule="evenodd" clip-rule="evenodd" d="M0 4.95264V5.19253L6.42235 12.9546V12.629L0.132079 5.02118L0 4.95264ZM7.6936 14.1712V14.3768C7.6936 14.411 7.67708 14.4453 7.66057 14.4624L8.78325 15.8161L8.96487 15.7133L7.6936 14.1712Z" fill="#D80032"/>
<path fill-rule="evenodd" clip-rule="evenodd" d="M0 5.12402V5.46672L6.42235 13.2288V12.9032L0 5.12402ZM7.67708 14.4282C7.66057 14.4968 7.61104 14.5653 7.56151 14.5824L7.545 14.5996L8.63466 15.9018L8.81627 15.799L7.67708 14.4282L7.67708 14.4282Z" fill="#D70032"/>
<path fill-rule="evenodd" clip-rule="evenodd" d="M0 5.39819V5.72376L6.42234 13.4858V13.1603L0 5.39819ZM7.57802 14.5653C7.57802 14.5824 7.57802 14.5824 7.56151 14.5824L7.39643 14.6853L8.48607 15.9875L8.66768 15.8847L7.57802 14.5653L7.57802 14.5653Z" fill="#D60032"/>
<path fill-rule="evenodd" clip-rule="evenodd" d="M0 5.65515V5.98072L6.42235 13.7428V13.4172L0 5.65515ZM7.44594 14.6509L7.24785 14.7709L8.35399 16.0903L8.5356 15.9703L7.44594 14.6509Z" fill="#D50032"/>
<path fill-rule="evenodd" clip-rule="evenodd" d="M0 5.92932V6.25488L6.42235 14.0169V13.6914L0 5.92932ZM7.29738 14.7366L7.18181 14.8051C7.14879 14.8223 7.11577 14.8223 7.08275 14.8223L8.20541 16.1759L8.38701 16.056L7.29738 14.7366V14.7366Z" fill="#D40032"/>
<path fill-rule="evenodd" clip-rule="evenodd" d="M0 6.18652V6.51209L6.42235 14.2741V13.9486L0 6.18652ZM6.78557 14.7368L8.05682 16.2618L8.23843 16.1418L7.13228 14.8225C7.11577 14.8225 7.08275 14.8396 7.06624 14.8396H7.04973C7.0002 14.8396 6.96718 14.8225 6.93416 14.8053L6.78557 14.7368L6.78557 14.7368Z" fill="#D30032"/>
<path fill-rule="evenodd" clip-rule="evenodd" d="M0 6.44348V6.78618L7.90823 16.3474L8.08984 16.2275L6.90114 14.7881L6.53792 14.5825C6.47188 14.5482 6.42235 14.4626 6.42235 14.3769V14.2055L0 6.44348Z" fill="#D20032"/>
<path fill-rule="evenodd" clip-rule="evenodd" d="M0 6.71765V7.04321L7.75963 16.4331L7.94124 16.3303L0 6.71765Z" fill="#D10032"/>
<path fill-rule="evenodd" clip-rule="evenodd" d="M0 6.97461V7.30017L7.61104 16.5187L7.79265 16.4159L0 6.97461Z" fill="#D00032"/>
<path fill-rule="evenodd" clip-rule="evenodd" d="M0 7.23169V7.57439L7.47896 16.6044L7.66057 16.5016L0 7.23169Z" fill="#CF0032"/>
<path fill-rule="evenodd" clip-rule="evenodd" d="M0 7.50586V7.8314L7.3304 16.6901L7.51198 16.5873L0 7.50586Z" fill="#CE0032"/>
<path fill-rule="evenodd" clip-rule="evenodd" d="M0 7.76282V8.08838L7.1653 16.7586C7.21483 16.7415 7.26436 16.7243 7.31389 16.7072L7.36342 16.6729L0 7.76282Z" fill="#CD0032"/>
<path fill-rule="evenodd" clip-rule="evenodd" d="M0 8.01978V8.36247L6.95067 16.7585C6.98369 16.7585 7.01671 16.7585 7.04973 16.7585C7.09926 16.7585 7.14879 16.7585 7.19832 16.7414L0 8.01978Z" fill="#CC0032"/>
<path fill-rule="evenodd" clip-rule="evenodd" d="M0 8.29382V8.61939L6.57094 16.5699L6.80208 16.707C6.85161 16.7413 6.93416 16.7584 7.0002 16.7584L0 8.29382Z" fill="#CB0032"/>
<path fill-rule="evenodd" clip-rule="evenodd" d="M0 8.55103V8.87659L6.14168 16.3131L6.68651 16.6387L0 8.55103Z" fill="#CA0032"/>
<path fill-rule="evenodd" clip-rule="evenodd" d="M0 8.8252V9.15076L5.71242 16.0561L6.25725 16.3817L0 8.8252Z" fill="#C90032"/>
<path fill-rule="evenodd" clip-rule="evenodd" d="M0 9.08215V9.40772L5.28316 15.799L5.81148 16.1246L0 9.08215Z" fill="#C80033"/>
<path fill-rule="evenodd" clip-rule="evenodd" d="M0 9.33923V9.6648L4.8539 15.542L5.38222 15.8676L0 9.33923Z" fill="#C70033"/>
<path fill-rule="evenodd" clip-rule="evenodd" d="M0 9.61328V9.93885L4.40815 15.2678L4.95296 15.5933L0 9.61328Z" fill="#C60033"/>
<path fill-rule="evenodd" clip-rule="evenodd" d="M0 9.87048V10.196L3.97889 15.0109L4.5237 15.3365L0 9.87048Z" fill="#C50033"/>
<path fill-rule="evenodd" clip-rule="evenodd" d="M0 10.1273V10.4529L3.54963 14.7537L4.09446 15.0793L0 10.1273Z" fill="#C40033"/>
<path fill-rule="evenodd" clip-rule="evenodd" d="M0 10.4015V10.7271L3.12037 14.4967L3.6652 14.8223L0 10.4015Z" fill="#C30033"/>
<path fill-rule="evenodd" clip-rule="evenodd" d="M0 10.6587V10.9842L2.69111 14.2398L3.23594 14.5654L0 10.6587Z" fill="#C20033"/>
<path fill-rule="evenodd" clip-rule="evenodd" d="M0 10.9156V11.2583L2.26185 13.9828L2.79017 14.3083L0 10.9156Z" fill="#C10033"/>
<path fill-rule="evenodd" clip-rule="evenodd" d="M0 11.1898V11.5154L1.81609 13.7258L2.36091 14.0513L0 11.1898Z" fill="#C00033"/>
<path fill-rule="evenodd" clip-rule="evenodd" d="M0 11.4468V11.7723L1.38683 13.4687L1.93166 13.7771L0 11.4468Z" fill="#BF0033"/>
<path fill-rule="evenodd" clip-rule="evenodd" d="M0 11.7039V12.0466L0.957573 13.1946L1.5024 13.5202L0 11.7039Z" fill="#BE0033"/>
<path fill-rule="evenodd" clip-rule="evenodd" d="M0 11.9781V12.3037L0.528316 12.9377L1.07314 13.2633L0 11.9781Z" fill="#BD0033"/>
<path fill-rule="evenodd" clip-rule="evenodd" d="M0 12.235V12.3207C0 12.492 0.115569 12.6976 0.247648 12.7833L0.643886 13.0061L0 12.235Z" fill="#BC0033"/>
<path fill-rule="evenodd" clip-rule="evenodd" d="M0.0996094 12.6292C0.132629 12.6634 0.149139 12.6977 0.182159 12.7148L0.0996094 12.6292Z" fill="#BB0033"/>
</g>
<defs>
<clipPath id="clip0">
<rect width="39" height="17" fill="white" transform="translate(0 0.0350342)"/>
</clipPath>
</defs>
</svg>
