<svg width="19" height="19" viewBox="0 0 19 19" fill="none" xmlns="http://www.w3.org/2000/svg">
<path d="M18.7439 9.53068C18.7413 9.26748 18.728 9.00613 18.7032 8.74886C18.6199 7.89115 18.4148 7.06898 18.1075 6.29827C18.0846 6.24089 18.0635 6.18277 18.0391 6.12613C17.6296 5.15885 17.0547 4.2782 16.351 3.51822C16.3048 3.46861 16.2577 3.41975 16.2107 3.37162C16.0778 3.23355 15.9412 3.0988 15.7998 2.96961C14.1999 1.51295 12.0751 0.623779 9.74591 0.623779C7.39712 0.623779 5.25711 1.52887 3.65275 3.00774C3.27887 3.35238 2.93534 3.72848 2.62365 4.13123C1.44795 5.65193 0.746094 7.55688 0.746094 9.62359C0.746094 14.5866 4.78365 18.6238 9.74628 18.6238C13.2371 18.6238 16.2677 16.6248 17.7596 13.7122C18.0787 13.0896 18.327 12.4259 18.4944 11.7303C18.5369 11.5537 18.5736 11.3764 18.6054 11.1969C18.6961 10.6856 18.7457 10.16 18.7457 9.62359C18.7461 9.5925 18.7442 9.56177 18.7439 9.53068ZM17.0499 5.93364L17.1021 5.87515C17.1706 6.00805 17.2346 6.14316 17.2957 6.28013L17.2106 6.2768L17.0499 6.29901V5.93364ZM15.7495 4.36334L15.751 3.96132C15.8924 4.11124 16.0286 4.26561 16.1589 4.42553L15.9968 4.66688L15.43 4.6617L15.3945 4.54361L15.7495 4.36334ZM4.89285 3.36422V3.34904H5.07313L5.08867 3.28722H5.38371V3.41605L5.29894 3.52932H4.89248L4.89285 3.36422ZM5.18085 3.76587C5.18085 3.76587 5.36113 3.73514 5.37667 3.73514C5.39222 3.73514 5.37667 3.91505 5.37667 3.91505L4.97022 3.94059L4.89285 3.84805L5.18085 3.76587ZM17.6233 7.33847H16.9648L16.5635 7.03974L16.1411 7.08083V7.33847H16.0075L15.8631 7.23556L15.1317 7.0501V6.57627L14.2047 6.64846L13.9175 6.80282H13.5495L13.3692 6.78468L12.9224 7.0327V7.4995L12.0092 8.15842L12.0851 8.43976H12.2702L12.2217 8.70777L12.0914 8.75552L12.0843 9.4559L12.8736 10.3547H13.2171L13.2378 10.2999H13.8553L14.0333 10.1352H14.3835L14.5756 10.3277L15.0976 10.3817L15.0284 11.0758L15.6077 12.0986L15.3027 12.6817L15.3234 12.9563L15.5637 13.1958V13.8562L15.8791 14.2805V14.8291H16.1515C14.6352 16.6907 12.3275 17.883 9.74554 17.883C5.19159 17.8834 1.48645 14.1779 1.48645 9.62359C1.48645 8.47715 1.72189 7.38438 2.14574 6.39118V6.13354L2.44115 5.77483C2.54369 5.58123 2.65363 5.39244 2.77098 5.20846L2.7843 5.35838L2.44152 5.77483C2.33528 5.97547 2.23607 6.18055 2.14611 6.39118V6.86131L2.48927 7.02641V7.67978L2.81836 8.24134L3.086 8.28243L3.12043 8.08994L2.80466 7.60278L2.74284 7.12932H2.92793L3.00604 7.61648L3.46247 8.28243L3.34476 8.49751L3.63498 8.94135L4.35572 9.11978V9.00317L4.64409 9.04426L4.6167 9.25008L4.84325 9.29154L5.19307 9.38705L5.68726 9.95009L6.31841 9.99785L6.38023 10.5128L5.94823 10.8148L5.92787 11.2746L5.86605 11.5559L6.49092 12.3381L6.53867 12.6061C6.53867 12.6061 6.76522 12.6676 6.79298 12.6676C6.82038 12.6676 7.30087 13.0315 7.30087 13.0315V14.4452L7.47226 14.4933L7.35566 15.1456L7.64403 15.5302L7.59072 16.1765L7.97164 16.8462L8.46064 17.2734L8.95224 17.2822L9.00037 17.1242L8.63907 16.8199L8.6598 16.6689L8.72458 16.4838L8.73828 16.295L8.49396 16.2876L8.37069 16.1328L8.57355 15.9378L8.60094 15.7904L8.37439 15.7256L8.38772 15.5887L8.71052 15.5398L9.20137 15.304L9.3661 15.0019L9.88102 14.343L9.76405 13.8277L9.92211 13.5534L10.3956 13.5679L10.7143 13.3154L10.8172 12.3211L11.1707 11.8721L11.2326 11.5837L10.9101 11.4804L10.6973 11.1313L9.96987 11.1239L9.39313 10.904L9.36573 10.4928L9.17324 10.1563L8.65166 10.1485L8.35033 9.67542L8.08269 9.54475L8.06899 9.68912L7.58184 9.71799L7.40341 9.4696L6.89515 9.36632L6.47648 9.85014L5.81756 9.73835L5.76981 8.99577L5.28894 8.91359L5.48181 8.54933L5.42665 8.34018L4.79475 8.76256L4.39718 8.71406L4.2554 8.40348L4.34202 8.08328L4.56117 7.67941L5.06572 7.42399L6.04004 7.42361L6.03745 7.72087L6.38764 7.88375L6.35987 7.37586L6.61234 7.12192L7.1217 6.78728L7.1565 6.55184L7.66439 6.02322L8.20448 5.72412L8.15673 5.68488L8.52246 5.34061L8.65647 5.37615L8.71792 5.45315L8.85674 5.29915L8.89079 5.28397L8.73865 5.2625L8.58428 5.21105V5.06298L8.66609 4.99597H8.84637L8.92892 5.03225L9.00037 5.17662L9.08773 5.1633V5.15071L9.1129 5.15922L9.3661 5.12036L9.40201 4.99672L9.54638 5.03299V5.167L9.41238 5.25917H9.41275L9.43237 5.40613L9.89102 5.54754C9.89102 5.54754 9.89139 5.54939 9.89213 5.5531L9.99763 5.54421L10.0047 5.34542L9.64115 5.17995L9.62042 5.08445L9.92211 4.98154L9.93544 4.6928L9.62005 4.50067L9.59932 4.01389L9.16695 4.22637H9.00925L9.05071 3.85582L8.46212 3.717L8.21855 3.90098V4.46218L7.78062 4.60099L7.60516 4.96673L7.41489 4.99746V4.52955L7.00325 4.47254L6.79743 4.33854L6.7145 4.03536L7.45079 3.60447L7.81098 3.49489L7.84726 3.73699L8.04789 3.72663L8.06344 3.60484L8.27333 3.57485L8.27703 3.53228L8.18671 3.49489L8.16598 3.36607L8.424 3.34423L8.57984 3.18209L8.58836 3.17025L8.59021 3.17099L8.63759 3.12212L9.1799 3.05364L9.41978 3.25724L8.79084 3.59225L9.59117 3.78104L9.69482 3.5134H10.0446L10.1683 3.28019L9.921 3.21837V2.92334L9.14548 2.57981L8.6102 2.64163L8.30813 2.7997L8.32886 3.18394L8.0131 3.13582L7.9646 2.92334L8.26704 2.64866L7.71806 2.62127L7.56037 2.66902L7.49188 2.85411L7.6977 2.88891L7.65661 3.09473L7.30679 3.11546L7.25201 3.25243L6.74449 3.26649C6.74449 3.26649 6.73042 2.97849 6.71006 2.97849C6.6897 2.97849 7.10801 2.97146 7.10801 2.97146L7.41044 2.67606L7.24534 2.59351L7.02583 2.80673L6.66157 2.786L6.44205 2.48393H5.97526L5.4881 2.84782H5.93454L5.97526 2.97849L5.85939 3.08622L6.35358 3.09991L6.4291 3.27834L5.87272 3.25761L5.84569 3.12027L5.49587 3.04476L5.31041 2.94185L4.89396 2.94518C6.25733 1.95198 7.93388 1.36414 9.74591 1.36414C11.8345 1.36414 13.7427 2.14485 15.1987 3.42752L15.1006 3.60299L14.7196 3.75217L14.559 3.92652L14.596 4.12975L14.7926 4.15715L14.911 4.45329L15.2501 4.31669L15.306 4.71279H15.2038L14.9255 4.6717L14.6167 4.72352L14.318 5.14553L13.8908 5.21253L13.829 5.57827L14.0093 5.62084L13.9571 5.8559L13.5328 5.77076L13.1438 5.8559L13.0612 6.07246L13.1286 6.52704L13.357 6.63402L13.7402 6.6318L13.9989 6.60848L14.0778 6.40266L14.482 5.87737L14.7482 5.93179L15.0102 5.69487L15.0591 5.87996L15.704 6.31493L15.6251 6.4208L15.3345 6.40525L15.4463 6.56369L15.6251 6.60293L15.8346 6.51556L15.8302 6.2631L15.9231 6.21646L15.8483 6.13724L15.4182 5.89736L15.3049 5.57864H15.6625L15.7769 5.69191L16.0849 5.95733L16.0978 6.27828L16.4169 6.6181L16.5357 6.15242L16.7567 6.03174L16.7982 6.41265L17.014 6.64957L17.4445 6.64216C17.5278 6.8565 17.6026 7.07454 17.6681 7.29701L17.6233 7.33847ZM5.65505 4.71279L5.87124 4.60988L6.06669 4.65652L5.99932 4.91898L5.78831 4.98598L5.65505 4.71279ZM6.80224 5.33062V5.50053H6.30842L6.12333 5.44907L6.1696 5.33062L6.40689 5.23252H6.73116V5.33062H6.80224ZM7.02953 5.56753V5.73226L6.90589 5.81185L6.75189 5.84036C6.75189 5.84036 6.75189 5.59344 6.75189 5.56753H7.02953ZM6.89034 5.50053V5.30471L7.06025 5.45944L6.89034 5.50053ZM6.96771 5.89662V6.05691L6.84962 6.17537H6.58716L6.62825 5.99546L6.75226 5.98473L6.77781 5.9229L6.96771 5.89662ZM6.31397 5.56753H6.58679L6.23697 6.05654L6.0926 5.97917L6.1237 5.77335L6.31397 5.56753ZM7.43117 5.84036V6.00027H7.16872L7.0969 5.89662V5.74781H7.11763L7.43117 5.84036ZM7.18871 5.62047L7.26348 5.54199L7.38971 5.62047L7.28865 5.70376L7.18871 5.62047ZM17.7573 7.7553L17.7833 7.72494C17.794 7.77158 17.8055 7.81823 17.8158 7.86561L17.7573 7.7553Z" fill="#067147"/>
</svg>
