<svg width="19" height="13" viewBox="0 0 19 13" fill="none" xmlns="http://www.w3.org/2000/svg">
<path d="M18.6595 1.70923L13.8047 6.54498L18.6571 11.3773C18.6836 11.0422 18.6721 1.86719 18.6595 1.70923Z" fill="#D2D2D2"/>
<path d="M16.9106 0.0900879H2.4358C1.96495 0.0900527 1.53169 0.275538 1.21521 0.578797C4.51393 3.86458 6.2394 5.58324 9.25792 8.58996C9.48693 8.81896 9.85867 8.81917 10.0877 8.5909C13.1254 5.5651 15.1163 3.582 18.1284 0.58161C17.8099 0.274026 17.379 0.0900879 16.9106 0.0900879Z" fill="#D2D2D2"/>
<path d="M0.687457 1.70972C0.674309 1.87172 0.662496 11.0448 0.689566 11.3798L5.55105 6.55422L0.687457 1.70972Z" fill="#D2D2D2"/>
<path d="M12.973 7.37329L10.9167 9.42146C10.2316 10.1066 9.11772 10.1095 8.42886 9.42069L6.38245 7.38229L1.2196 12.5071C1.53608 12.8108 1.96344 13.0001 2.4358 13.0001H16.9106C17.3833 13.0001 17.8111 12.8106 18.1276 12.5064L12.973 7.37329Z" fill="#D2D2D2"/>
</svg>
