<svg width="17" height="16" viewBox="0 0 17 16" fill="none" xmlns="http://www.w3.org/2000/svg">
<path d="M15.3894 10.5022C14.4098 10.5022 13.448 10.349 12.5365 10.0478C12.0899 9.89542 11.5408 10.0352 11.2683 10.3151L9.46922 11.6732C7.38284 10.5595 6.09768 9.27475 4.99918 7.20404L6.3173 5.45188C6.65976 5.10988 6.78259 4.61029 6.63543 4.14154C6.33293 3.22529 6.17926 2.26392 6.17926 1.28392C6.1793 0.575958 5.60334 0 4.89543 0H1.95709C1.24918 0 0.673218 0.575958 0.673218 1.28387C0.673218 9.39846 7.2748 16 15.3894 16C16.0973 16 16.6733 15.424 16.6733 14.7161V11.786C16.6732 11.0781 16.0973 10.5022 15.3894 10.5022Z" fill="#D2D2D2"/>
</svg>
