<svg width="19" height="18" viewBox="0 0 19 18" fill="none" xmlns="http://www.w3.org/2000/svg">
<path d="M9.67322 0C4.70265 0 0.673218 4.02943 0.673218 9C0.673218 13.9706 4.70265 18 9.67322 18C14.6438 18 18.6732 13.9706 18.6732 9C18.6732 4.02943 14.6438 0 9.67322 0ZM9.67322 16.418C5.58293 16.418 2.25525 13.0903 2.25525 9C2.25525 4.90971 5.58293 1.58203 9.67322 1.58203C13.7635 1.58203 17.0912 4.90971 17.0912 9C17.0912 13.0903 13.7635 16.418 9.67322 16.418Z" fill="#D2D2D2"/>
<path d="M9.67322 2.63672C6.16448 2.63672 3.30994 5.49127 3.30994 9C3.30994 12.5087 6.16448 15.3633 9.67322 15.3633C13.182 15.3633 16.0365 12.5087 16.0365 9C16.0365 5.49127 13.182 2.63672 9.67322 2.63672ZM10.2006 9.21843L6.66525 12.7537L5.91948 12.008L9.14587 8.78157V4.21875H10.2006V9.21843Z" fill="#D2D2D2"/>
</svg>
