<svg width="153" height="36" viewBox="0 0 153 36" fill="none" xmlns="http://www.w3.org/2000/svg">
<g clip-path="url(#clip0)">
<path d="M3.70303 30V32.3657H1.33731V30H0.103027V35.9314H1.33731V33.36H3.70303V35.9314H4.90303V30H3.70303Z" fill="black"/>
<path d="M7.61162 30H6.41162V35.8971H7.61162V30Z" fill="black"/>
<path d="M13.5777 31.2343C13.2005 31.0628 12.6177 30.8914 12.0005 30.8914C10.7319 30.8914 9.94338 31.68 9.94338 32.9486C9.94338 34.1828 10.6977 35.0057 12.0005 35.0057C12.2405 35.0057 12.5148 34.9714 12.6862 34.9371V33.4628H11.4177V32.5028H13.8177V35.6914C13.1662 35.8971 12.5148 36 11.8291 36C10.0119 36 8.6748 34.8343 8.6748 32.9486C8.6748 31.0971 9.97766 29.9657 12.0348 29.9657C12.6177 29.9657 13.2005 30.0343 13.6805 30.2057L13.5777 31.2343Z" fill="black"/>
<path d="M15.189 30H16.389V32.3657H18.7547V30H19.9547V35.9314H18.7547V33.36H16.389V35.9314H15.189V30Z" fill="black"/>
<path d="M23.6915 30H25.1658C26.4687 30 27.6687 30.3429 27.6687 31.8171C27.6687 33.2229 26.5372 33.6686 25.1658 33.6686H24.8572V35.9314H23.6572V30H23.6915ZM24.8572 32.7429H25.0629C25.8515 32.7429 26.4344 32.5714 26.4344 31.8171C26.4344 31.0971 25.9544 30.8914 25.0629 30.8914H24.8572V32.7429Z" fill="black"/>
<path d="M28.4233 30H31.9205V30.9943H29.5891V32.4H31.7148V33.36H29.5891V34.9371H31.9548V35.9314H28.4233V30Z" fill="black"/>
<path d="M33.1202 30H34.8345C36.3088 30 37.2688 30.3086 37.2688 31.5429C37.2688 32.3314 36.7888 32.7771 36.0345 32.9486C36.4459 33.0514 36.6174 33.2914 36.7888 33.7371L37.7145 35.8971H36.4117L35.7602 34.2171C35.5202 33.6 35.4174 33.4286 34.6631 33.4286H34.2859V35.8971H33.0859V30H33.1202ZM34.2859 32.5371H34.6288C35.5545 32.5371 36.0002 32.2971 36.0002 31.7143C36.0002 31.0629 35.4859 30.9257 34.6288 30.9257H34.2859V32.5371Z" fill="black"/>
<path d="M38.5034 30H41.7948V30.9943H39.7034V32.4686H41.692V33.4629H39.7034V35.9314H38.5034V30Z" fill="black"/>
<path d="M48.4803 32.9486C48.4803 34.8343 47.3489 36.0343 45.566 36.0343C43.8175 36.0343 42.686 34.8686 42.686 32.9829C42.686 31.0286 43.7832 29.9314 45.6346 29.9314C47.3832 29.8971 48.4803 31.0629 48.4803 32.9486ZM43.9546 32.9829C43.9546 34.2857 44.606 35.1086 45.566 35.1086C46.4917 35.1086 47.1775 34.2514 47.1775 32.9829C47.1775 31.6457 46.526 30.8571 45.5318 30.8571C44.606 30.8229 43.9546 31.68 43.9546 32.9829Z" fill="black"/>
<path d="M49.269 30H50.9833C52.4576 30 53.4176 30.3086 53.4176 31.5429C53.4176 32.3314 52.9376 32.7771 52.1833 32.9486C52.5948 33.0514 52.7662 33.2914 52.9376 33.7371L53.8633 35.8971H52.5605L51.909 34.2171C51.669 33.6 51.5662 33.4286 50.8119 33.4286H50.5033V35.8971H49.3033V30H49.269ZM50.469 32.5371H50.8119C51.7376 32.5371 52.1833 32.2971 52.1833 31.7143C52.1833 31.0629 51.669 30.9257 50.8119 30.9257H50.469V32.5371Z" fill="black"/>
<path d="M57.4974 32.8114C57.6688 33.2914 57.8745 34.0114 58.0116 34.56C58.1831 34.0114 58.3888 33.2914 58.5259 32.8114L59.4859 30H61.3374V35.8971H60.2059V33.0171C60.2059 32.4343 60.2059 31.5429 60.2402 30.8571C60.0688 31.44 59.7945 32.2629 59.6574 32.7086L58.5259 35.9314H57.4631L56.3659 32.7429C56.2631 32.4686 55.9202 31.3371 55.7831 30.8571C55.7831 31.5429 55.8174 32.4343 55.8174 33.0171V35.8971H54.7202V30H56.6402L57.4974 32.8114Z" fill="black"/>
<path d="M68.0231 35.9314H66.7202L66.2059 34.56H63.7373L63.2231 35.9314H61.9888L64.3202 30H65.6573L68.0231 35.9314ZM65.3831 32.2629C65.2459 31.92 65.0402 31.2343 64.9716 30.9257H64.9373C64.8688 31.2343 64.6288 31.92 64.4916 32.2629L64.0116 33.6343H65.8631L65.3831 32.2629Z" fill="black"/>
<path d="M72.6173 30H73.6802V35.8971H72.1716L70.6631 32.9829C70.3545 32.4 69.9773 31.5429 69.8059 31.1657C69.8402 31.5429 69.8402 32.6057 69.8402 33.12V35.8971H68.7773V30H70.3545L71.8631 32.9143C72.0688 33.3257 72.4802 34.2171 72.6516 34.6286C72.6173 34.1829 72.6173 33.0514 72.6173 32.4686V30Z" fill="black"/>
<path d="M79.2344 35.7943C78.8573 35.9314 78.3773 36 77.863 36C75.943 36 74.6401 34.8686 74.6401 32.9828C74.6401 31.1314 75.9773 29.9657 77.7601 29.9657C78.2744 29.9657 78.6858 30 79.2001 30.1714L79.1316 31.2C78.7201 30.9943 78.343 30.9257 77.863 30.9257C76.6973 30.9257 75.9087 31.6457 75.9087 32.9486C75.9087 34.2514 76.7658 35.0057 77.8973 35.0057C78.343 35.0057 78.7201 34.9714 79.2001 34.7657L79.2344 35.7943Z" fill="black"/>
<path d="M80.4004 30H83.8975V30.9943H81.5661V32.4H83.6918V33.36H81.5661V34.9371H83.8975V35.9314H80.4004V30Z" fill="black"/>
<path d="M87.4287 30H88.9373C90.2401 30 91.4401 30.3429 91.4401 31.8171C91.4401 33.2229 90.3087 33.6686 88.9373 33.6686H88.6287V35.9314H87.4287V30ZM88.6287 32.7429H88.8344C89.623 32.7429 90.2059 32.5714 90.2059 31.8171C90.2059 31.0971 89.7259 30.8914 88.8344 30.8914H88.6287V32.7429Z" fill="black"/>
<path d="M97.7831 32.9486C97.7831 34.8343 96.6516 36.0343 94.8688 36.0343C93.1202 36.0343 91.9888 34.8686 91.9888 32.9829C91.9888 31.0286 93.0859 29.9314 94.9373 29.9314C96.6859 29.8971 97.7831 31.0629 97.7831 32.9486ZM93.2916 32.9829C93.2916 34.2857 93.9431 35.1086 94.9031 35.1086C95.8288 35.1086 96.5145 34.2514 96.5145 32.9829C96.5145 31.6457 95.8631 30.8571 94.8688 30.8571C93.9431 30.8229 93.2916 31.68 93.2916 32.9829Z" fill="black"/>
<path d="M102.583 31.9543C102.515 31.68 102.412 31.1657 102.377 30.8571C102.343 31.1657 102.24 31.68 102.172 31.9543L101.28 35.8971H99.7717L98.126 29.9657H99.3945L100.252 33.4971C100.286 33.7028 100.492 34.56 100.526 34.9371C100.595 34.5257 100.766 33.6686 100.8 33.4971L101.555 29.9657H103.132L103.955 33.4971C103.989 33.7028 104.16 34.56 104.229 34.9371C104.297 34.56 104.469 33.7028 104.503 33.4971L105.36 29.9657H106.56L104.983 35.8971H103.475L102.583 31.9543Z" fill="black"/>
<path d="M107.521 30H111.018V30.9943H108.686V32.4H110.812V33.36H108.686V34.9371H111.018V35.9314H107.521V30Z" fill="black"/>
<path d="M112.32 30H114.035C115.509 30 116.469 30.3086 116.469 31.5429C116.469 32.3314 115.989 32.7771 115.235 32.9486C115.646 33.0514 115.817 33.2914 115.989 33.7371L116.915 35.8971H115.612L114.96 34.2171C114.72 33.6 114.617 33.4286 113.863 33.4286H113.555V35.8971H112.355V30H112.32ZM113.52 32.5371H113.863C114.789 32.5371 115.235 32.2971 115.235 31.7143C115.235 31.0629 114.72 30.9257 113.863 30.9257H113.52V32.5371Z" fill="black"/>
<path d="M123.806 30.9943H122.126V35.9314H120.926V30.9943H119.314V30H123.806V30.9943Z" fill="black"/>
<path d="M130.08 32.9486C130.08 34.8343 128.949 36.0343 127.166 36.0343C125.418 36.0343 124.286 34.8686 124.286 32.9829C124.286 31.0286 125.383 29.9314 127.235 29.9314C128.949 29.8971 130.08 31.0629 130.08 32.9486ZM125.555 32.9829C125.555 34.2857 126.206 35.1086 127.166 35.1086C128.092 35.1086 128.778 34.2514 128.778 32.9829C128.778 31.6457 128.126 30.8571 127.132 30.8571C126.206 30.8229 125.555 31.68 125.555 32.9829Z" fill="black"/>
<path d="M136.595 32.9486C136.595 34.8343 135.463 36.0343 133.68 36.0343C131.932 36.0343 130.8 34.8686 130.8 32.9829C130.8 31.0286 131.897 29.9314 133.749 29.9314C135.497 29.8971 136.595 31.0629 136.595 32.9486ZM132.103 32.9829C132.103 34.2857 132.755 35.1086 133.715 35.1086C134.64 35.1086 135.326 34.2514 135.326 32.9829C135.326 31.6457 134.675 30.8571 133.68 30.8571C132.72 30.8229 132.103 31.68 132.103 32.9829Z" fill="black"/>
<path d="M137.657 30H138.857V34.9029H141.154V35.9314H137.657V30Z" fill="black"/>
<path d="M145.269 31.0628C144.789 30.8914 144.446 30.8228 144.069 30.8228C143.452 30.8228 143.04 31.0971 143.04 31.5086C143.04 31.8857 143.246 32.0914 144.103 32.4C145.2 32.7771 145.68 33.2914 145.68 34.1828C145.68 35.3143 144.823 36.0343 143.452 36.0343C142.869 36.0343 142.389 35.9657 141.875 35.7943L141.978 34.7657C142.492 35.0057 142.938 35.1086 143.383 35.1086C144 35.1086 144.446 34.8343 144.446 34.3886C144.446 33.9428 144.206 33.7028 143.315 33.36C142.252 32.9828 141.806 32.5028 141.806 31.68C141.806 30.6171 142.663 29.9657 143.932 29.9657C144.446 29.9657 144.892 30.0343 145.372 30.1714L145.269 31.0628Z" fill="black"/>
<path d="M98.2287 0C89.0401 0 85.0973 0 82.0801 11.1771C78.9601 22.8 82.903 22.8 92.1258 22.8C101.314 22.8 105.257 22.8 108.377 11.1771C111.36 0 106.972 0 98.2287 0ZM100.903 11.28C99.3944 16.8686 98.0915 16.8686 93.703 16.8686C89.3144 16.8686 88.0115 16.8686 89.4858 11.28C90.9258 5.89714 92.2287 5.89714 96.6173 5.89714C101.006 5.89714 102.343 5.89714 100.903 11.28Z" fill="black"/>
<path d="M43.6116 22.32H34.8345L38.7088 7.88571H47.4859L43.6116 22.32Z" fill="black"/>
<path d="M38.709 7.88571L40.7318 0.445709H49.4747L38.709 7.88571Z" fill="black"/>
<path d="M27.566 0.445709L25.5775 7.88571H13.3032L15.2917 0.445709H6.54889L0.686035 22.32H9.42889L11.4175 14.88H23.6917L21.7032 22.32H30.4803L36.3432 0.445709H27.566Z" fill="black"/>
<path d="M146.778 22.32H138.035L143.898 0.445709H152.64L146.778 22.32Z" fill="black"/>
<path d="M83.6575 0.445709H74.0232C73.1318 0.445709 72.5489 0.891424 71.966 1.33714L63.8061 7.47428L65.6918 0.445709H56.9146L51.0518 22.3543H59.8289L62.0918 13.9543L69.0861 21.4628C69.4975 21.9086 69.9089 22.3543 70.766 22.3543H80.4003L69.7375 10.9029L83.6575 0.445709Z" fill="black"/>
<path d="M140.812 0.445709H131.177C130.286 0.445709 129.703 0.891424 129.155 1.33714L120.995 7.47428L122.88 0.445709H114.103L108.24 22.3543H117.017L119.28 13.9543L126.275 21.4628C126.686 21.9086 127.097 22.3543 127.955 22.3543H137.589L126.926 10.9029L140.812 0.445709Z" fill="black"/>
</g>
<defs>
<clipPath id="clip0">
<rect width="152.777" height="36" fill="white"/>
</clipPath>
</defs>
</svg>
