<svg width="66" height="278" viewBox="0 0 66 278" fill="none" xmlns="http://www.w3.org/2000/svg">
<path d="M54.5605 271.223L58.8631 271.223L58.8631 275.526L54.5605 275.526L54.5605 277.771L65.348 277.771L65.348 275.526L60.6714 275.526L60.6714 271.223L65.348 271.223L65.348 269.041L54.5605 269.041L54.5605 271.223Z" fill="#A5AFB4"/>
<path d="M54.5605 264.115L54.5605 266.297L65.2857 266.297L65.2857 264.115L54.5605 264.115Z" fill="#A5AFB4"/>
<path d="M56.8052 253.265C56.4934 253.951 56.1816 255.011 56.1816 256.133C56.1816 258.44 57.6158 259.875 59.923 259.875C62.1677 259.875 63.6643 258.503 63.6643 256.133C63.6643 255.697 63.6019 255.198 63.5396 254.886L60.8583 254.886L60.8583 257.193L59.1123 257.193L59.1123 252.828L64.9114 252.828C65.2855 254.013 65.4726 255.198 65.4726 256.445C65.4726 259.75 63.3525 262.182 59.923 262.182C56.5558 262.182 54.498 259.812 54.498 256.071C54.498 255.011 54.6228 253.951 54.9345 253.078L56.8052 253.265Z" fill="#A5AFB4"/>
<path d="M54.5605 250.334L54.5605 248.152L58.8631 248.152L58.8631 243.849L54.5605 243.849L54.5605 241.667L65.348 241.667L65.348 243.849L60.6714 243.849L60.6714 248.152L65.348 248.152L65.348 250.334L54.5605 250.334Z" fill="#A5AFB4"/>
<path d="M54.5605 234.87L54.5605 232.189C54.5605 229.819 55.1841 227.637 57.8654 227.637C60.4219 227.637 61.2326 229.695 61.2326 232.189L61.2326 232.75L65.348 232.75L65.348 234.933L54.5605 234.933L54.5605 234.87ZM59.549 232.75L59.549 232.376C59.549 230.942 59.2372 229.882 57.8654 229.882C56.5559 229.882 56.1818 230.755 56.1818 232.376L56.1818 232.75L59.549 232.75Z" fill="#A5AFB4"/>
<path d="M54.5605 226.265L54.5605 219.905L56.3689 219.905L56.3689 224.145L58.9254 224.145L58.9254 220.279L60.6714 220.279L60.6714 224.145L63.5397 224.145L63.5397 219.843L65.348 219.843L65.348 226.265L54.5605 226.265Z" fill="#A5AFB4"/>
<path d="M54.5605 217.722L54.5605 214.605C54.5605 211.923 55.1217 210.178 57.3665 210.178C58.8007 210.178 59.6113 211.05 59.9231 212.422C60.1102 211.674 60.5467 211.362 61.3573 211.05L65.2857 209.367L65.2857 211.736L62.2303 212.921C61.1079 213.358 60.7961 213.545 60.7961 214.917L60.7961 215.602L65.2857 215.602L65.2857 217.785L54.5605 217.785L54.5605 217.722ZM59.1748 215.602L59.1748 214.979C59.1748 213.295 58.7384 212.485 57.6783 212.485C56.4936 212.485 56.2441 213.42 56.2441 214.979L56.2441 215.602L59.1748 215.602Z" fill="#A5AFB4"/>
<path d="M54.5605 207.933L54.5605 201.947L56.3689 201.947L56.3689 205.75L59.0501 205.75L59.0501 202.134L60.8584 202.134L60.8584 205.75L65.348 205.75L65.348 207.933L54.5605 207.933Z" fill="#A5AFB4"/>
<path d="M59.9261 189.787C63.3556 189.787 65.5381 191.845 65.5381 195.088C65.5381 198.268 63.418 200.325 59.9885 200.325C56.4342 200.325 54.4388 198.33 54.4388 194.963C54.3765 191.783 56.4966 189.787 59.9261 189.787ZM59.9885 198.018C62.358 198.018 63.8545 196.833 63.8545 195.088C63.8545 193.404 62.2956 192.157 59.9885 192.157C57.5566 192.157 56.1224 193.342 56.1224 195.15C56.0601 196.833 57.619 198.018 59.9885 198.018Z" fill="#A5AFB4"/>
<path d="M54.5605 188.353L54.5605 185.235C54.5605 182.554 55.1217 180.808 57.3665 180.808C58.8007 180.808 59.6113 181.681 59.9231 183.053C60.1102 182.305 60.5467 181.993 61.3573 181.681L65.2857 179.998L65.2857 182.367L62.2303 183.552C61.1079 183.988 60.7961 184.175 60.7961 185.547L60.7961 186.108L65.2857 186.108L65.2857 188.291L54.5605 188.291L54.5605 188.353ZM59.1748 186.171L59.1748 185.547C59.1748 183.864 58.7384 183.053 57.6783 183.053C56.4936 183.053 56.2441 183.988 56.2441 185.547L56.2441 186.171L59.1748 186.171Z" fill="#A5AFB4"/>
<path d="M59.6737 173.388C60.5467 173.076 61.8561 172.702 62.8538 172.453C61.8561 172.141 60.5467 171.767 59.6737 171.517L54.5605 169.771L54.5605 166.404L65.2857 166.404L65.2857 168.462L60.0478 168.462C58.9878 168.462 57.3665 168.462 56.1194 168.399C57.1795 168.711 58.676 169.21 59.4866 169.46L65.348 171.517L65.348 173.45L59.549 175.446C59.0501 175.633 56.9924 176.256 56.1194 176.506C57.3665 176.506 58.9878 176.443 60.0478 176.443L65.2857 176.443L65.2857 178.439L54.5605 178.439L54.5605 174.947L59.6737 173.388Z" fill="#A5AFB4"/>
<path d="M65.348 154.245L65.348 156.614L62.8538 157.55L62.8538 162.039L65.348 162.975L65.348 165.219L54.5605 160.979L54.5605 158.547L65.348 154.245ZM58.676 159.046C58.0524 159.296 56.8053 159.67 56.2441 159.794L56.2441 159.857C56.8053 159.982 58.0524 160.418 58.676 160.667L61.1702 161.54L61.1702 158.173L58.676 159.046Z" fill="#A5AFB4"/>
<path d="M54.5605 145.889L54.5605 143.956L65.2857 143.956L65.2857 146.7L59.9855 149.443C58.9254 150.005 57.3665 150.691 56.6806 151.002C57.3665 150.94 59.2995 150.94 60.2349 150.94L65.2857 150.94L65.2857 152.873L54.5605 152.873L54.5605 150.005L59.8607 147.261C60.609 146.887 62.2303 146.139 62.9785 145.827C62.1679 145.889 60.1102 145.889 59.0501 145.889L54.5605 145.889Z" fill="#A5AFB4"/>
<path d="M65.0984 133.855C65.3479 134.541 65.4726 135.414 65.4726 136.349C65.4726 139.841 63.4148 142.21 59.9853 142.21C56.6181 142.21 54.498 139.778 54.498 136.536C54.498 135.601 54.5604 134.852 54.8722 133.917L56.7428 134.042C56.3687 134.79 56.244 135.476 56.244 136.349C56.244 138.469 57.5535 139.903 59.923 139.903C62.2925 139.903 63.6643 138.344 63.6643 136.287C63.6643 135.476 63.6019 134.79 63.2278 133.917L65.0984 133.855Z" fill="#A5AFB4"/>
<path d="M54.5605 131.735L54.5605 125.374L56.3689 125.374L56.3689 129.614L58.9254 129.614L58.9254 125.748L60.6714 125.748L60.6714 129.614L63.5397 129.614L63.5397 125.374L65.348 125.374L65.348 131.735L54.5605 131.735Z" fill="#A5AFB4"/>
<path d="M54.5605 118.952L54.5605 116.208C54.5605 113.839 55.1841 111.656 57.8654 111.656C60.4219 111.656 61.2326 113.714 61.2326 116.208L61.2326 116.769L65.348 116.769L65.348 118.952L54.5605 118.952ZM59.549 116.769L59.549 116.395C59.549 114.961 59.2372 113.901 57.8654 113.901C56.5559 113.901 56.1818 114.774 56.1818 116.395L56.1818 116.769L59.549 116.769Z" fill="#A5AFB4"/>
<path d="M59.9261 100.12C63.3556 100.12 65.5381 102.178 65.5381 105.421C65.5381 108.601 63.418 110.659 59.9885 110.659C56.4342 110.659 54.4388 108.663 54.4388 105.296C54.3765 102.116 56.4966 100.12 59.9261 100.12ZM59.9885 108.289C62.358 108.289 63.8545 107.104 63.8545 105.358C63.8545 103.675 62.2956 102.428 59.9885 102.428C57.5566 102.428 56.1224 103.612 56.1224 105.421C56.0601 107.104 57.619 108.289 59.9885 108.289Z" fill="#A5AFB4"/>
<path d="M58.1146 91.3907C57.6158 91.5154 56.6805 91.7025 56.1193 91.7648C56.6805 91.8272 57.6158 92.0143 58.1146 92.139L65.2855 93.7602L65.2855 96.5038L54.498 99.4969L54.498 97.1898L60.9206 95.6309C61.2948 95.5685 62.8536 95.1944 63.5396 95.132C62.7913 95.0073 61.2324 94.6955 60.9206 94.6332L54.498 93.2614L54.498 90.393L60.9206 88.8965C61.2948 88.8341 62.8536 88.5224 63.5396 88.3977C62.8536 88.273 61.2948 87.9612 60.9206 87.8988L54.498 86.3399L54.498 84.1575L65.2855 87.0258L65.2855 89.7695L58.1146 91.3907Z" fill="#A5AFB4"/>
<path d="M54.5605 82.4116L54.5605 76.0513L56.3689 76.0513L56.3689 80.2915L58.9254 80.2915L58.9254 76.4254L60.6714 76.4254L60.6714 80.2915L63.5397 80.2915L63.5397 76.0513L65.348 76.0513L65.348 82.4116L54.5605 82.4116Z" fill="#A5AFB4"/>
<path d="M54.5605 73.6818L54.5605 70.5641C54.5605 67.8828 55.1217 66.1368 57.3665 66.1368C58.8007 66.1368 59.6113 67.0098 59.9231 68.3816C60.1102 67.6334 60.5467 67.3216 61.3573 67.0098L65.2857 65.3262L65.2857 67.6957L62.2303 68.8805C61.1079 69.317 60.7961 69.504 60.7961 70.8758L60.7961 71.437L65.2857 71.437L65.2857 73.6195L54.5605 73.6195L54.5605 73.6818ZM59.1748 71.4994L59.1748 70.8758C59.1748 69.1922 58.7384 68.3816 57.6783 68.3816C56.4936 68.3816 56.2441 69.3169 56.2441 70.8758L56.2441 71.4994L59.1748 71.4994Z" fill="#A5AFB4"/>
<path d="M56.3689 52.7928L56.3689 55.8482L65.348 55.8482L65.348 58.0306L56.3689 58.0306L56.3689 60.9613L54.5605 60.9613L54.5605 52.7928L56.3689 52.7928Z" fill="#A5AFB4"/>
<path d="M59.9261 41.3818C63.3556 41.3818 65.5381 43.4395 65.5381 46.682C65.5381 49.8621 63.418 51.9198 59.9885 51.9198C56.4342 51.9198 54.4388 49.9244 54.4388 46.5573C54.3765 43.4395 56.4966 41.3818 59.9261 41.3818ZM59.9885 49.6127C62.358 49.6127 63.8545 48.4279 63.8545 46.682C63.8545 44.9984 62.2956 43.7513 59.9885 43.7513C57.5566 43.7513 56.1224 44.936 56.1224 46.7443C56.0601 48.4279 57.619 49.6127 59.9885 49.6127Z" fill="#A5AFB4"/>
<path d="M59.9261 29.5343C63.3556 29.5343 65.5381 31.592 65.5381 34.8345C65.5381 38.0146 63.418 40.0723 59.9885 40.0723C56.4342 40.0723 54.4388 38.077 54.4388 34.7098C54.3765 31.5297 56.4966 29.5343 59.9261 29.5343ZM59.9885 37.7028C62.358 37.7028 63.8545 36.5181 63.8545 34.7721C63.8545 33.0885 62.2956 31.8414 59.9885 31.8414C57.5566 31.8414 56.1224 33.0262 56.1224 34.8345C56.0601 36.5804 57.619 37.7028 59.9885 37.7028Z" fill="#A5AFB4"/>
<path d="M54.5605 27.6013L54.5605 25.4188L63.4774 25.4188L63.4774 21.241L65.348 21.241L65.348 27.6013L54.5605 27.6013Z" fill="#A5AFB4"/>
<path d="M56.4934 13.7584C56.1816 14.6314 56.0569 15.2549 56.0569 15.9408C56.0569 17.0632 56.5558 17.8115 57.304 17.8115C57.9899 17.8115 58.3641 17.4374 58.9253 15.8785C59.6112 13.8831 60.5465 13.0102 62.1677 13.0102C64.2255 13.0102 65.5349 14.569 65.5349 17.0632C65.5349 18.1233 65.4102 18.9962 65.0984 19.9316L63.2278 19.7445C63.6643 18.8092 63.8513 17.9986 63.8513 17.1879C63.8513 16.0655 63.3525 15.2549 62.5419 15.2549C61.7313 15.2549 61.2948 15.6914 60.6712 17.3127C59.9853 19.2457 59.1123 20.0563 57.6158 20.0563C55.6828 20.0563 54.498 18.4974 54.498 16.1903C54.498 15.2549 54.6228 14.4443 54.8722 13.5714L56.4934 13.7584Z" fill="#A5AFB4"/>
<path d="M-1.36755e-06 99.3099C-6.37075e-07 116.021 -3.23627e-07 123.192 20.3278 128.679C41.4663 134.354 41.4663 127.183 41.4663 110.409C41.4662 93.6979 41.4662 86.527 20.3278 80.8527C-2.41146e-06 75.4278 -2.06258e-06 83.4093 -1.36755e-06 99.3099ZM20.5149 94.4461C30.6788 97.1898 30.6788 99.5593 30.6788 107.541C30.6788 115.522 30.6788 117.892 20.5149 115.21C10.7251 112.592 10.7251 110.222 10.7251 102.241C10.7251 94.2591 10.7251 91.8272 20.5149 94.4461Z" fill="#A5AFB4"/>
<path d="M40.5934 198.642L40.5934 214.605L14.3418 207.559L14.3418 191.596L40.5934 198.642Z" fill="#A5AFB4"/>
<path d="M14.3416 207.558L0.810547 203.88L0.810546 187.979L14.3416 207.558Z" fill="#A5AFB4"/>
<path d="M0.810545 227.824L14.3416 231.441L14.3416 253.764L0.810546 250.147L0.810546 266.048L40.5932 276.711L40.5932 260.81L27.0621 257.193L27.0621 234.87L40.5932 238.487L40.5932 222.524L0.810544 211.861L0.810545 227.824Z" fill="#A5AFB4"/>
<path d="M40.5932 11.0148L40.5932 26.9154L0.810546 16.2527L0.810546 0.352064L40.5932 11.0148Z" fill="#A5AFB4"/>
<path d="M0.810544 125.811L0.810545 143.333C0.810545 144.954 1.62116 146.014 2.43178 147.074L13.5934 161.914L0.810546 158.485L0.810546 174.448L40.6556 185.111L40.6556 169.148L25.3785 165.032L39.0343 152.312C39.8449 151.564 40.6556 150.815 40.6556 149.256L40.6556 131.735L19.8289 151.127L0.810544 125.811Z" fill="#A5AFB4"/>
<path d="M0.810544 21.8645L0.810545 39.3863C0.810545 41.0076 1.62116 42.0676 2.43178 43.0653L13.5934 57.9058L0.810546 54.4763L0.810546 70.4393L40.6556 81.102L40.6556 65.1391L25.3785 61.0236L39.0343 48.3031C39.8449 47.5549 40.6556 46.8066 40.6556 45.2477L40.6556 27.7259L19.8289 47.1184L0.810544 21.8645Z" fill="#A5AFB4"/>
</svg>
