<svg width="66" height="278" viewBox="0 0 66 278" fill="none" xmlns="http://www.w3.org/2000/svg">
<path d="M54.5605 270.704L58.8631 270.704L58.8631 275.003L54.5605 275.003L54.5605 277.246L65.348 277.246L65.348 275.003L60.6714 275.003L60.6714 270.704L65.348 270.704L65.348 268.524L54.5605 268.524L54.5605 270.704Z" fill="#D2D2D2"/>
<path d="M54.5605 263.602L54.5605 265.783L65.2857 265.783L65.2857 263.602L54.5605 263.602Z" fill="#D2D2D2"/>
<path d="M56.8052 252.762C56.4934 253.448 56.1816 254.507 56.1816 255.628C56.1816 257.933 57.6158 259.366 59.923 259.366C62.1678 259.366 63.6643 257.995 63.6643 255.628C63.6643 255.192 63.6019 254.694 63.5396 254.382L60.8583 254.382L60.8583 256.687L59.1123 256.687L59.1123 252.326L64.9114 252.326C65.2855 253.51 65.4726 254.694 65.4726 255.94C65.4726 259.241 63.3525 261.671 59.923 261.671C56.5558 261.671 54.498 259.304 54.498 255.566C54.498 254.507 54.6228 253.448 54.9345 252.575L56.8052 252.762Z" fill="#D2D2D2"/>
<path d="M54.5605 249.834L54.5605 247.654L58.8631 247.654L58.8631 243.355L54.5605 243.355L54.5605 241.175L65.348 241.175L65.348 243.355L60.6714 243.355L60.6714 247.654L65.348 247.654L65.348 249.834L54.5605 249.834Z" fill="#D2D2D2"/>
<path d="M54.5605 234.384L54.5605 231.706C54.5605 229.338 55.1841 227.158 57.8654 227.158C60.422 227.158 61.2326 229.214 61.2326 231.706L61.2326 232.266L65.348 232.266L65.348 234.447L54.5605 234.447L54.5605 234.384ZM59.549 232.266L59.549 231.892C59.549 230.46 59.2372 229.401 57.8654 229.401C56.5559 229.401 56.1818 230.273 56.1818 231.892L56.1818 232.266L59.549 232.266Z" fill="#D2D2D2"/>
<path d="M54.5605 225.787L54.5605 219.433L56.3689 219.433L56.3689 223.669L58.9254 223.669L58.9254 219.807L60.6714 219.807L60.6714 223.669L63.5397 223.669L63.5397 219.371L65.348 219.371L65.348 225.787L54.5605 225.787Z" fill="#D2D2D2"/>
<path d="M54.5605 217.252L54.5605 214.137C54.5605 211.459 55.1217 209.714 57.3665 209.714C58.8007 209.714 59.6113 210.586 59.9231 211.957C60.1102 211.209 60.5467 210.898 61.3573 210.586L65.2857 208.904L65.2857 211.272L62.2303 212.455C61.1079 212.892 60.7961 213.078 60.7961 214.449L60.7961 215.134L65.2857 215.134L65.2857 217.315L54.5605 217.315L54.5605 217.252ZM59.1748 215.134L59.1748 214.511C59.1748 212.829 58.7384 212.019 57.6783 212.019C56.4936 212.019 56.2441 212.954 56.2441 214.511L56.2441 215.134L59.1748 215.134Z" fill="#D2D2D2"/>
<path d="M54.5605 207.472L54.5605 201.491L56.3689 201.491L56.3689 205.291L59.0501 205.291L59.0501 201.678L60.8584 201.678L60.8584 205.291L65.348 205.291L65.348 207.472L54.5605 207.472Z" fill="#D2D2D2"/>
<path d="M59.9261 189.343C63.3556 189.343 65.5381 191.399 65.5381 194.638C65.5381 197.815 63.418 199.871 59.9884 199.871C56.4342 199.871 54.4388 197.878 54.4388 194.514C54.3765 191.336 56.4966 189.343 59.9261 189.343ZM59.9884 197.566C62.3579 197.566 63.8545 196.383 63.8545 194.638C63.8545 192.956 62.2956 191.71 59.9884 191.71C57.5566 191.71 56.1224 192.894 56.1224 194.7C56.0601 196.383 57.6189 197.566 59.9884 197.566Z" fill="#D2D2D2"/>
<path d="M54.5605 187.91L54.5605 184.795C54.5605 182.116 55.1217 180.372 57.3665 180.372C58.8007 180.372 59.6113 181.244 59.9231 182.615C60.1102 181.867 60.5467 181.556 61.3573 181.244L65.2857 179.562L65.2857 181.929L62.2303 183.113C61.1079 183.549 60.7961 183.736 60.7961 185.107L60.7961 185.667L65.2857 185.667L65.2857 187.848L54.5605 187.848L54.5605 187.91ZM59.1748 185.73L59.1748 185.107C59.1748 183.425 58.7384 182.615 57.6783 182.615C56.4936 182.615 56.2441 183.549 56.2441 185.107L56.2441 185.73L59.1748 185.73Z" fill="#D2D2D2"/>
<path d="M59.6737 172.958C60.5467 172.647 61.8561 172.273 62.8538 172.024C61.8561 171.712 60.5467 171.339 59.6737 171.089L54.5605 169.345L54.5605 165.981L65.2857 165.981L65.2857 168.037L60.0478 168.037C58.9878 168.037 57.3665 168.037 56.1194 167.975C57.1795 168.286 58.676 168.784 59.4866 169.034L65.348 171.089L65.348 173.021L59.549 175.014C59.0501 175.201 56.9924 175.824 56.1194 176.073C57.3665 176.073 58.9878 176.011 60.0478 176.011L65.2857 176.011L65.2857 178.005L54.5605 178.005L54.5605 174.516L59.6737 172.958Z" fill="#D2D2D2"/>
<path d="M65.348 153.833L65.348 156.2L62.8538 157.135L62.8538 161.62L65.348 162.555L65.348 164.797L54.5605 160.561L54.5605 158.131L65.348 153.833ZM58.676 158.63C58.0524 158.879 56.8053 159.253 56.2441 159.377L56.2441 159.44C56.8053 159.564 58.0524 160 58.676 160.25L61.1702 161.122L61.1702 157.758L58.676 158.63Z" fill="#D2D2D2"/>
<path d="M54.5605 145.485L54.5605 143.554L65.2857 143.554L65.2857 146.295L59.9855 149.036C58.9254 149.597 57.3665 150.282 56.6806 150.593C57.3665 150.531 59.2996 150.531 60.2349 150.531L65.2857 150.531L65.2857 152.462L54.5605 152.462L54.5605 149.597L59.8608 146.855C60.609 146.482 62.2303 145.734 62.9785 145.423C62.1679 145.485 60.1102 145.485 59.0501 145.485L54.5605 145.485Z" fill="#D2D2D2"/>
<path d="M65.0984 133.461C65.3479 134.147 65.4726 135.019 65.4726 135.953C65.4726 139.442 63.4148 141.809 59.9853 141.809C56.6181 141.809 54.498 139.38 54.498 136.14C54.498 135.206 54.5604 134.458 54.8722 133.524L56.7428 133.648C56.3687 134.396 56.244 135.081 56.244 135.953C56.244 138.071 57.5535 139.504 59.9229 139.504C62.2924 139.504 63.6643 137.947 63.6643 135.891C63.6643 135.081 63.6019 134.396 63.2278 133.524L65.0984 133.461Z" fill="#D2D2D2"/>
<path d="M54.5605 131.343L54.5605 124.989L56.3689 124.989L56.3689 129.225L58.9254 129.225L58.9254 125.363L60.6714 125.363L60.6714 129.225L63.5397 129.225L63.5397 124.989L65.348 124.989L65.348 131.343L54.5605 131.343Z" fill="#D2D2D2"/>
<path d="M54.5605 118.572L54.5605 115.831C54.5605 113.464 55.1841 111.283 57.8654 111.283C60.422 111.283 61.2326 113.339 61.2326 115.831L61.2326 116.392L65.348 116.392L65.348 118.572L54.5605 118.572ZM59.549 116.392L59.549 116.018C59.549 114.585 59.2372 113.526 57.8654 113.526C56.5559 113.526 56.1818 114.398 56.1818 116.018L56.1818 116.392L59.549 116.392Z" fill="#D2D2D2"/>
<path d="M59.9261 99.7579C63.3556 99.7579 65.5381 101.814 65.5381 105.053C65.5381 108.231 63.418 110.286 59.9884 110.286C56.4342 110.286 54.4388 108.293 54.4388 104.929C54.3765 101.751 56.4966 99.7579 59.9261 99.7579ZM59.9884 107.919C62.3579 107.919 63.8545 106.735 63.8545 104.991C63.8545 103.309 62.2956 102.063 59.9884 102.063C57.5566 102.063 56.1224 103.247 56.1224 105.053C56.0601 106.735 57.6189 107.919 59.9884 107.919Z" fill="#D2D2D2"/>
<path d="M58.1147 91.0363C57.6158 91.1609 56.6805 91.3478 56.1193 91.41C56.6805 91.4723 57.6158 91.6592 58.1147 91.7838L65.2855 93.4036L65.2855 96.1447L54.498 99.135L54.498 96.83L60.9206 95.2725C61.2948 95.2102 62.8537 94.8364 63.5396 94.7741C62.7913 94.6495 61.2324 94.3381 60.9206 94.2758L54.498 92.9052L54.498 90.0395L60.9206 88.5443C61.2948 88.482 62.8537 88.1706 63.5396 88.046C62.8537 87.9214 61.2948 87.6099 60.9206 87.5476L54.498 85.9901L54.498 83.8097L65.2855 86.6754L65.2855 89.4165L58.1147 91.0363Z" fill="#D2D2D2"/>
<path d="M54.5605 82.0652L54.5605 75.7108L56.3689 75.7108L56.3689 79.9471L58.9254 79.9471L58.9254 76.0846L60.6714 76.0846L60.6714 79.9471L63.5397 79.9471L63.5397 75.7108L65.348 75.7108L65.348 82.0652L54.5605 82.0652Z" fill="#D2D2D2"/>
<path d="M54.5605 73.3436L54.5605 70.2287C54.5605 67.5498 55.1217 65.8055 57.3665 65.8055C58.8007 65.8055 59.6113 66.6777 59.9231 68.0482C60.1102 67.3006 60.5467 66.9892 61.3573 66.6777L65.2857 64.9956L65.2857 67.3629L62.2303 68.5466C61.1079 68.9827 60.7961 69.1696 60.7961 70.5401L60.7961 71.1008L65.2857 71.1008L65.2857 73.2813L54.5605 73.2813L54.5605 73.3436ZM59.1748 71.1631L59.1748 70.5401C59.1748 68.8581 58.7384 68.0482 57.6783 68.0482C56.4936 68.0482 56.2441 68.9827 56.2441 70.5401L56.2441 71.1631L59.1748 71.1631Z" fill="#D2D2D2"/>
<path d="M56.3689 52.4736L56.3689 55.5262L65.348 55.5262L65.348 57.7066L56.3689 57.7066L56.3689 60.6346L54.5605 60.6346L54.5605 52.4736L56.3689 52.4736Z" fill="#D2D2D2"/>
<path d="M59.9261 41.0731C63.3556 41.0731 65.5381 43.1289 65.5381 46.3684C65.5381 49.5456 63.418 51.6014 59.9884 51.6014C56.4342 51.6014 54.4388 49.6079 54.4388 46.2438C54.3765 43.1289 56.4966 41.0731 59.9261 41.0731ZM59.9884 49.2964C62.3579 49.2964 63.8545 48.1128 63.8545 46.3684C63.8545 44.6864 62.2956 43.4404 59.9884 43.4404C57.5566 43.4404 56.1224 44.6241 56.1224 46.4307C56.0601 48.1128 57.6189 49.2964 59.9884 49.2964Z" fill="#D2D2D2"/>
<path d="M59.9261 29.2364C63.3556 29.2364 65.5381 31.2922 65.5381 34.5317C65.5381 37.7089 63.418 39.7648 59.9884 39.7648C56.4342 39.7648 54.4388 37.7712 54.4388 34.4071C54.3765 31.2299 56.4966 29.2364 59.9261 29.2364ZM59.9884 37.3974C62.3579 37.3974 63.8545 36.2138 63.8545 34.4694C63.8545 32.7874 62.2956 31.5414 59.9884 31.5414C57.5566 31.5414 56.1224 32.7251 56.1224 34.5317C56.0601 36.2761 57.6189 37.3974 59.9884 37.3974Z" fill="#D2D2D2"/>
<path d="M54.5605 27.3052L54.5605 25.1247L63.4774 25.1247L63.4774 20.9507L65.348 20.9507L65.348 27.3052L54.5605 27.3052Z" fill="#D2D2D2"/>
<path d="M56.4934 13.4749C56.1816 14.3471 56.0569 14.9701 56.0569 15.6554C56.0569 16.7767 56.5558 17.5243 57.304 17.5243C57.9899 17.5243 58.3641 17.1505 58.9253 15.5931C59.6112 13.5995 60.5465 12.7274 62.1678 12.7274C64.2255 12.7274 65.5349 14.2848 65.5349 16.7767C65.5349 17.8358 65.4102 18.708 65.0985 19.6424L63.2278 19.4555C63.6643 18.5211 63.8513 17.7112 63.8513 16.9013C63.8513 15.7799 63.3525 14.9701 62.5419 14.9701C61.7313 14.9701 61.2948 15.4062 60.6712 17.0259C59.9853 18.9572 59.1123 19.767 57.6158 19.767C55.6828 19.767 54.498 18.2096 54.498 15.9046C54.498 14.9701 54.6228 14.1602 54.8722 13.288L56.4934 13.4749Z" fill="#D2D2D2"/>
<path d="M-1.3688e-06 98.9482C-6.37658e-07 115.644 -3.23923e-07 122.808 20.3278 128.291C41.4662 133.96 41.4662 126.795 41.4662 110.037C41.4662 93.3413 41.4662 86.177 20.3278 80.5079C-2.41367e-06 75.0879 -2.06447e-06 83.0621 -1.3688e-06 98.9482ZM20.5149 94.0889C30.6788 96.83 30.6788 99.1974 30.6788 107.172C30.6788 115.146 30.6788 117.513 20.5149 114.834C10.7251 112.218 10.7251 109.85 10.7251 101.876C10.7251 93.902 10.7251 91.4724 20.5149 94.0889Z" fill="#D2D2D2"/>
<path d="M40.5934 198.189L40.5934 214.138L14.3418 207.098L14.3418 191.15L40.5934 198.189Z" fill="#D2D2D2"/>
<path d="M14.3416 207.098L0.810547 203.422L0.810546 187.536L14.3416 207.098Z" fill="#D2D2D2"/>
<path d="M0.810545 227.344L14.3416 230.957L14.3416 253.26L0.810546 249.647L0.810546 265.533L40.5932 276.186L40.5932 260.299L27.0621 256.686L27.0621 234.383L40.5932 237.997L40.5932 222.048L0.810544 211.395L0.810545 227.344Z" fill="#D2D2D2"/>
<path d="M40.5932 10.7339L40.5932 26.6199L0.810546 15.9669L0.810546 0.0808735L40.5932 10.7339Z" fill="#D2D2D2"/>
<path d="M0.810544 125.425L0.810545 142.931C0.810545 144.55 1.62116 145.609 2.43178 146.669L13.5934 161.495L0.810546 158.069L0.810546 174.017L40.6555 184.67L40.6555 168.722L25.3785 164.61L39.0343 151.902C39.8449 151.154 40.6555 150.406 40.6555 148.849L40.6555 131.343L19.8289 150.718L0.810544 125.425Z" fill="#D2D2D2"/>
<path d="M0.810544 21.5736L0.810545 39.0794C0.810545 40.6992 1.62116 41.7582 2.43178 42.755L13.5934 57.582L0.810546 54.1556L0.810546 70.104L40.6555 80.757L40.6555 64.8086L25.3785 60.6969L39.0343 47.9881C39.8449 47.2405 40.6555 46.4929 40.6555 44.9355L40.6555 27.4297L19.8289 46.8044L0.810544 21.5736Z" fill="#D2D2D2"/>
</svg>
