<svg width="128" height="31" viewBox="0 0 128 31" fill="none" xmlns="http://www.w3.org/2000/svg">
<path d="M3.19531 25.035V27.0065H1.22388V25.035H0.195312V29.9779H1.22388V27.835H3.19531V29.9779H4.19531V25.035H3.19531Z" fill="#067147"/>
<path d="M6.45312 25.035H5.45312V29.9493H6.45312V25.035Z" fill="#067147"/>
<path d="M11.4236 26.0636C11.1093 25.9208 10.6236 25.7779 10.1093 25.7779C9.05218 25.7779 8.39503 26.435 8.39503 27.4922C8.39503 28.5208 9.02361 29.2065 10.1093 29.2065C10.3093 29.2065 10.5379 29.1779 10.6807 29.1493V27.9208H9.62361V27.1208H11.6236V29.7779C11.0807 29.9493 10.5379 30.035 9.96646 30.035C8.45218 30.035 7.33789 29.0636 7.33789 27.4922C7.33789 25.9493 8.4236 25.0065 10.1379 25.0065C10.6236 25.0065 11.1093 25.0636 11.5093 25.2065L11.4236 26.0636Z" fill="#067147"/>
<path d="M12.7676 25.035H13.7676V27.0065H15.739V25.035H16.739V29.9779H15.739V27.835H13.7676V29.9779H12.7676V25.035Z" fill="#067147"/>
<path d="M19.8528 25.035H21.0814C22.1671 25.035 23.1671 25.3207 23.1671 26.5493C23.1671 27.7208 22.2242 28.0922 21.0814 28.0922H20.8242V29.9779H19.8242V25.035H19.8528ZM20.8242 27.3207H20.9956C21.6528 27.3207 22.1385 27.1779 22.1385 26.5493C22.1385 25.9493 21.7385 25.7779 20.9956 25.7779H20.8242V27.3207Z" fill="#067147"/>
<path d="M23.7969 25.035H26.7112V25.8636H24.7683V27.035H26.5397V27.835H24.7683V29.1493H26.7397V29.9779H23.7969V25.035Z" fill="#067147"/>
<path d="M27.7102 25.035H29.1388C30.3674 25.035 31.1674 25.2922 31.1674 26.3207C31.1674 26.9779 30.7674 27.3493 30.1388 27.4922C30.4816 27.5779 30.6245 27.7779 30.7674 28.1493L31.5388 29.9493H30.4531L29.9102 28.5493C29.7102 28.035 29.6245 27.8922 28.9959 27.8922H28.6816V29.9493H27.6816V25.035H27.7102ZM28.6816 27.1493H28.9674C29.7388 27.1493 30.1102 26.9493 30.1102 26.4636C30.1102 25.9207 29.6816 25.8065 28.9674 25.8065H28.6816V27.1493Z" fill="#067147"/>
<path d="M32.1953 25.035H34.9382V25.8636H33.1953V27.0922H34.8524V27.9207H33.1953V29.9779H32.1953V25.035Z" fill="#067147"/>
<path d="M40.5102 27.4922C40.5102 29.0636 39.5674 30.0636 38.0816 30.0636C36.6245 30.0636 35.6816 29.0922 35.6816 27.5208C35.6816 25.8922 36.5959 24.9779 38.1388 24.9779C39.5959 24.9493 40.5102 25.9208 40.5102 27.4922ZM36.7388 27.5208C36.7388 28.6065 37.2816 29.2922 38.0816 29.2922C38.8531 29.2922 39.4245 28.5779 39.4245 27.5208C39.4245 26.4065 38.8816 25.7493 38.0531 25.7493C37.2816 25.7208 36.7388 26.435 36.7388 27.5208Z" fill="#067147"/>
<path d="M41.168 25.035H42.5965C43.8251 25.035 44.6251 25.2922 44.6251 26.3207C44.6251 26.9779 44.2251 27.3493 43.5965 27.4922C43.9394 27.5779 44.0823 27.7779 44.2251 28.1493L44.9965 29.9493H43.9108L43.368 28.5493C43.168 28.035 43.0823 27.8922 42.4537 27.8922H42.1965V29.9493H41.1965V25.035H41.168ZM42.168 27.1493H42.4537C43.2251 27.1493 43.5965 26.9493 43.5965 26.4636C43.5965 25.9207 43.168 25.8065 42.4537 25.8065H42.168V27.1493Z" fill="#067147"/>
<path d="M48.0252 27.3779C48.1681 27.7779 48.3395 28.3779 48.4538 28.835C48.5966 28.3779 48.7681 27.7779 48.8824 27.3779L49.6824 25.035H51.2252V29.9493H50.2824V27.5493C50.2824 27.0636 50.2824 26.3207 50.3109 25.7493C50.1681 26.235 49.9395 26.9208 49.8252 27.2922L48.8824 29.9779H47.9967L47.0824 27.3207C46.9966 27.0922 46.7109 26.1493 46.5966 25.7493C46.5966 26.3207 46.6252 27.0636 46.6252 27.5493V29.9493H45.7109V25.035H47.3109L48.0252 27.3779Z" fill="#067147"/>
<path d="M56.7962 29.9779H55.7104L55.2819 28.835H53.2247L52.7961 29.9779H51.7676L53.7104 25.035H54.8247L56.7962 29.9779ZM54.5961 26.9207C54.4819 26.635 54.3104 26.0636 54.2533 25.8065H54.2247C54.1676 26.0636 53.9676 26.635 53.8533 26.9207L53.4533 28.0636H54.9962L54.5961 26.9207Z" fill="#067147"/>
<path d="M60.6238 25.035H61.5095V29.9493H60.2524L58.9953 27.5207C58.7381 27.035 58.4238 26.3207 58.281 26.0065C58.3095 26.3207 58.3095 27.2065 58.3095 27.635V29.9493H57.4238V25.035H58.7381L59.9953 27.4636C60.1667 27.8065 60.5095 28.5493 60.6524 28.8922C60.6238 28.5208 60.6238 27.5779 60.6238 27.0922V25.035Z" fill="#067147"/>
<path d="M66.1391 29.8636C65.8248 29.9779 65.4248 30.035 64.9963 30.035C63.3963 30.035 62.3105 29.0922 62.3105 27.5208C62.3105 25.9779 63.4248 25.0065 64.9105 25.0065C65.3391 25.0065 65.682 25.035 66.1105 25.1779L66.0534 26.035C65.7105 25.8636 65.3963 25.8065 64.9963 25.8065C64.0248 25.8065 63.3677 26.4065 63.3677 27.4922C63.3677 28.5779 64.082 29.2065 65.0248 29.2065C65.3963 29.2065 65.7105 29.1779 66.1105 29.0065L66.1391 29.8636Z" fill="#067147"/>
<path d="M67.1094 25.035H70.0237V25.8636H68.0808V27.035H69.8522V27.835H68.0808V29.1493H70.0237V29.9779H67.1094V25.035Z" fill="#067147"/>
<path d="M72.9668 25.035H74.2239C75.3096 25.035 76.3097 25.3207 76.3097 26.5493C76.3097 27.7208 75.3668 28.0922 74.2239 28.0922H73.9668V29.9779H72.9668V25.035ZM73.9668 27.3207H74.1382C74.7954 27.3207 75.2811 27.1779 75.2811 26.5493C75.2811 25.9493 74.8811 25.7779 74.1382 25.7779H73.9668V27.3207Z" fill="#067147"/>
<path d="M81.5962 27.4922C81.5962 29.0636 80.6533 30.0636 79.1676 30.0636C77.7104 30.0636 76.7676 29.0922 76.7676 27.5208C76.7676 25.8922 77.6819 24.9779 79.2247 24.9779C80.6819 24.9493 81.5962 25.9208 81.5962 27.4922ZM77.8533 27.5208C77.8533 28.6065 78.3961 29.2922 79.1961 29.2922C79.9676 29.2922 80.539 28.5779 80.539 27.5208C80.539 26.4065 79.9962 25.7493 79.1676 25.7493C78.3962 25.7208 77.8533 26.435 77.8533 27.5208Z" fill="#067147"/>
<path d="M85.5951 26.6636C85.538 26.435 85.4523 26.0065 85.4237 25.7493C85.3951 26.0065 85.3094 26.435 85.2523 26.6636L84.5094 29.9493H83.2523L81.8809 25.0065H82.938L83.6523 27.9493C83.6809 28.1208 83.8523 28.835 83.8809 29.1493C83.938 28.8065 84.0809 28.0922 84.1094 27.9493L84.738 25.0065H86.0523L86.738 27.9493C86.7666 28.1208 86.9094 28.835 86.9666 29.1493C87.0237 28.835 87.1666 28.1208 87.1951 27.9493L87.9094 25.0065H88.9094L87.5951 29.9493H86.338L85.5951 26.6636Z" fill="#067147"/>
<path d="M89.7109 25.035H92.6252V25.8636H90.6824V27.035H92.4538V27.835H90.6824V29.1493H92.6252V29.9779H89.7109V25.035Z" fill="#067147"/>
<path d="M93.7109 25.035H95.1395C96.3681 25.035 97.1681 25.2922 97.1681 26.3207C97.1681 26.9779 96.7681 27.3493 96.1395 27.4922C96.4824 27.5779 96.6252 27.7779 96.7681 28.1493L97.5395 29.9493H96.4538L95.9109 28.5493C95.7109 28.035 95.6252 27.8922 94.9967 27.8922H94.7395V29.9493H93.7395V25.035H93.7109ZM94.7109 27.1493H94.9967C95.7681 27.1493 96.1395 26.9493 96.1395 26.4636C96.1395 25.9207 95.7109 25.8065 94.9967 25.8065H94.7109V27.1493Z" fill="#067147"/>
<path d="M103.282 25.8636H101.882V29.9779H100.882V25.8636H99.5391V25.035H103.282V25.8636Z" fill="#067147"/>
<path d="M108.51 27.4922C108.51 29.0636 107.567 30.0636 106.082 30.0636C104.624 30.0636 103.682 29.0922 103.682 27.5208C103.682 25.8922 104.596 24.9779 106.139 24.9779C107.567 24.9493 108.51 25.9208 108.51 27.4922ZM104.739 27.5208C104.739 28.6065 105.282 29.2922 106.082 29.2922C106.853 29.2922 107.424 28.5779 107.424 27.5208C107.424 26.4065 106.882 25.7493 106.053 25.7493C105.282 25.7208 104.739 26.435 104.739 27.5208Z" fill="#067147"/>
<path d="M113.938 27.4922C113.938 29.0636 112.995 30.0636 111.509 30.0636C110.052 30.0636 109.109 29.0922 109.109 27.5208C109.109 25.8922 110.024 24.9779 111.567 24.9779C113.024 24.9493 113.938 25.9208 113.938 27.4922ZM110.195 27.5208C110.195 28.6065 110.738 29.2922 111.538 29.2922C112.309 29.2922 112.881 28.5779 112.881 27.5208C112.881 26.4065 112.338 25.7493 111.509 25.7493C110.709 25.7208 110.195 26.435 110.195 27.5208Z" fill="#067147"/>
<path d="M114.824 25.035H115.824V29.1208H117.739V29.9779H114.824V25.035Z" fill="#067147"/>
<path d="M121.167 25.9208C120.767 25.7779 120.481 25.7208 120.167 25.7208C119.653 25.7208 119.31 25.9493 119.31 26.2922C119.31 26.6065 119.481 26.7779 120.196 27.035C121.11 27.3493 121.51 27.7779 121.51 28.5208C121.51 29.4636 120.796 30.0636 119.653 30.0636C119.167 30.0636 118.767 30.0065 118.338 29.8636L118.424 29.0065C118.853 29.2065 119.224 29.2922 119.596 29.2922C120.11 29.2922 120.481 29.0636 120.481 28.6922C120.481 28.3208 120.281 28.1208 119.538 27.835C118.653 27.5208 118.281 27.1208 118.281 26.435C118.281 25.5493 118.996 25.0065 120.053 25.0065C120.481 25.0065 120.853 25.0636 121.253 25.1779L121.167 25.9208Z" fill="#067147"/>
<path d="M81.9681 0.0350342C74.3109 0.0350342 71.0252 0.0350342 68.5109 9.34932C65.9109 19.035 69.1967 19.035 76.8824 19.035C84.5395 19.035 87.8252 19.035 90.4252 9.34932C92.9109 0.0350342 89.2538 0.0350342 81.9681 0.0350342ZM84.1967 9.43503C82.9395 14.0922 81.8538 14.0922 78.1967 14.0922C74.5395 14.0922 73.4538 14.0922 74.6824 9.43503C75.8824 4.94932 76.9681 4.94932 80.6252 4.94932C84.2824 4.94932 85.3967 4.94932 84.1967 9.43503Z" fill="#067147"/>
<path d="M36.453 18.635H29.1387L32.3672 6.60645H39.6815L36.453 18.635Z" fill="#067147"/>
<path d="M32.3672 6.60643L34.0529 0.406433H41.3386L32.3672 6.60643Z" fill="#067147"/>
<path d="M23.0816 0.406433L21.4245 6.60643H11.1959L12.8531 0.406433H5.56735L0.681641 18.635H7.96735L9.6245 12.435H19.8531L18.1959 18.635H25.5102L30.3959 0.406433H23.0816Z" fill="#067147"/>
<path d="M122.424 18.635H115.139L120.024 0.406433H127.31L122.424 18.635Z" fill="#067147"/>
<path d="M69.8238 0.406433H61.7952C61.0523 0.406433 60.5666 0.777862 60.0809 1.14929L53.2809 6.26358L54.8523 0.406433H47.5381L42.6523 18.6636H49.9666L51.8523 11.6636L57.6809 17.9207C58.0238 18.2921 58.3666 18.6636 59.0809 18.6636H67.1095L58.2238 9.12072L69.8238 0.406433Z" fill="#067147"/>
<path d="M117.453 0.406433H109.425C108.682 0.406433 108.196 0.777862 107.739 1.14929L100.939 6.26358L102.511 0.406433H95.1963L90.3105 18.6636H97.6248L99.5105 11.6636L105.339 17.9207C105.682 18.2921 106.025 18.6636 106.739 18.6636H114.768L105.882 9.12072L117.453 0.406433Z" fill="#067147"/>
</svg>
