<?xml version="1.0" encoding="utf-8"?><svg xmlns="http://www.w3.org/2000/svg" xmlns:xlink="http://www.w3.org/1999/xlink"><symbol viewBox="0 0 18 19" id="6-dots" xmlns="http://www.w3.org/2000/svg"><path d="M7.5.283h10v3.13h-10zm0 7.435h10v3.13h-10zm0 7.434h10v3.13h-10zm-7.5 0h3v3.13H0zm0-7.434h3v3.13H0zM0 .283h3v3.13H0z"/></symbol><symbol viewBox="0 0 18 19" id="9-dots" xmlns="http://www.w3.org/2000/svg"><path d="M0 .283h3v3.13H0zm7.5 0h3v3.13h-3zm7.5 0h3v3.13h-3zM0 7.718h3v3.13H0zm7.5 0h3v3.13h-3zm7.5 0h3v3.13h-3zM0 15.152h3v3.13H0zm7.5 0h3v3.13h-3zm7.5 0h3v3.13h-3z"/></symbol><symbol viewBox="0 0 8 14" id="angle-left" xmlns="http://www.w3.org/2000/svg"><path d="M6.938 13.112L.94 7.152 6.938 1.19"/></symbol><symbol viewBox="0 0 16 18" id="bars" xmlns="http://www.w3.org/2000/svg"><path d="M12.5.5h3v17h-3zm-6 5h3v12h-3zm-6 4h3v8h-3z"/></symbol><symbol viewBox="0 0 30 41" id="blank" xmlns="http://www.w3.org/2000/svg"><path d="M.21.117v40h19.783l9.28-9.28V.117H.211zm20.47 36v-4.594h4.593l-4.593 4.593zm6.25-6.937h-8.594v8.593H2.555V2.461H26.93V29.18z"/><path d="M4.898 4.805v22.03h19.688V4.806H4.898zm12.657 19.687H7.242V11.836h10.313v12.656zm4.687 0h-2.344V11.836h2.344v12.656zm0-15h-15V7.148h15v2.344zm-6.25 19.688H4.898v2.343h11.094V29.18z"/></symbol><symbol viewBox="0 0 31 18" id="car" xmlns="http://www.w3.org/2000/svg"><path d="M12.045 12.569c-1.384 0-2.503 1.167-2.503 2.606 0 1.435 1.119 2.603 2.503 2.603 1.384 0 2.503-1.168 2.503-2.603 0-1.439-1.119-2.606-2.503-2.606zm0 3.908c-.692 0-1.252-.586-1.252-1.302 0-.72.56-1.301 1.252-1.301s1.251.582 1.251 1.301c0 .716-.559 1.302-1.251 1.302zm18.877-5.834v2.78c0 .692-.54 1.254-1.208 1.254h-1.291c-.234-1.665-1.614-2.945-3.28-2.945-1.662 0-3.042 1.28-3.275 2.945H15.32c-.233-1.665-1.613-2.945-3.275-2.945s-3.042 1.28-3.276 2.945H7.153c-.667 0-1.207-.561-1.207-1.255v-2.779h24.976zm-5.776 1.926c-1.384 0-2.506 1.167-2.506 2.606 0 1.435 1.122 2.603 2.506 2.603 1.38 0 2.503-1.168 2.503-2.603 0-1.439-1.122-2.606-2.503-2.606zm0 3.908c-.692 0-1.25-.586-1.25-1.302 0-.72.558-1.301 1.25-1.301.689 0 1.252.582 1.252 1.301 0 .716-.563 1.302-1.252 1.302zm5.3-8.632l-4.744-4.88a1.582 1.582 0 00-1.13-.484h-2.395v-.934c0-.694-.54-1.255-1.207-1.255H7.152c-.664 0-1.207.561-1.207 1.255v.197l-4.899.587 8.68 1.176-8.792.908L9.695 5.71.934 6.5l5.011.983V9.95H30.92v-.916c0-.448-.173-.874-.475-1.188zm-2.068.163h-4.591a.193.193 0 01-.19-.197V4.125c0-.109.085-.197.19-.197h.873a.2.2 0 01.133.055l3.713 3.686c.125.121.04.339-.128.339z"/></symbol><symbol viewBox="0 0 42 31" id="card" xmlns="http://www.w3.org/2000/svg"><path d="M0 .059v30h41.483v-30H0zm39.052 2.43v2.435H2.431V2.489h36.621zm0 4.865V9.79H2.431V7.354h36.621zM2.431 27.628V12.22h36.621v15.408H2.431z"/><path d="M32.563 17.087a4.07 4.07 0 00-2.432.814 4.032 4.032 0 00-2.433-.814 4.058 4.058 0 00-4.053 4.053 4.058 4.058 0 004.053 4.053 4.03 4.03 0 002.433-.814 4.069 4.069 0 002.432.814 4.058 4.058 0 004.053-4.053 4.058 4.058 0 00-4.053-4.053zm-4.865 5.676a1.625 1.625 0 01-1.623-1.623c0-.895.728-1.623 1.623-1.623s1.623.728 1.623 1.623-.728 1.623-1.623 1.623zm4.865 0c-.378 0-.733-.129-1.016-.357a4.036 4.036 0 000-2.532 1.625 1.625 0 012.638 1.267c0 .894-.727 1.622-1.622 1.622zm-27.703 0h11.014v2.43H4.86v-2.43zm0-4.865h11.014v2.43H4.86v-2.43z"/></symbol><symbol viewBox="0 0 24 24" id="cart" xmlns="http://www.w3.org/2000/svg"><path d="M17.063 6.6h-1.688c0-1.989-1.51-3.6-3.375-3.6S8.625 4.611 8.625 6.6H6.937c-.928 0-1.687.81-1.687 1.8v10.8c0 .99.76 1.8 1.688 1.8h10.125c.928 0 1.687-.81 1.687-1.8V8.4c0-.99-.76-1.8-1.688-1.8zm-6.75 3.6c0 .495-.38.9-.844.9-.464 0-.844-.405-.844-.9V8.4h1.688v1.8zM12 4.8c.928 0 1.688.81 1.688 1.8h-3.376c0-.99.76-1.8 1.688-1.8zm3.375 5.4c0 .495-.38.9-.844.9-.464 0-.844-.405-.844-.9V8.4h1.688v1.8z"/></symbol><symbol viewBox="0 0 24 24" id="check" xmlns="http://www.w3.org/2000/svg"><path d="M8.998 16.2l-4.2-4.2-1.4 1.4 5.6 5.6 12-12-1.4-1.4-10.6 10.6z"/></symbol><symbol viewBox="0 0 14 8" id="chevron-down" xmlns="http://www.w3.org/2000/svg"><path d="M.731 1l6 6 6-6"/></symbol><symbol viewBox="0 0 11 18" id="chevron-left" xmlns="http://www.w3.org/2000/svg"><path d="M10 17L2 9l8-8"/></symbol><symbol viewBox="0 0 11 18" id="chevron-right" xmlns="http://www.w3.org/2000/svg"><path d="M1 1l8 8-8 8"/></symbol><symbol viewBox="0 0 41 40" id="coins" xmlns="http://www.w3.org/2000/svg"><g clip-path="url(#ama)"><path d="M24.378 7.597V4.483c0-5.978-23.636-5.978-23.636 0v18.214c0 2.35 3.679 3.815 8.104 4.336-1.618.726-2.65 1.706-2.65 2.95v5.463c0 2.99 5.946 4.554 11.819 4.554 5.873 0 11.818-1.565 11.818-4.554V32.7c5.562-.153 10.91-1.703 10.91-4.538V11.769c0-3.774-9.418-5.163-16.365-4.172zM12.56 1.817c6.47 0 10 1.802 10 2.728 0 .926-3.53 2.727-10 2.727-6.47 0-10-1.8-10-2.727 0-.926 3.53-2.727 10-2.727zm-10 5.258c2.206 1.328 6.114 2.016 10 2.016 3.887 0 7.794-.688 10-2.016v.903c-3.159.701-5.454 1.98-5.454 3.84v.538a28.844 28.844 0 01-4.546.371c-6.47 0-10-1.801-10-2.727V7.075zm16.364 18.182c.173.104.353.205.546.301a35.312 35.312 0 00-.546-.02v-.281zM2.56 12.53c2.206 1.327 6.114 2.015 10 2.015a30.81 30.81 0 004.546-.357v4.531a28.832 28.832 0 01-4.546.372c-6.47 0-10-1.802-10-2.728V12.53zm0 10.197v-3.834c2.206 1.328 6.114 2.016 10 2.016 1.574 0 3.104-.141 4.546-.357v4.531a28.832 28.832 0 01-4.546.371c-6.47 0-10-1.801-10-2.727zm25.455 12.727c0 .926-3.53 2.728-10 2.728-6.47 0-10-1.802-10-2.728V32.53c2.206 1.328 6.113 2.016 10 2.016 3.72 0 7.465-.629 9.713-1.847.095.004.192.004.287.007v2.75zm-10-2.727c-6.47 0-10-1.801-10-2.727 0-.926 3.53-2.727 10-2.727 6.47 0 10 1.8 10 2.727 0 .926-3.53 2.727-10 2.727zm20.909-4.545c0 .88-3.221 2.532-9.09 2.695V30c0-1.136-.86-2.054-2.247-2.758.445.018.89.03 1.337.03 3.887 0 7.794-.688 10-2.015v2.925zm0-5.455c0 .926-3.53 2.727-10 2.727-6.47 0-10-1.8-10-2.727v-2.925c2.206 1.328 6.113 2.016 10 2.016 3.887 0 7.794-.688 10-2.016v2.925zm0-5.454c0 .925-3.53 2.727-10 2.727-6.47 0-10-1.802-10-2.727v-2.925c2.206 1.327 6.113 2.015 10 2.015 3.887 0 7.794-.688 10-2.015v2.925zm-10-2.728c-6.47 0-10-1.801-10-2.727 0-.926 3.53-2.727 10-2.727 6.47 0 10 1.801 10 2.727 0 .926-3.53 2.727-10 2.727z"/></g><defs><clipPath id="ama"><path d="M.742 0h40v40h-40z"/></clipPath></defs></symbol><symbol viewBox="0 0 22 22" id="cross" xmlns="http://www.w3.org/2000/svg"><path d="M1 1l20 20M1 21L21 1"/></symbol><symbol viewBox="0 0 24 24" id="delete" xmlns="http://www.w3.org/2000/svg"><path d="M4.613 7.283h14.775m-10.67 0V5.642A1.642 1.642 0 0110.36 4h3.283a1.642 1.642 0 011.642 1.642v1.641m2.462 0v11.492a1.641 1.641 0 01-1.641 1.642H7.898a1.642 1.642 0 01-1.642-1.642V7.283h11.491zm-7.387 4.104v4.925m3.283-4.925v4.925"/></symbol><symbol viewBox="0 0 19 12" id="enter" xmlns="http://www.w3.org/2000/svg"><path d="M18 8.035v.5h.5v-.5H18zM.646 7.681a.5.5 0 000 .708l3.182 3.182a.5.5 0 00.708-.707l-2.829-2.83 2.829-2.828a.5.5 0 10-.708-.707L.646 7.68zM17.5.035v8h1v-8h-1zm.5 7.5H1v1h17v-1z"/></symbol><symbol viewBox="0 0 15 15" id="exit" xmlns="http://www.w3.org/2000/svg"><path d="M4 11l1-1-1-2H3h8V6H3h1l1-2-1-1-4 4 4 4z"/><path d="M6 0H4v3h2V2h7v11H6v-1H4v3h11V0H6z"/></symbol><symbol viewBox="0 0 30 25" id="filter-bar-icon" xmlns="http://www.w3.org/2000/svg"><path d="M0 3h30M0 12h30M0 22h30M4.5.5h5v5h-5zm17.5 9h5v5h-5zm-11 10h5v5h-5z"/></symbol><symbol viewBox="0 0 18 17" id="heart" xmlns="http://www.w3.org/2000/svg"><path d="M8.602 3.533L9 4.055l.398-.522a8.736 8.736 0 011.564-1.6c.702-.54 1.507-.933 2.35-.933C15.566 1 17.5 3.093 17.5 5.797c0 1.22-.405 2.377-1.133 3.268l-.031.038-.014.027-.005.005a2.596 2.596 0 01-.154.155l-.005.005-.074.071-.005.006L9 16.448 2.165 9.626l-.03-.051-.056-.052C1.08 8.607.5 7.26.5 5.797.5 3.093 2.435 1 4.687 1c.844 0 1.65.394 2.35.933a8.713 8.713 0 011.565 1.6z"/></symbol><symbol viewBox="0 0 22 22" id="house" xmlns="http://www.w3.org/2000/svg"><path d="M22 10.035c.398-.432.446-.615 0-1l-10-9c-.447-.385-1.563-.395-2 0l-10 9c-.437.395-.411 1.579 0 2h1c.41.421.593.36 1 0l1-1v10c0 .585.407 1 1 1h4c.592 0 1-.415 1-1v-7h5v7c-.009.584.407 1 1 1h4c.592 0 1-.415 1-1v-9s-.252-.218 0 0c.25.217.6.433 1 0l1-1z"/></symbol><symbol viewBox="0 0 24 24" id="icon-check-not-ok" xmlns="http://www.w3.org/2000/svg"><g clip-path="url(#aua)"><path d="M4.928 4.929c-3.903 3.903-3.903 10.239 0 14.142 3.904 3.903 10.24 3.903 14.143 0 3.903-3.903 3.903-10.239 0-14.142-3.904-3.903-10.24-3.903-14.143 0zm11.314 4.243L13.414 12l2.828 2.828-1.414 1.415L12 13.414l-2.83 2.829-1.414-1.415L10.585 12 7.757 9.172 9.17 7.757 12 10.586l2.828-2.829 1.414 1.415z"/></g><defs><clipPath id="aua"><path d="M0 0h24v24H0z"/></clipPath></defs></symbol><symbol viewBox="0 0 24 24" id="icon-check-ok" xmlns="http://www.w3.org/2000/svg"><path d="M12 2C6.48 2 2 6.48 2 12s4.48 10 10 10 10-4.48 10-10S17.52 2 12 2zm-2 15l-5-5 1.41-1.41L10 14.17l7.59-7.59L19 8l-9 9z"/></symbol><symbol viewBox="0 0 24 24" id="lines" xmlns="http://www.w3.org/2000/svg"><path fill-rule="evenodd" clip-rule="evenodd" d="M2 2h20v4H2V2zm0 8h20v4H2v-4zm20 8H2v4h20v-4z"/></symbol><symbol viewBox="0 0 24 24" id="location" xmlns="http://www.w3.org/2000/svg"><path d="M12 3C8.683 3 6 5.817 6 9.3c0 1.566.429 3.033 1.209 4.356.814 1.386 1.885 2.574 2.708 3.96.403.675.694 1.305 1.003 2.034.223.495.403 1.35 1.08 1.35s.857-.855 1.071-1.35c.318-.729.6-1.359 1.003-2.034.823-1.377 1.895-2.565 2.709-3.96A8.422 8.422 0 0018 9.3C18 5.817 15.317 3 12 3zm0 8.775c-1.183 0-2.143-1.008-2.143-2.25s.96-2.25 2.143-2.25c1.183 0 2.143 1.008 2.143 2.25s-.96 2.25-2.143 2.25z"/></symbol><symbol viewBox="0 0 24 24" id="minus" xmlns="http://www.w3.org/2000/svg"><path d="M5.689 11.232H3.768v1.921h16.464v-1.921H5.689z"/></symbol><symbol viewBox="0 0 23 24" id="plane" xmlns="http://www.w3.org/2000/svg"><path d="M23 12.035c0-.968-1.08-2-2-2h-6l-6-10H7l3 10H3l-1-3H0l1 5-1 4h2l1-3h7l-3 10h2l6-10h6c.92 0 2-.031 2-1z"/></symbol><symbol viewBox="0 0 24 24" id="plus" xmlns="http://www.w3.org/2000/svg"><path d="M12 1v22M1 12h22"/></symbol><symbol viewBox="0 0 24 24" id="share" xmlns="http://www.w3.org/2000/svg"><path d="M16.25 9.333a2.375 2.375 0 100-4.75 2.375 2.375 0 000 4.75zm-9.5 5.542a2.375 2.375 0 100-4.75 2.375 2.375 0 000 4.75zm9.5 5.542a2.375 2.375 0 100-4.75 2.375 2.375 0 000 4.75zM8.8 13.695l5.407 3.151M14.2 8.153l-5.4 3.151"/></symbol><symbol viewBox="0 0 24 24" id="square" xmlns="http://www.w3.org/2000/svg"><path fill-rule="evenodd" clip-rule="evenodd" d="M11 2H2v9h9V2zm11 0h-9v9h9V2zm-9 11h9v9h-9v-9zm-2 0H2v9h9v-9z"/></symbol><symbol viewBox="0 0 16 15" id="star" xmlns="http://www.w3.org/2000/svg"><path d="M8.321.574l1.964 4.515 5.028.42c.35.03.491.452.226.675l-3.814 3.21 1.143 4.775c.08.332-.29.593-.59.417l-4.322-2.532-4.32 2.532c-.301.175-.67-.086-.591-.417l1.143-4.775L.373 6.183c-.265-.223-.124-.645.226-.675l5.028-.42L7.591.575a.4.4 0 01.73 0z"/></symbol><symbol viewBox="0 0 24 24" id="tel" xmlns="http://www.w3.org/2000/svg"><path d="M7.218 10.924a13.465 13.465 0 005.858 5.858l1.955-1.955c.24-.24.596-.32.907-.214a10.1 10.1 0 003.173.507c.489 0 .889.4.889.889v3.102c0 .489-.4.889-.889.889C10.764 20 4 13.236 4 4.889 4 4.4 4.4 4 4.889 4H8c.489 0 .889.4.889.889 0 1.111.178 2.178.507 3.173a.892.892 0 01-.223.907l-1.955 1.955z"/></symbol><symbol viewBox="0 0 24 24" id="user" xmlns="http://www.w3.org/2000/svg"><path d="M12 4c-4.416 0-8 3.584-8 8s3.584 8 8 8 8-3.584 8-8-3.584-8-8-8zm0 2.4c1.328 0 2.4 1.072 2.4 2.4 0 1.328-1.072 2.4-2.4 2.4a2.397 2.397 0 01-2.4-2.4c0-1.328 1.072-2.4 2.4-2.4zm0 11.36a5.76 5.76 0 01-4.8-2.576c.024-1.592 3.2-2.464 4.8-2.464 1.592 0 4.776.872 4.8 2.464A5.76 5.76 0 0112 17.76z"/></symbol><symbol viewBox="0 0 20 20" id="zoom" xmlns="http://www.w3.org/2000/svg"><path d="M14.677 12.91a8.071 8.071 0 001.573-4.785C16.25 3.645 12.605 0 8.125 0S0 3.645 0 8.125s3.645 8.125 8.125 8.125c1.79 0 3.44-.589 4.785-1.573L18.233 20 20 18.232l-5.323-5.322zm-6.552.84A5.631 5.631 0 012.5 8.125 5.631 5.631 0 018.125 2.5a5.631 5.631 0 015.625 5.625 5.631 5.631 0 01-5.625 5.625z"/></symbol></svg>