<svg width="20" height="20" viewBox="0 0 20 20" fill="none" xmlns="http://www.w3.org/2000/svg">
<path d="M4.33634 17.1619L4.33573 17.1622C4.26991 17.198 4.20135 17.2412 4.12921 17.2921L4.03237 17.3731C4.17168 17.4857 4.31636 17.5949 4.4655 17.7025C4.46553 17.7026 4.46557 17.7026 4.4656 17.7026L4.46583 17.7028C4.52538 17.7458 4.58002 17.7852 4.63495 17.8232L4.35073 18.2345M4.33634 17.1619L9.14631 19.458C9.14613 19.458 9.14594 19.458 9.14576 19.458C8.89202 19.435 8.63999 19.4007 8.38901 19.3574C8.38848 19.3573 8.38796 19.3572 8.38744 19.3571L8.32429 19.3458C7.51868 19.2003 6.74873 18.9541 6.02767 18.6189L5.81691 19.0724M4.33634 17.1619L7.21162 15.5935L7.21204 15.5933M4.33634 17.1619L7.21204 15.5933M4.35073 18.2345L4.63446 17.8228C4.81857 17.9497 5.00794 18.0703 5.20195 18.185C5.24202 18.2087 5.28297 18.232 5.32784 18.2575C5.32812 18.2577 5.3284 18.2579 5.32869 18.258L5.32903 18.2582C5.54185 18.3794 5.75766 18.4927 5.9773 18.5963L5.99328 18.6034C6.0011 18.6069 6.01466 18.6129 6.02887 18.6195L5.81691 19.0724M4.35073 18.2345C4.54491 18.3684 4.74419 18.4953 4.94782 18.6156L3.64189 17.6996C3.81373 17.842 3.9917 17.9772 4.17291 18.108L4.17309 18.1081C4.23194 18.1506 4.29079 18.1931 4.35073 18.2345ZM5.81691 19.0724C6.57655 19.4255 7.38746 19.6847 8.23546 19.8378L5.08164 18.6927C5.30455 18.8196 5.53219 18.9393 5.76528 19.0491C5.77382 19.0531 5.78246 19.0569 5.7911 19.0607C5.79973 19.0645 5.80837 19.0684 5.81691 19.0724ZM7.21204 15.5933C7.63293 15.3631 7.89473 14.9223 7.89473 14.4425V13.3902V13.2223M7.21204 15.5933L7.89473 13.2223M7.89473 13.2223L7.79344 13.0885M7.89473 13.2223L7.79344 13.0885M7.79344 13.0885C7.58786 12.8168 7.02553 12.005 6.75447 10.9432L6.71386 10.7842M7.79344 13.0885L6.71386 10.7842M6.71386 10.7842L6.58685 10.6801M6.71386 10.7842L6.58685 10.6801M6.58685 10.6801C6.39371 10.5219 6.28273 10.2897 6.28273 10.0411V8.752C6.28273 8.55944 6.35381 8.3685 6.4845 8.21641L6.60528 8.07586M6.58685 10.6801L6.60528 8.07586M6.60528 8.07586V7.89054M6.60528 8.07586V7.89054M6.60528 7.89054V6.19345V6.16842M6.60528 7.89054V6.16842M6.60528 6.16842L6.60278 6.14351M6.60528 6.16842L6.60278 6.14351M6.60278 6.14351C6.5879 5.99532 6.53592 5.10907 7.16591 4.39078L7.16604 4.39063M6.60278 6.14351L7.16604 4.39063M7.16604 4.39063C7.70514 3.77547 8.62314 3.40909 10.0144 3.40909C11.4056 3.40909 12.3235 3.77547 12.8626 4.39091L12.8628 4.39114M7.16604 4.39063L12.8628 4.39114M12.8628 4.39114C13.4928 5.10943 13.4409 5.99495 13.4259 6.14406L13.4235 6.16888M12.8628 4.39114L13.4235 6.16888M13.4235 6.16888V6.19382M13.4235 6.16888V6.19382M13.4235 6.19382V7.89091V8.07647M13.4235 6.19382V8.07647M13.4235 8.07647L13.5445 8.2171M13.4235 8.07647L13.5445 8.2171M13.5445 8.2171C13.6751 8.36876 13.746 8.55946 13.746 8.75236V10.0415C13.746 10.3633 13.5626 10.6483 13.2732 10.7858L13.0838 10.8758M13.5445 8.2171L13.0838 10.8758M13.0838 10.8758L13.0153 11.074M13.0838 10.8758L13.0153 11.074M13.0153 11.074C12.7972 11.7046 12.4989 12.2882 12.1288 12.8111C12.0561 12.9133 11.9872 13.0042 11.9236 13.0828L11.8122 13.2204V13.3975V14.4727C11.8122 14.9709 12.0908 15.4218 12.5366 15.6447L12.5366 15.6447L15.6149 17.1836C15.6151 17.1837 15.6152 17.1838 15.6154 17.1839C15.6952 17.2239 15.7777 17.2737 15.8653 17.3336L15.955 17.4056M13.0153 11.074L15.955 17.4056M15.955 17.4056C15.8249 17.5101 15.6904 17.6114 15.5521 17.7109L15.5517 17.7112C15.5368 17.7219 15.5225 17.7323 15.5087 17.7423C15.4563 17.7802 15.4106 17.8133 15.3631 17.8456L15.362 17.8464C15.1864 17.9666 15.0039 18.0809 14.8158 18.1918C14.7657 18.2213 14.7153 18.2503 14.6642 18.2792C14.4594 18.3945 14.2511 18.5026 14.0388 18.6024L14.0374 18.603C14.022 18.6103 14.015 18.6134 14.0055 18.6176C13.9961 18.6218 13.9843 18.6269 13.9597 18.6383C13.2477 18.9649 12.4888 19.2056 11.6955 19.3479L11.6955 19.3478L11.6888 19.3491C11.6714 19.3525 11.6538 19.3556 11.6299 19.3598C11.3823 19.4022 11.1323 19.4356 10.8797 19.4587C10.8678 19.4597 10.8552 19.4606 10.8382 19.4618L10.8366 19.4619C10.8209 19.463 10.8012 19.4643 10.7808 19.4661M15.955 17.4056L9.24217 19.4654M10.7808 19.4661C10.7813 19.466 10.7818 19.466 10.7823 19.466L10.8224 19.9644L10.7795 19.4662C10.78 19.4662 10.7804 19.4661 10.7808 19.4661ZM10.7808 19.4661C10.5234 19.4868 10.2691 19.5 10.0144 19.5C9.75689 19.5 9.50018 19.4867 9.24217 19.4654M9.24217 19.4654C9.24178 19.4654 9.2414 19.4654 9.24101 19.4653L9.19982 19.9636L9.2436 19.4656C9.24312 19.4655 9.24265 19.4655 9.24217 19.4654Z" stroke="white"/>
<circle cx="10" cy="10" r="9.5" stroke="white"/>
</svg>
