<?xml version="1.0" encoding="utf-8"?><svg xmlns="http://www.w3.org/2000/svg" xmlns:xlink="http://www.w3.org/1999/xlink"><symbol viewBox="0 0 18 19" id="6-dots" xmlns="http://www.w3.org/2000/svg"><path d="M7.5.283h10v3.13h-10zm0 7.435h10v3.13h-10zm0 7.434h10v3.13h-10zm-7.5 0h3v3.13H0zm0-7.434h3v3.13H0zM0 .283h3v3.13H0z"/></symbol><symbol viewBox="0 0 18 19" id="9-dots" xmlns="http://www.w3.org/2000/svg"><path d="M0 .283h3v3.13H0zm7.5 0h3v3.13h-3zm7.5 0h3v3.13h-3zM0 7.718h3v3.13H0zm7.5 0h3v3.13h-3zm7.5 0h3v3.13h-3zM0 15.152h3v3.13H0zm7.5 0h3v3.13h-3zm7.5 0h3v3.13h-3z"/></symbol><symbol viewBox="0 0 8 14" id="angle-left" xmlns="http://www.w3.org/2000/svg"><path d="M6.938 13.112L.94 7.152 6.938 1.19"/></symbol><symbol viewBox="0 0 20 10" id="back" xmlns="http://www.w3.org/2000/svg"><path d="M19.984 5.516H2.22l3.14 3.14-.703.703L.296 5 4.657.64l.703.704-3.14 3.14h17.765v1.032z"/></symbol><symbol viewBox="0 0 17 18" id="bars" xmlns="http://www.w3.org/2000/svg"><path d="M12.944.5h3v17h-3zM6.722 5.167h3V17.5h-3zM.5 9.611h3V17.5h-3z"/></symbol><symbol viewBox="0 0 30 41" id="blank" xmlns="http://www.w3.org/2000/svg"><path d="M.21.117v40h19.783l9.28-9.28V.117H.211zm20.47 36v-4.594h4.593l-4.593 4.593zm6.25-6.937h-8.594v8.593H2.555V2.461H26.93V29.18z"/><path d="M4.898 4.805v22.03h19.688V4.806H4.898zm12.657 19.687H7.242V11.836h10.313v12.656zm4.687 0h-2.344V11.836h2.344v12.656zm0-15h-15V7.148h15v2.344zm-6.25 19.688H4.898v2.343h11.094V29.18z"/></symbol><symbol viewBox="0 0 23 22" id="bookmarks" xmlns="http://www.w3.org/2000/svg"><path d="M14.469 7.297l-2.953-5.86-.47-.937-.468.938-2.812 5.906-6.563 1.031-.984.14.75.704 4.781 4.547-1.031 6.515-.188.985.89-.47 5.813-3.14 5.907 3.047.89.469-.187-1.031-1.219-6.47 4.688-4.687.703-.703-.985-.14-6.562-.844zm-.375.937l5.765.797-4.125 4.125-.187.188.047.234 1.078 5.766-5.203-2.672-.235-.14-.234.14-5.156 2.765.937-5.765.047-.235-.187-.187-4.266-4.078 5.813-.89.234-.048.14-.234 2.485-5.203 2.672 5.156.094.281h.28z"/></symbol><symbol viewBox="0 0 31 18" id="car" xmlns="http://www.w3.org/2000/svg"><path d="M12.045 12.569c-1.384 0-2.503 1.167-2.503 2.606 0 1.435 1.119 2.603 2.503 2.603 1.384 0 2.503-1.168 2.503-2.603 0-1.439-1.119-2.606-2.503-2.606zm0 3.908c-.692 0-1.252-.586-1.252-1.302 0-.72.56-1.301 1.252-1.301s1.251.582 1.251 1.301c0 .716-.559 1.302-1.251 1.302zm18.877-5.834v2.78c0 .692-.54 1.254-1.208 1.254h-1.291c-.234-1.665-1.614-2.945-3.28-2.945-1.662 0-3.042 1.28-3.275 2.945H15.32c-.233-1.665-1.613-2.945-3.275-2.945s-3.042 1.28-3.276 2.945H7.153c-.667 0-1.207-.561-1.207-1.255v-2.779h24.976zm-5.776 1.926c-1.384 0-2.506 1.167-2.506 2.606 0 1.435 1.122 2.603 2.506 2.603 1.38 0 2.503-1.168 2.503-2.603 0-1.439-1.122-2.606-2.503-2.606zm0 3.908c-.692 0-1.25-.586-1.25-1.302 0-.72.558-1.301 1.25-1.301.689 0 1.252.582 1.252 1.301 0 .716-.563 1.302-1.252 1.302zm5.3-8.632l-4.744-4.88a1.582 1.582 0 00-1.13-.484h-2.395v-.934c0-.694-.54-1.255-1.207-1.255H7.152c-.664 0-1.207.561-1.207 1.255v.197l-4.899.587 8.68 1.176-8.792.908L9.695 5.71.934 6.5l5.011.983V9.95H30.92v-.916c0-.448-.173-.874-.475-1.188zm-2.068.163h-4.591a.193.193 0 01-.19-.197V4.125c0-.109.085-.197.19-.197h.873a.2.2 0 01.133.055l3.713 3.686c.125.121.04.339-.128.339z"/></symbol><symbol viewBox="0 0 42 31" id="card" xmlns="http://www.w3.org/2000/svg"><path d="M0 .059v30h41.483v-30H0zm39.052 2.43v2.435H2.431V2.489h36.621zm0 4.865V9.79H2.431V7.354h36.621zM2.431 27.628V12.22h36.621v15.408H2.431z"/><path d="M32.563 17.087a4.07 4.07 0 00-2.432.814 4.032 4.032 0 00-2.433-.814 4.058 4.058 0 00-4.053 4.053 4.058 4.058 0 004.053 4.053 4.03 4.03 0 002.433-.814 4.069 4.069 0 002.432.814 4.058 4.058 0 004.053-4.053 4.058 4.058 0 00-4.053-4.053zm-4.865 5.676a1.625 1.625 0 01-1.623-1.623c0-.895.728-1.623 1.623-1.623s1.623.728 1.623 1.623-.728 1.623-1.623 1.623zm4.865 0c-.378 0-.733-.129-1.016-.357a4.036 4.036 0 000-2.532 1.625 1.625 0 012.638 1.267c0 .894-.727 1.622-1.622 1.622zm-27.703 0h11.014v2.43H4.86v-2.43zm0-4.865h11.014v2.43H4.86v-2.43z"/></symbol><symbol viewBox="0 0 21 18" id="cart" xmlns="http://www.w3.org/2000/svg"><path d="M19.156.703l1.782.235-.235.984-1.922-.375c-.218 0-.375.047-.468.14a.359.359 0 01-.047.141c-.032.031-.047.063-.047.094l-3.375 11.765c.594.22.953.657 1.078 1.313a1.946 1.946 0 01-.235 1.5 1.867 1.867 0 01-1.218.89 2.076 2.076 0 01-1.5-.187c-.469-.281-.766-.703-.89-1.265H6.921c-.25.75-.734 1.234-1.453 1.453a1.925 1.925 0 01-1.032 0 1.971 1.971 0 01-.89-.516 2.212 2.212 0 01-.469-.938 1.946 1.946 0 01.235-1.5 1.867 1.867 0 011.218-.89 1.946 1.946 0 011.5.234c.469.281.766.688.89 1.219h5.016a1.87 1.87 0 01.704-1.031c.343-.281.718-.422 1.125-.422l.375-1.078H4.297a1.76 1.76 0 01-1.031-.328 1.736 1.736 0 01-.657-.844L1.063 5.53a1.519 1.519 0 01.234-1.312c.406-.563.875-.766 1.406-.61h14.063l.468-1.828c.157-.406.36-.687.61-.843.406-.25.843-.329 1.312-.235zM4.296 16.266a.954.954 0 00.704.28c.281 0 .5-.093.656-.28a.9.9 0 00.282-.657.9.9 0 00-.282-.656c-.187-.219-.406-.328-.656-.328a.9.9 0 00-.656.281.954.954 0 00-.282.703c0 .25.079.47.235.657zm0-4.735H14.47l2.062-6.984H2.703c-.25-.125-.437-.047-.562.234-.094.094-.141.266-.141.516l1.547 5.766c.156.312.406.468.75.468zM14 16.547c.281 0 .5-.094.656-.281a.899.899 0 00.281-.657.9.9 0 00-.28-.656c-.188-.219-.407-.328-.657-.328a.9.9 0 00-.656.281.954.954 0 00-.281.703c0 .157.03.313.093.47a.825.825 0 00.328.327c.157.094.329.14.516.14z"/></symbol><symbol viewBox="0 0 41 35" id="cart-regular" xmlns="http://www.w3.org/2000/svg"><path d="M37.313.406l3.562.469-.469 1.969-3.843-.75c-.438 0-.75.094-.938.281a.718.718 0 01-.094.281c-.062.063-.093.125-.093.188l-6.75 23.531c1.187.438 1.906 1.313 2.156 2.625a3.893 3.893 0 01-.469 3c-.563.938-1.375 1.531-2.438 1.781-1.062.25-2.062.125-3-.375-.937-.562-1.53-1.406-1.78-2.531H12.843c-.5 1.5-1.469 2.469-2.906 2.906a3.85 3.85 0 01-2.063 0 3.943 3.943 0 01-1.781-1.031c-.438-.5-.75-1.125-.938-1.875a3.893 3.893 0 01.469-3c.563-.938 1.375-1.531 2.438-1.781a3.893 3.893 0 013 .468c.937.563 1.53 1.375 1.78 2.438h10.032c.25-.875.719-1.563 1.406-2.063.688-.562 1.438-.843 2.25-.843l.75-2.157H7.594c-.75 0-1.438-.218-2.063-.656a3.473 3.473 0 01-1.312-1.687L1.125 10.062c-.25-.937-.094-1.812.469-2.624.812-1.125 1.75-1.532 2.812-1.22h28.125l.938-3.655c.312-.813.718-1.376 1.218-1.688a3.523 3.523 0 012.626-.469zM7.593 31.531c.376.375.845.563 1.407.563.563 0 1-.188 1.313-.563.374-.375.562-.812.562-1.312s-.188-.938-.563-1.313C9.938 28.47 9.5 28.25 9 28.25s-.938.188-1.313.563c-.375.375-.562.843-.562 1.406 0 .5.156.937.469 1.312zm0-9.468h20.345l4.125-13.97H4.405c-.5-.25-.875-.093-1.125.47-.187.187-.281.53-.281 1.03l3.094 11.532c.312.625.812.938 1.5.938zM27 32.093c.563 0 1-.187 1.313-.562.375-.375.562-.812.562-1.312s-.188-.938-.563-1.313c-.375-.437-.812-.656-1.312-.656s-.938.188-1.313.563c-.375.375-.562.843-.562 1.406 0 .312.063.625.188.937.125.25.343.469.656.657.312.187.656.28 1.031.28z"/></symbol><symbol viewBox="0 0 24 24" id="check" xmlns="http://www.w3.org/2000/svg"><path d="M8.998 16.2l-4.2-4.2-1.4 1.4 5.6 5.6 12-12-1.4-1.4-10.6 10.6z"/></symbol><symbol viewBox="0 0 14 8" id="chevron-down" xmlns="http://www.w3.org/2000/svg"><path d="M.731 1l6 6 6-6"/></symbol><symbol viewBox="0 0 11 18" id="chevron-left" xmlns="http://www.w3.org/2000/svg"><path d="M10 17L2 9l8-8"/></symbol><symbol viewBox="0 0 11 18" id="chevron-right" xmlns="http://www.w3.org/2000/svg"><path d="M1 1l8 8-8 8"/></symbol><symbol viewBox="0 0 40 40" id="clock" xmlns="http://www.w3.org/2000/svg"><path d="M5.844 5.938C9.78 2 14.5.03 20 .03S30.188 2 34.063 5.938C38 9.813 39.968 14.5 39.968 20c0 3.625-.907 6.969-2.719 10.031-1.75 3.063-4.156 5.5-7.219 7.313-3.062 1.75-6.406 2.625-10.031 2.625-3.625 0-6.969-.875-10.031-2.625a20.498 20.498 0 01-7.313-7.313C.906 26.97.031 23.625.031 20c0-5.5 1.938-10.188 5.813-14.063zm2.812 25.406C11.781 34.469 15.562 36.03 20 36.03s8.219-1.562 11.344-4.687S36.03 24.437 36.03 20c0-4.438-1.562-8.219-4.687-11.344S24.437 3.97 20 3.97c-4.438 0-8.219 1.562-11.344 4.687S3.97 15.562 3.97 20s1.562 8.219 4.687 11.344zM21.031 9.969v10.5l9 5.343-1.5 2.532-10.5-6.375v-12h3z"/></symbol><symbol viewBox="0 0 41 40" id="coins" xmlns="http://www.w3.org/2000/svg"><g clip-path="url(#aqa)"><path d="M24.378 7.597V4.483c0-5.978-23.636-5.978-23.636 0v18.214c0 2.35 3.679 3.815 8.104 4.336-1.618.726-2.65 1.706-2.65 2.95v5.463c0 2.99 5.946 4.554 11.819 4.554 5.873 0 11.818-1.565 11.818-4.554V32.7c5.562-.153 10.91-1.703 10.91-4.538V11.769c0-3.774-9.418-5.163-16.365-4.172zM12.56 1.817c6.47 0 10 1.802 10 2.728 0 .926-3.53 2.727-10 2.727-6.47 0-10-1.8-10-2.727 0-.926 3.53-2.727 10-2.727zm-10 5.258c2.206 1.328 6.114 2.016 10 2.016 3.887 0 7.794-.688 10-2.016v.903c-3.159.701-5.454 1.98-5.454 3.84v.538a28.844 28.844 0 01-4.546.371c-6.47 0-10-1.801-10-2.727V7.075zm16.364 18.182c.173.104.353.205.546.301a35.312 35.312 0 00-.546-.02v-.281zM2.56 12.53c2.206 1.327 6.114 2.015 10 2.015a30.81 30.81 0 004.546-.357v4.531a28.832 28.832 0 01-4.546.372c-6.47 0-10-1.802-10-2.728V12.53zm0 10.197v-3.834c2.206 1.328 6.114 2.016 10 2.016 1.574 0 3.104-.141 4.546-.357v4.531a28.832 28.832 0 01-4.546.371c-6.47 0-10-1.801-10-2.727zm25.455 12.727c0 .926-3.53 2.728-10 2.728-6.47 0-10-1.802-10-2.728V32.53c2.206 1.328 6.113 2.016 10 2.016 3.72 0 7.465-.629 9.713-1.847.095.004.192.004.287.007v2.75zm-10-2.727c-6.47 0-10-1.801-10-2.727 0-.926 3.53-2.727 10-2.727 6.47 0 10 1.8 10 2.727 0 .926-3.53 2.727-10 2.727zm20.909-4.545c0 .88-3.221 2.532-9.09 2.695V30c0-1.136-.86-2.054-2.247-2.758.445.018.89.03 1.337.03 3.887 0 7.794-.688 10-2.015v2.925zm0-5.455c0 .926-3.53 2.727-10 2.727-6.47 0-10-1.8-10-2.727v-2.925c2.206 1.328 6.113 2.016 10 2.016 3.887 0 7.794-.688 10-2.016v2.925zm0-5.454c0 .925-3.53 2.727-10 2.727-6.47 0-10-1.802-10-2.727v-2.925c2.206 1.327 6.113 2.015 10 2.015 3.887 0 7.794-.688 10-2.015v2.925zm-10-2.728c-6.47 0-10-1.801-10-2.727 0-.926 3.53-2.727 10-2.727 6.47 0 10 1.801 10 2.727 0 .926-3.53 2.727-10 2.727z"/></g><defs><clipPath id="aqa"><path d="M.742 0h40v40h-40z"/></clipPath></defs></symbol><symbol viewBox="0 0 22 22" id="cross" xmlns="http://www.w3.org/2000/svg"><path d="M1 1l20 20M1 21L21 1"/></symbol><symbol viewBox="0 0 18 18" id="delete" xmlns="http://www.w3.org/2000/svg"><path d="M.984 17.016l.375.328L17.297 1.359l-.328-.375-.375-.328L.656 16.641l.328.375zm16.032 0l.328-.375L1.359.656.984.984l-.328.375 15.985 15.985.375-.328z"/></symbol><symbol viewBox="0 0 25 34" id="doc" xmlns="http://www.w3.org/2000/svg"><path d="M5.64 13.64v.86H16.5v-1.64H5.64v.78zm0-4.14v.86H16.5V8.64H5.64v.86zm0 8.36v.78H16.5V17H5.64v.86zm0 4.14v.86h7.5v-1.72h-7.5V22zM22.36 2h-20v30h20.078l-.079-5.234V2zM24 .36v26.406l.078 6.875H.641V.359H24z"/></symbol><symbol viewBox="0 0 19 12" id="enter" xmlns="http://www.w3.org/2000/svg"><path d="M18 8.035v.5h.5v-.5H18zM.646 7.681a.5.5 0 000 .708l3.182 3.182a.5.5 0 00.708-.707l-2.829-2.83 2.829-2.828a.5.5 0 10-.708-.707L.646 7.68zM17.5.035v8h1v-8h-1zm.5 7.5H1v1h17v-1z"/></symbol><symbol viewBox="0 0 15 15" id="exit" xmlns="http://www.w3.org/2000/svg"><path d="M4 11l1-1-1-2H3h8V6H3h1l1-2-1-1-4 4 4 4z"/><path d="M6 0H4v3h2V2h7v11H6v-1H4v3h11V0H6z"/></symbol><symbol viewBox="0 0 16 16" id="filter" xmlns="http://www.w3.org/2000/svg"><path d="M4.5 6.281c.292.396.438.844.438 1.344 0 .48-.146.917-.438 1.313a2.22 2.22 0 01-1.063.843v4.688a.68.68 0 01-.25.531.68.68 0 01-.53.25.68.68 0 01-.532-.25.723.723 0 01-.219-.531V9.78a2.3 2.3 0 01-.781-.469 2.533 2.533 0 01-.563-.75 2.508 2.508 0 01-.187-.937c0-.333.063-.646.188-.938.145-.291.333-.541.562-.75a2.3 2.3 0 01.781-.468V.75c0-.208.073-.385.219-.531A.723.723 0 012.656 0a.72.72 0 01.531.219.68.68 0 01.25.531v4.719c.438.146.792.416 1.063.812zM3.187 8.156a.68.68 0 00.25-.531.68.68 0 00-.25-.531.68.68 0 00-.53-.25.68.68 0 00-.532.25.723.723 0 00-.219.531c0 .208.073.385.219.531a.723.723 0 00.531.219.723.723 0 00.531-.219zm7.094 4.781a2.16 2.16 0 01-.687 1.626A2.121 2.121 0 018 15.25c-.625 0-1.167-.23-1.625-.688-.438-.437-.656-.979-.656-1.624 0-.313.062-.615.187-.907a2.14 2.14 0 01.532-.75c.229-.208.5-.364.812-.469V.75c0-.208.073-.385.219-.531A.723.723 0 018 0c.208 0 .385.073.531.219A.723.723 0 018.75.75v10.031c.458.167.823.448 1.094.844.291.396.437.833.437 1.313zm-1.75.563a.723.723 0 00.219-.531.762.762 0 00-.219-.563.723.723 0 00-.531-.219.723.723 0 00-.531.22.762.762 0 00-.219.562c0 .208.073.385.219.531a.723.723 0 00.531.219.723.723 0 00.531-.219zm7.094-11.219c0 .5-.146.948-.438 1.344a2.205 2.205 0 01-1.093.813v10.031a.723.723 0 01-.219.531.68.68 0 01-.531.25.777.777 0 01-.563-.25.723.723 0 01-.219-.531V4.563c0-.042.01-.084.032-.125a2.194 2.194 0 01-1.125-.813 2.323 2.323 0 01-.406-1.344c0-.625.218-1.156.656-1.594A2.12 2.12 0 0113.313 0c.645 0 1.187.23 1.624.688.459.437.688.968.688 1.593zm-1.75.563a.832.832 0 00.219-.563.723.723 0 00-.219-.531.723.723 0 00-.531-.219.896.896 0 00-.406.094.904.904 0 00-.282.281.833.833 0 00-.094.375c0 .209.073.396.22.563a.832.832 0 00.562.219.723.723 0 00.531-.22z"/></symbol><symbol viewBox="0 0 30 25" id="filter-bar-icon" xmlns="http://www.w3.org/2000/svg"><path d="M0 3h30M0 12h30M0 22h30M4.5.5h5v5h-5zm17.5 9h5v5h-5zm-11 10h5v5h-5z"/></symbol><symbol viewBox="0 0 18 17" id="heart" xmlns="http://www.w3.org/2000/svg"><path d="M8.602 3.533L9 4.055l.398-.522a8.736 8.736 0 011.564-1.6c.702-.54 1.507-.933 2.35-.933C15.566 1 17.5 3.093 17.5 5.797c0 1.22-.405 2.377-1.133 3.268l-.031.038-.014.027-.005.005a2.596 2.596 0 01-.154.155l-.005.005-.074.071-.005.006L9 16.448 2.165 9.626l-.03-.051-.056-.052C1.08 8.607.5 7.26.5 5.797.5 3.093 2.435 1 4.687 1c.844 0 1.65.394 2.35.933a8.713 8.713 0 011.565 1.6z"/></symbol><symbol viewBox="0 0 22 22" id="house" xmlns="http://www.w3.org/2000/svg"><path d="M22 10.035c.398-.432.446-.615 0-1l-10-9c-.447-.385-1.563-.395-2 0l-10 9c-.437.395-.411 1.579 0 2h1c.41.421.593.36 1 0l1-1v10c0 .585.407 1 1 1h4c.592 0 1-.415 1-1v-7h5v7c-.009.584.407 1 1 1h4c.592 0 1-.415 1-1v-9s-.252-.218 0 0c.25.217.6.433 1 0l1-1z"/></symbol><symbol viewBox="0 0 24 24" id="icon-check-not-ok" xmlns="http://www.w3.org/2000/svg"><g clip-path="url(#baa)"><path d="M4.928 4.929c-3.903 3.903-3.903 10.239 0 14.142 3.904 3.903 10.24 3.903 14.143 0 3.903-3.903 3.903-10.239 0-14.142-3.904-3.903-10.24-3.903-14.143 0zm11.314 4.243L13.414 12l2.828 2.828-1.414 1.415L12 13.414l-2.83 2.829-1.414-1.415L10.585 12 7.757 9.172 9.17 7.757 12 10.586l2.828-2.829 1.414 1.415z"/></g><defs><clipPath id="baa"><path d="M0 0h24v24H0z"/></clipPath></defs></symbol><symbol viewBox="0 0 24 24" id="icon-check-ok" xmlns="http://www.w3.org/2000/svg"><path d="M12 2C6.48 2 2 6.48 2 12s4.48 10 10 10 10-4.48 10-10S17.52 2 12 2zm-2 15l-5-5 1.41-1.41L10 14.17l7.59-7.59L19 8l-9 9z"/></symbol><symbol viewBox="0 0 22 19" id="lines" xmlns="http://www.w3.org/2000/svg"><path d="M0 0h3v3H0zm0 8h3v3H0zm0 8h3v3H0zM6 0h16v3H6zm0 8h16v3H6zm0 8h16v3H6z"/></symbol><symbol viewBox="0 0 12 18" id="location" xmlns="http://www.w3.org/2000/svg"><path d="M6.469 1.117a4.354 4.354 0 012.734 1.29c.755.728 1.198 1.588 1.328 2.577.13.99-.026 2.006-.469 3.047L6 15.453l-3.984-7.46a4.028 4.028 0 01-.586-2.227c.052-.808.234-1.537.547-2.188.312-.65.794-1.198 1.445-1.64a4.404 4.404 0 012.187-.82h.86zm-.82 15.43L6 17.21l.352-.664 4.414-8.125c.494-.86.716-1.745.664-2.656a6.95 6.95 0 00-.625-2.579c-.365-.78-.938-1.432-1.72-1.953A4.95 4.95 0 006.548.297H5.53a5.171 5.171 0 00-2.578.937 5.145 5.145 0 00-1.719 1.954A6.95 6.95 0 00.61 5.765c-.026.911.209 1.796.704 2.656l4.335 8.125zM4.828 6.43a1.543 1.543 0 01-.47-1.133c0-.443.157-.82.47-1.133.338-.338.728-.508 1.171-.508.443 0 .82.17 1.133.508.338.313.508.69.508 1.133 0 .443-.17.82-.508 1.133-.313.312-.69.468-1.133.468-.443 0-.833-.156-1.172-.468zm-.587-2.852a2.338 2.338 0 00-.703 1.719c0 .677.234 1.263.703 1.758A2.47 2.47 0 006 7.758c.677 0 1.25-.235 1.719-.703.495-.495.742-1.081.742-1.758s-.247-1.25-.742-1.719A2.277 2.277 0 006 2.836c-.677 0-1.263.247-1.758.742z"/></symbol><symbol viewBox="0 0 24 24" id="minus" xmlns="http://www.w3.org/2000/svg"><path d="M5.689 11.232H3.768v1.921h16.464v-1.921H5.689z"/></symbol><symbol viewBox="0 0 23 24" id="plane" xmlns="http://www.w3.org/2000/svg"><path d="M23 12.035c0-.968-1.08-2-2-2h-6l-6-10H7l3 10H3l-1-3H0l1 5-1 4h2l1-3h7l-3 10h2l6-10h6c.92 0 2-.031 2-1z"/></symbol><symbol viewBox="0 0 24 24" id="plus" xmlns="http://www.w3.org/2000/svg"><path d="M12 1v22M1 12h22"/></symbol><symbol viewBox="0 0 40 40" id="profile" xmlns="http://www.w3.org/2000/svg"><path d="M15.969 23c-1-1.063-1.5-2.313-1.5-3.75 0-1.5.5-2.75 1.5-3.75 1.062-1.063 2.312-1.594 3.75-1.594 1.5 0 2.75.531 3.75 1.594 1.062 1 1.593 2.25 1.593 3.75 0 1.438-.53 2.688-1.593 3.75-1 1-2.25 1.5-3.75 1.5-1.438 0-2.688-.5-3.75-1.5zm-1.313-8.906C13.22 15.469 12.5 17.188 12.5 19.25c0 2 .719 3.719 2.156 5.156 1.438 1.375 3.156 2.063 5.156 2.063 2 0 3.72-.688 5.157-2.063 1.437-1.437 2.156-3.156 2.156-5.156 0-2.063-.719-3.781-2.156-5.156-1.438-1.438-3.157-2.156-5.157-2.156s-3.718.718-5.156 2.156zm15 21.937h1.032c0-3.375-1.063-6.031-3.188-7.968-2.063-2-4.656-3-7.781-3-3.063 0-5.625 1-7.688 3C9.97 30 8.937 32.656 8.937 36.03h1.969c0-2.812.813-5 2.438-6.562 1.687-1.563 3.844-2.344 6.469-2.344 1.25 0 2.406.188 3.468.563 1.125.375 2.063.937 2.813 1.687.812.75 1.437 1.688 1.875 2.813.5 1.124.75 2.406.75 3.843h.937zm3-28.687C29.156 3.78 24.938 2 20 2c-4.938 0-9.188 1.781-12.75 5.344C3.75 10.844 2 15.062 2 20c0 4.938 1.75 9.188 5.25 12.75C10.813 36.25 15.063 38 20 38c4.938 0 9.156-1.75 12.656-5.25C36.22 29.187 38 24.937 38 20c0-4.938-1.781-9.156-5.344-12.656zM5.844 5.937C9.78 2 14.5.032 20 .032S30.188 2 34.063 5.938C38 9.813 39.968 14.5 39.968 20S38 30.219 34.062 34.156C30.189 38.031 25.5 39.97 20 39.97S9.781 38.03 5.844 34.156C1.969 30.22.03 25.5.03 20S1.97 9.812 5.844 5.937z"/></symbol><symbol viewBox="0 0 14 14" id="reset" xmlns="http://www.w3.org/2000/svg"><path d="M1 7c0 1.646.583 3.063 1.75 4.25C3.938 12.417 5.354 13 7 13s3.052-.583 4.219-1.75C12.406 10.062 13 8.646 13 7s-.594-3.052-1.781-4.219C10.052 1.594 8.646 1 7 1c-1.833 0-3.354.781-4.563 2.344H5V4H1.344V.344H2v2.469C3.292 1.167 4.958.342 7 .342c1.833 0 3.396.657 4.688 1.97C13 3.603 13.655 5.167 13.655 7c0 1.833-.656 3.406-1.969 4.719-1.29 1.291-2.852 1.937-4.686 1.937-1.833 0-3.406-.646-4.719-1.937C.99 10.406.344 8.833.344 7H1z"/></symbol><symbol viewBox="0 0 36 37" id="share" xmlns="http://www.w3.org/2000/svg"><path d="M30.023 6.477C26.695 3.102 22.688 1.414 18 1.414S9.281 3.102 5.906 6.477C2.578 9.805.914 13.812.914 18.5s1.664 8.719 4.992 12.094c3.375 3.328 7.407 4.992 12.094 4.992 4.688 0 8.695-1.664 12.023-4.992 3.375-3.375 5.063-7.407 5.063-12.094 0-4.688-1.688-8.695-5.063-12.023zm-24.75-.704C8.79 2.258 13.031.5 18 .5s9.21 1.758 12.727 5.273C34.242 9.29 36 13.531 36 18.5s-1.758 9.21-5.273 12.727C27.21 34.742 22.969 36.5 18 36.5s-9.21-1.758-12.727-5.273C1.758 27.71 0 23.469 0 18.5S1.758 9.29 5.273 5.773zm6.75 11.04a2.301 2.301 0 00-1.687-.704c-.656 0-1.219.235-1.688.703a2.301 2.301 0 00-.703 1.688c0 .656.235 1.219.703 1.688a2.302 2.302 0 001.688.703c.656 0 1.219-.235 1.687-.703a2.301 2.301 0 00.704-1.688c0-.656-.235-1.219-.704-1.688zm-4.007-.633c.656-.657 1.43-.985 2.32-.985.89 0 1.664.328 2.32.985.656.656.985 1.43.985 2.32 0 .89-.329 1.664-.985 2.32-.656.657-1.43.985-2.32.985-.89 0-1.664-.328-2.32-.985-.657-.656-.985-1.43-.985-2.32 0-.89.328-1.664.985-2.32zm16.172-5.485c-.422-.468-.961-.703-1.618-.703-.656 0-1.218.235-1.687.703-.469.422-.703.985-.703 1.688 0 .656.234 1.219.703 1.687.469.422 1.031.633 1.687.633.657 0 1.196-.21 1.617-.633a2.301 2.301 0 00.704-1.687c0-.703-.235-1.266-.703-1.688zM22.57 9.008c.938 0 1.711.328 2.32.984.657.656.985 1.43.985 2.32 0 .938-.328 1.735-.984 2.391a3.258 3.258 0 01-2.391.985c-.89 0-1.664-.329-2.32-.985a3.298 3.298 0 01-.914-2.32c0-.938.304-1.735.914-2.39.656-.657 1.453-.985 2.39-.985zM24.187 23c-.421-.469-.96-.703-1.617-.703a2.3 2.3 0 00-1.687.703c-.469.422-.703.984-.703 1.688a2.3 2.3 0 00.703 1.687c.469.422 1.031.633 1.687.633.657 0 1.196-.211 1.617-.633a2.302 2.302 0 00.704-1.688c0-.703-.235-1.265-.703-1.687zm-1.617-1.688c.61 0 1.172.165 1.688.493.515.28.914.68 1.195 1.195.281.516.422 1.078.422 1.688 0 .89-.328 1.664-.984 2.32-.657.656-1.453.984-2.391.984-.89 0-1.664-.328-2.32-.984a3.298 3.298 0 01-.914-2.32c0-.938.304-1.735.914-2.391.656-.656 1.453-.985 2.39-.985zm-2.742 2.32l.211-.421-7.242-3.516-.211.422-.211.422 7.242 3.516.211-.422zm0 0l.211-.421-7.242-3.516-.211.422-.211.422 7.242 3.516.211-.422zm0 0l-7.242-3.515 7.242 3.516z"/></symbol><symbol viewBox="0 0 19 19" id="square" xmlns="http://www.w3.org/2000/svg"><path d="M0 0h3v3H0zm8 0h3v3H8zm8 0h3v3h-3zM0 8h3v3H0zm8 0h3v3H8zm8 0h3v3h-3zM0 16h3v3H0zm8 0h3v3H8zm8 0h3v3h-3z"/></symbol><symbol viewBox="0 0 16 15" id="star" xmlns="http://www.w3.org/2000/svg"><path d="M8.321.574l1.964 4.515 5.028.42c.35.03.491.452.226.675l-3.814 3.21 1.143 4.775c.08.332-.29.593-.59.417l-4.322-2.532-4.32 2.532c-.301.175-.67-.086-.591-.417l1.143-4.775L.373 6.183c-.265-.223-.124-.645.226-.675l5.028-.42L7.591.575a.4.4 0 01.73 0z"/></symbol><symbol viewBox="0 0 12 32" id="swiper-left" xmlns="http://www.w3.org/2000/svg"><path d="M11.531 1.094l.469.375L1.031 16.094 12 30.625l-.469.469L0 16.094l11.531-15zm0-.188l.469.469L1.031 15.906 12 30.437l-.469.47L0 15.906l11.531-15z"/></symbol><symbol viewBox="0 0 12 32" id="swiper-right" xmlns="http://www.w3.org/2000/svg"><path d="M0 1.469l.469-.375 11.531 15-11.531 15L0 30.625l10.969-14.531L0 1.469zm0-.094L.469.906l11.531 15-11.531 15L0 30.438l10.969-14.532L0 1.375z"/></symbol><symbol viewBox="0 0 24 24" id="tel" xmlns="http://www.w3.org/2000/svg"><path d="M7.218 10.924a13.465 13.465 0 005.858 5.858l1.955-1.955c.24-.24.596-.32.907-.214a10.1 10.1 0 003.173.507c.489 0 .889.4.889.889v3.102c0 .489-.4.889-.889.889C10.764 20 4 13.236 4 4.889 4 4.4 4.4 4 4.889 4H8c.489 0 .889.4.889.889 0 1.111.178 2.178.507 3.173a.892.892 0 01-.223.907l-1.955 1.955z"/></symbol><symbol viewBox="0 0 20 20" id="user" xmlns="http://www.w3.org/2000/svg"><path d="M7.984 11.5a2.646 2.646 0 01-.75-1.875c0-.75.25-1.375.75-1.875.532-.531 1.157-.797 1.875-.797.75 0 1.375.266 1.875.797.532.5.797 1.125.797 1.875 0 .719-.265 1.344-.797 1.875-.5.5-1.125.75-1.875.75-.718 0-1.343-.25-1.875-.75zm-.656-4.453C6.61 7.734 6.25 8.594 6.25 9.625c0 1 .36 1.86 1.078 2.578a3.6 3.6 0 002.578 1.031c1 0 1.86-.343 2.578-1.03.72-.72 1.079-1.579 1.079-2.579 0-1.031-.36-1.89-1.079-2.578-.718-.719-1.578-1.078-2.578-1.078-1 0-1.86.36-2.578 1.078zm7.5 10.969h.516c0-1.688-.531-3.016-1.594-3.985-1.031-1-2.328-1.5-3.89-1.5-1.532 0-2.813.5-3.844 1.5-1.032.969-1.547 2.297-1.547 3.985h.984c0-1.407.406-2.5 1.219-3.282.844-.78 1.922-1.171 3.234-1.171.625 0 1.203.093 1.735.28a3.53 3.53 0 011.406.845c.406.374.719.843.937 1.406.25.562.375 1.203.375 1.922h.47zm1.5-14.344C14.578 1.89 12.468 1 10 1c-2.469 0-4.594.89-6.375 2.672C1.875 5.422 1 7.532 1 10c0 2.469.875 4.594 2.625 6.375C5.406 18.125 7.531 19 10 19s4.578-.875 6.328-2.625C18.11 14.594 19 12.469 19 10s-.89-4.578-2.672-6.328zM2.922 2.969C4.89 1 7.25.016 10 .016s5.094.984 7.031 2.953C19 4.906 19.984 7.25 19.984 10s-.984 5.11-2.953 7.078c-1.937 1.938-4.281 2.906-7.031 2.906s-5.11-.968-7.078-2.906C.984 15.11.016 12.75.016 10s.968-5.094 2.906-7.031z"/></symbol><symbol viewBox="0 0 548.358 548.358" id="vk" xmlns="http://www.w3.org/2000/svg"><path d="M545.451 400.298c-.664-1.431-1.283-2.618-1.858-3.569-9.514-17.135-27.695-38.167-54.532-63.102l-.567-.571-.284-.28-.287-.287h-.288c-12.18-11.611-19.893-19.418-23.123-23.415-5.91-7.614-7.234-15.321-4.004-23.13 2.282-5.9 10.854-18.36 25.696-37.397 7.807-10.089 13.99-18.175 18.556-24.267 32.931-43.78 47.208-71.756 42.828-83.939l-1.701-2.847c-1.143-1.714-4.093-3.282-8.846-4.712-4.764-1.427-10.853-1.663-18.278-.712l-82.224.568c-1.332-.472-3.234-.428-5.712.144l-3.713.859-1.431.715-1.136.859c-.952.568-1.999 1.567-3.142 2.995-1.137 1.423-2.088 3.093-2.848 4.996-8.952 23.031-19.13 44.444-30.553 64.238-7.043 11.803-13.511 22.032-19.418 30.693-5.899 8.658-10.848 15.037-14.842 19.126-4 4.093-7.61 7.372-10.852 9.849-3.237 2.478-5.708 3.525-7.419 3.142-1.715-.383-3.33-.763-4.859-1.143-2.663-1.714-4.805-4.045-6.42-6.995-1.622-2.95-2.714-6.663-3.285-11.136-.568-4.476-.904-8.326-1-11.563-.089-3.233-.048-7.806.145-13.706.198-5.903.287-9.897.287-11.991 0-7.234.141-15.085.424-23.555.288-8.47.521-15.181.716-20.125.194-4.949.284-10.185.284-15.705s-.336-9.849-1-12.991a44.442 44.442 0 00-2.99-9.137c-1.335-2.95-3.289-5.232-5.853-6.852-2.569-1.618-5.763-2.902-9.564-3.856-10.089-2.283-22.936-3.518-38.547-3.71-35.401-.38-58.148 1.906-68.236 6.855-3.997 2.091-7.614 4.948-10.848 8.562-3.427 4.189-3.905 6.475-1.431 6.851 11.422 1.711 19.508 5.804 24.267 12.275l1.715 3.429c1.334 2.474 2.666 6.854 3.999 13.134 1.331 6.28 2.19 13.227 2.568 20.837.95 13.897.95 25.793 0 35.689-.953 9.9-1.853 17.607-2.712 23.127-.859 5.52-2.143 9.993-3.855 13.418-1.715 3.426-2.856 5.52-3.428 6.28-.571.76-1.047 1.239-1.425 1.427a21.387 21.387 0 01-7.71 1.431c-2.667 0-5.901-1.334-9.707-4-3.805-2.666-7.754-6.328-11.847-10.992-4.093-4.665-8.709-11.184-13.85-19.558-5.137-8.374-10.467-18.271-15.987-29.691l-4.567-8.282c-2.855-5.328-6.755-13.086-11.704-23.267-4.952-10.185-9.329-20.037-13.134-29.554-1.521-3.997-3.806-7.04-6.851-9.134l-1.429-.859c-.95-.76-2.475-1.567-4.567-2.427a30.301 30.301 0 00-6.567-1.854l-78.229.568c-7.994 0-13.418 1.811-16.274 5.428l-1.143 1.711c-.571.953-.859 2.475-.859 4.57 0 2.094.571 4.664 1.714 7.707 11.42 26.84 23.839 52.725 37.257 77.659 13.418 24.934 25.078 45.019 34.973 60.237 9.897 15.229 19.985 29.602 30.264 43.112 10.279 13.515 17.083 22.176 20.412 25.981 3.333 3.812 5.951 6.662 7.854 8.565l7.139 6.851c4.568 4.569 11.276 10.041 20.127 16.416 8.853 6.379 18.654 12.659 29.408 18.85 10.756 6.181 23.269 11.225 37.546 15.126 14.275 3.905 28.169 5.472 41.684 4.716h32.834c6.659-.575 11.704-2.669 15.133-6.283l1.136-1.431c.764-1.136 1.479-2.901 2.139-5.276.668-2.379 1-5 1-7.851-.195-8.183.428-15.558 1.852-22.124 1.423-6.564 3.045-11.513 4.859-14.846 1.813-3.33 3.859-6.14 6.136-8.418 2.282-2.283 3.908-3.666 4.862-4.142.948-.479 1.705-.804 2.276-.999 4.568-1.522 9.944-.048 16.136 4.429 6.187 4.473 11.99 9.996 17.418 16.56 5.425 6.57 11.943 13.941 19.555 22.124 7.617 8.186 14.277 14.271 19.985 18.274l5.708 3.426c3.812 2.286 8.761 4.38 14.853 6.283 6.081 1.902 11.409 2.378 15.984 1.427l73.087-1.14c7.229 0 12.854-1.197 16.844-3.572 3.998-2.379 6.373-5 7.139-7.851.764-2.854.805-6.092.145-9.712-.677-3.611-1.344-6.136-2.008-7.563z"/></symbol><symbol viewBox="0 0 512 512" id="youtube" xmlns="http://www.w3.org/2000/svg"><path d="M260.4 449c-57.1-1.8-111.4-3.2-165.7-5.3-11.7-.5-23.6-2.3-35-5-21.4-5-36.2-17.9-43.8-39-6.1-17-8.3-34.5-9.9-52.3-3.5-41.8-3.5-83.6-1.8-125.4 1-23.6 1.6-47.4 7.9-70.3 3.8-13.7 8.4-27.1 19.5-37 11.7-10.5 25.4-16.8 41-17.5 42.8-2.1 85.5-4.7 128.3-5.1 57.6-.6 115.3.2 172.9 1.3 24.9.5 50 1.8 74.7 5 22.6 3 39.5 15.6 48.5 37.6 6.9 16.9 9.5 34.6 11 52.6 3.9 45.1 4 90.2 1.8 135.3-1.1 22.9-2.2 45.9-8.7 68.2-7.4 25.6-23.1 42.5-49.3 48.3-10.2 2.2-20.8 3-31.2 3.4-54.4 1.9-108.7 3.6-160.2 5.2zm-55.3-113.7c45.6-23.6 90.7-47 136.7-70.9-45.9-24-91-47.5-136.7-71.4v142.3z"/></symbol><symbol viewBox="0 0 20 19" id="zoom" xmlns="http://www.w3.org/2000/svg"><path d="M18.594 15.852c.372.372.558.816.558 1.332a1.56 1.56 0 01-.472 1.246c-.315.315-.716.472-1.203.472-.516 0-.974-.186-1.375-.558L9.57 11.812c-.86.459-1.79.688-2.793.688-1.632 0-3.036-.573-4.21-1.719C1.42 9.607.846 8.203.846 6.571c0-1.662.574-3.066 1.72-4.212C3.74 1.185 5.144.598 6.776.598c1.662 0 3.065.587 4.211 1.761 1.175 1.146 1.762 2.536 1.762 4.168 0 1.003-.23 1.934-.688 2.793l6.532 6.532zM3.21 3.004c-.973.974-1.46 2.163-1.46 3.566 0 1.375.487 2.564 1.46 3.567 1.004.974 2.192 1.46 3.567 1.46 1.404 0 2.593-.486 3.567-1.46 1.002-1.003 1.504-2.192 1.504-3.567 0-1.403-.502-2.592-1.504-3.566C9.37 2 8.18 1.5 6.777 1.5c-1.375 0-2.563.501-3.566 1.504zM17.434 18a.69.69 0 00.601-.215.693.693 0 00.215-.601 1.13 1.13 0 00-.344-.688l-6.36-6.36a7.41 7.41 0 01-1.16 1.16l6.36 6.36c.2.2.43.315.688.344z"/></symbol></svg>