<?xml version="1.0" encoding="utf-8"?><svg xmlns="http://www.w3.org/2000/svg" xmlns:xlink="http://www.w3.org/1999/xlink"><symbol viewBox="0 0 18 19" id="6-dots" xmlns="http://www.w3.org/2000/svg"><path d="M7.5.283h10v3.13h-10zm0 7.435h10v3.13h-10zm0 7.434h10v3.13h-10zm-7.5 0h3v3.13H0zm0-7.434h3v3.13H0zM0 .283h3v3.13H0z"/></symbol><symbol viewBox="0 0 18 19" id="9-dots" xmlns="http://www.w3.org/2000/svg"><path d="M0 .283h3v3.13H0zm7.5 0h3v3.13h-3zm7.5 0h3v3.13h-3zM0 7.718h3v3.13H0zm7.5 0h3v3.13h-3zm7.5 0h3v3.13h-3zM0 15.152h3v3.13H0zm7.5 0h3v3.13h-3zm7.5 0h3v3.13h-3z"/></symbol><symbol viewBox="0 0 8 14" id="angle-left" xmlns="http://www.w3.org/2000/svg"><path d="M6.938 13.112L.94 7.152 6.938 1.19"/></symbol><symbol viewBox="0 0 17 18" id="bars" xmlns="http://www.w3.org/2000/svg"><path d="M12.944.5h3v17h-3zM6.722 5.167h3V17.5h-3zM.5 9.611h3V17.5h-3z"/></symbol><symbol viewBox="0 0 30 41" id="blank" xmlns="http://www.w3.org/2000/svg"><path d="M.21.117v40h19.783l9.28-9.28V.117H.211zm20.47 36v-4.594h4.593l-4.593 4.593zm6.25-6.937h-8.594v8.593H2.555V2.461H26.93V29.18z"/><path d="M4.898 4.805v22.03h19.688V4.806H4.898zm12.657 19.687H7.242V11.836h10.313v12.656zm4.687 0h-2.344V11.836h2.344v12.656zm0-15h-15V7.148h15v2.344zm-6.25 19.688H4.898v2.343h11.094V29.18z"/></symbol><symbol viewBox="0 0 23 22" id="bookmarks" xmlns="http://www.w3.org/2000/svg"><path d="M14.469 7.297l-2.953-5.86-.47-.937-.468.938-2.812 5.906-6.563 1.031-.984.14.75.704 4.781 4.547-1.031 6.515-.188.985.89-.47 5.813-3.14 5.907 3.047.89.469-.187-1.031-1.219-6.47 4.688-4.687.703-.703-.985-.14-6.562-.844zm-.375.937l5.765.797-4.125 4.125-.187.188.047.234 1.078 5.766-5.203-2.672-.235-.14-.234.14-5.156 2.765.937-5.765.047-.235-.187-.187-4.266-4.078 5.813-.89.234-.048.14-.234 2.485-5.203 2.672 5.156.094.281h.28z"/></symbol><symbol viewBox="0 0 31 18" id="car" xmlns="http://www.w3.org/2000/svg"><path d="M12.045 12.569c-1.384 0-2.503 1.167-2.503 2.606 0 1.435 1.119 2.603 2.503 2.603 1.384 0 2.503-1.168 2.503-2.603 0-1.439-1.119-2.606-2.503-2.606zm0 3.908c-.692 0-1.252-.586-1.252-1.302 0-.72.56-1.301 1.252-1.301s1.251.582 1.251 1.301c0 .716-.559 1.302-1.251 1.302zm18.877-5.834v2.78c0 .692-.54 1.254-1.208 1.254h-1.291c-.234-1.665-1.614-2.945-3.28-2.945-1.662 0-3.042 1.28-3.275 2.945H15.32c-.233-1.665-1.613-2.945-3.275-2.945s-3.042 1.28-3.276 2.945H7.153c-.667 0-1.207-.561-1.207-1.255v-2.779h24.976zm-5.776 1.926c-1.384 0-2.506 1.167-2.506 2.606 0 1.435 1.122 2.603 2.506 2.603 1.38 0 2.503-1.168 2.503-2.603 0-1.439-1.122-2.606-2.503-2.606zm0 3.908c-.692 0-1.25-.586-1.25-1.302 0-.72.558-1.301 1.25-1.301.689 0 1.252.582 1.252 1.301 0 .716-.563 1.302-1.252 1.302zm5.3-8.632l-4.744-4.88a1.582 1.582 0 00-1.13-.484h-2.395v-.934c0-.694-.54-1.255-1.207-1.255H7.152c-.664 0-1.207.561-1.207 1.255v.197l-4.899.587 8.68 1.176-8.792.908L9.695 5.71.934 6.5l5.011.983V9.95H30.92v-.916c0-.448-.173-.874-.475-1.188zm-2.068.163h-4.591a.193.193 0 01-.19-.197V4.125c0-.109.085-.197.19-.197h.873a.2.2 0 01.133.055l3.713 3.686c.125.121.04.339-.128.339z"/></symbol><symbol viewBox="0 0 42 31" id="card" xmlns="http://www.w3.org/2000/svg"><path d="M0 .059v30h41.483v-30H0zm39.052 2.43v2.435H2.431V2.489h36.621zm0 4.865V9.79H2.431V7.354h36.621zM2.431 27.628V12.22h36.621v15.408H2.431z"/><path d="M32.563 17.087a4.07 4.07 0 00-2.432.814 4.032 4.032 0 00-2.433-.814 4.058 4.058 0 00-4.053 4.053 4.058 4.058 0 004.053 4.053 4.03 4.03 0 002.433-.814 4.069 4.069 0 002.432.814 4.058 4.058 0 004.053-4.053 4.058 4.058 0 00-4.053-4.053zm-4.865 5.676a1.625 1.625 0 01-1.623-1.623c0-.895.728-1.623 1.623-1.623s1.623.728 1.623 1.623-.728 1.623-1.623 1.623zm4.865 0c-.378 0-.733-.129-1.016-.357a4.036 4.036 0 000-2.532 1.625 1.625 0 012.638 1.267c0 .894-.727 1.622-1.622 1.622zm-27.703 0h11.014v2.43H4.86v-2.43zm0-4.865h11.014v2.43H4.86v-2.43z"/></symbol><symbol viewBox="0 0 21 18" id="cart" xmlns="http://www.w3.org/2000/svg"><path d="M19.156.703l1.782.235-.235.984-1.922-.375c-.218 0-.375.047-.468.14a.359.359 0 01-.047.141c-.032.031-.047.063-.047.094l-3.375 11.765c.594.22.953.657 1.078 1.313a1.946 1.946 0 01-.235 1.5 1.867 1.867 0 01-1.218.89 2.076 2.076 0 01-1.5-.187c-.469-.281-.766-.703-.89-1.265H6.921c-.25.75-.734 1.234-1.453 1.453a1.925 1.925 0 01-1.032 0 1.971 1.971 0 01-.89-.516 2.212 2.212 0 01-.469-.938 1.946 1.946 0 01.235-1.5 1.867 1.867 0 011.218-.89 1.946 1.946 0 011.5.234c.469.281.766.688.89 1.219h5.016a1.87 1.87 0 01.704-1.031c.343-.281.718-.422 1.125-.422l.375-1.078H4.297a1.76 1.76 0 01-1.031-.328 1.736 1.736 0 01-.657-.844L1.063 5.53a1.519 1.519 0 01.234-1.312c.406-.563.875-.766 1.406-.61h14.063l.468-1.828c.157-.406.36-.687.61-.843.406-.25.843-.329 1.312-.235zM4.296 16.266a.954.954 0 00.704.28c.281 0 .5-.093.656-.28a.9.9 0 00.282-.657.9.9 0 00-.282-.656c-.187-.219-.406-.328-.656-.328a.9.9 0 00-.656.281.954.954 0 00-.282.703c0 .25.079.47.235.657zm0-4.735H14.47l2.062-6.984H2.703c-.25-.125-.437-.047-.562.234-.094.094-.141.266-.141.516l1.547 5.766c.156.312.406.468.75.468zM14 16.547c.281 0 .5-.094.656-.281a.899.899 0 00.281-.657.9.9 0 00-.28-.656c-.188-.219-.407-.328-.657-.328a.9.9 0 00-.656.281.954.954 0 00-.281.703c0 .157.03.313.093.47a.825.825 0 00.328.327c.157.094.329.14.516.14z"/></symbol><symbol viewBox="0 0 41 35" id="cart-regular" xmlns="http://www.w3.org/2000/svg"><path d="M37.313.406l3.562.469-.469 1.969-3.843-.75c-.438 0-.75.094-.938.281a.718.718 0 01-.094.281c-.062.063-.093.125-.093.188l-6.75 23.531c1.187.438 1.906 1.313 2.156 2.625a3.893 3.893 0 01-.469 3c-.563.938-1.375 1.531-2.438 1.781-1.062.25-2.062.125-3-.375-.937-.562-1.53-1.406-1.78-2.531H12.843c-.5 1.5-1.469 2.469-2.906 2.906a3.85 3.85 0 01-2.063 0 3.943 3.943 0 01-1.781-1.031c-.438-.5-.75-1.125-.938-1.875a3.893 3.893 0 01.469-3c.563-.938 1.375-1.531 2.438-1.781a3.893 3.893 0 013 .468c.937.563 1.53 1.375 1.78 2.438h10.032c.25-.875.719-1.563 1.406-2.063.688-.562 1.438-.843 2.25-.843l.75-2.157H7.594c-.75 0-1.438-.218-2.063-.656a3.473 3.473 0 01-1.312-1.687L1.125 10.062c-.25-.937-.094-1.812.469-2.624.812-1.125 1.75-1.532 2.812-1.22h28.125l.938-3.655c.312-.813.718-1.376 1.218-1.688a3.523 3.523 0 012.626-.469zM7.593 31.531c.376.375.845.563 1.407.563.563 0 1-.188 1.313-.563.374-.375.562-.812.562-1.312s-.188-.938-.563-1.313C9.938 28.47 9.5 28.25 9 28.25s-.938.188-1.313.563c-.375.375-.562.843-.562 1.406 0 .5.156.937.469 1.312zm0-9.468h20.345l4.125-13.97H4.405c-.5-.25-.875-.093-1.125.47-.187.187-.281.53-.281 1.03l3.094 11.532c.312.625.812.938 1.5.938zM27 32.093c.563 0 1-.187 1.313-.562.375-.375.562-.812.562-1.312s-.188-.938-.563-1.313c-.375-.437-.812-.656-1.312-.656s-.938.188-1.313.563c-.375.375-.562.843-.562 1.406 0 .312.063.625.188.937.125.25.343.469.656.657.312.187.656.28 1.031.28z"/></symbol><symbol viewBox="0 0 24 24" id="check" xmlns="http://www.w3.org/2000/svg"><path d="M8.998 16.2l-4.2-4.2-1.4 1.4 5.6 5.6 12-12-1.4-1.4-10.6 10.6z"/></symbol><symbol viewBox="0 0 14 8" id="chevron-down" xmlns="http://www.w3.org/2000/svg"><path d="M.731 1l6 6 6-6"/></symbol><symbol viewBox="0 0 11 18" id="chevron-left" xmlns="http://www.w3.org/2000/svg"><path d="M10 17L2 9l8-8"/></symbol><symbol viewBox="0 0 11 18" id="chevron-right" xmlns="http://www.w3.org/2000/svg"><path d="M1 1l8 8-8 8"/></symbol><symbol viewBox="0 0 41 40" id="coins" xmlns="http://www.w3.org/2000/svg"><g clip-path="url(#aoa)"><path d="M24.378 7.597V4.483c0-5.978-23.636-5.978-23.636 0v18.214c0 2.35 3.679 3.815 8.104 4.336-1.618.726-2.65 1.706-2.65 2.95v5.463c0 2.99 5.946 4.554 11.819 4.554 5.873 0 11.818-1.565 11.818-4.554V32.7c5.562-.153 10.91-1.703 10.91-4.538V11.769c0-3.774-9.418-5.163-16.365-4.172zM12.56 1.817c6.47 0 10 1.802 10 2.728 0 .926-3.53 2.727-10 2.727-6.47 0-10-1.8-10-2.727 0-.926 3.53-2.727 10-2.727zm-10 5.258c2.206 1.328 6.114 2.016 10 2.016 3.887 0 7.794-.688 10-2.016v.903c-3.159.701-5.454 1.98-5.454 3.84v.538a28.844 28.844 0 01-4.546.371c-6.47 0-10-1.801-10-2.727V7.075zm16.364 18.182c.173.104.353.205.546.301a35.312 35.312 0 00-.546-.02v-.281zM2.56 12.53c2.206 1.327 6.114 2.015 10 2.015a30.81 30.81 0 004.546-.357v4.531a28.832 28.832 0 01-4.546.372c-6.47 0-10-1.802-10-2.728V12.53zm0 10.197v-3.834c2.206 1.328 6.114 2.016 10 2.016 1.574 0 3.104-.141 4.546-.357v4.531a28.832 28.832 0 01-4.546.371c-6.47 0-10-1.801-10-2.727zm25.455 12.727c0 .926-3.53 2.728-10 2.728-6.47 0-10-1.802-10-2.728V32.53c2.206 1.328 6.113 2.016 10 2.016 3.72 0 7.465-.629 9.713-1.847.095.004.192.004.287.007v2.75zm-10-2.727c-6.47 0-10-1.801-10-2.727 0-.926 3.53-2.727 10-2.727 6.47 0 10 1.8 10 2.727 0 .926-3.53 2.727-10 2.727zm20.909-4.545c0 .88-3.221 2.532-9.09 2.695V30c0-1.136-.86-2.054-2.247-2.758.445.018.89.03 1.337.03 3.887 0 7.794-.688 10-2.015v2.925zm0-5.455c0 .926-3.53 2.727-10 2.727-6.47 0-10-1.8-10-2.727v-2.925c2.206 1.328 6.113 2.016 10 2.016 3.887 0 7.794-.688 10-2.016v2.925zm0-5.454c0 .925-3.53 2.727-10 2.727-6.47 0-10-1.802-10-2.727v-2.925c2.206 1.327 6.113 2.015 10 2.015 3.887 0 7.794-.688 10-2.015v2.925zm-10-2.728c-6.47 0-10-1.801-10-2.727 0-.926 3.53-2.727 10-2.727 6.47 0 10 1.801 10 2.727 0 .926-3.53 2.727-10 2.727z"/></g><defs><clipPath id="aoa"><path d="M.742 0h40v40h-40z"/></clipPath></defs></symbol><symbol viewBox="0 0 22 22" id="cross" xmlns="http://www.w3.org/2000/svg"><path d="M1 1l20 20M1 21L21 1"/></symbol><symbol viewBox="0 0 18 18" id="delete" xmlns="http://www.w3.org/2000/svg"><path d="M.984 17.016l.375.328L17.297 1.359l-.328-.375-.375-.328L.656 16.641l.328.375zm16.032 0l.328-.375L1.359.656.984.984l-.328.375 15.985 15.985.375-.328z"/></symbol><symbol viewBox="0 0 19 12" id="enter" xmlns="http://www.w3.org/2000/svg"><path d="M18 8.035v.5h.5v-.5H18zM.646 7.681a.5.5 0 000 .708l3.182 3.182a.5.5 0 00.708-.707l-2.829-2.83 2.829-2.828a.5.5 0 10-.708-.707L.646 7.68zM17.5.035v8h1v-8h-1zm.5 7.5H1v1h17v-1z"/></symbol><symbol viewBox="0 0 15 15" id="exit" xmlns="http://www.w3.org/2000/svg"><path d="M4 11l1-1-1-2H3h8V6H3h1l1-2-1-1-4 4 4 4z"/><path d="M6 0H4v3h2V2h7v11H6v-1H4v3h11V0H6z"/></symbol><symbol viewBox="0 0 30 25" id="filter-bar-icon" xmlns="http://www.w3.org/2000/svg"><path d="M0 3h30M0 12h30M0 22h30M4.5.5h5v5h-5zm17.5 9h5v5h-5zm-11 10h5v5h-5z"/></symbol><symbol viewBox="0 0 18 17" id="heart" xmlns="http://www.w3.org/2000/svg"><path d="M8.602 3.533L9 4.055l.398-.522a8.736 8.736 0 011.564-1.6c.702-.54 1.507-.933 2.35-.933C15.566 1 17.5 3.093 17.5 5.797c0 1.22-.405 2.377-1.133 3.268l-.031.038-.014.027-.005.005a2.596 2.596 0 01-.154.155l-.005.005-.074.071-.005.006L9 16.448 2.165 9.626l-.03-.051-.056-.052C1.08 8.607.5 7.26.5 5.797.5 3.093 2.435 1 4.687 1c.844 0 1.65.394 2.35.933a8.713 8.713 0 011.565 1.6z"/></symbol><symbol viewBox="0 0 22 22" id="house" xmlns="http://www.w3.org/2000/svg"><path d="M22 10.035c.398-.432.446-.615 0-1l-10-9c-.447-.385-1.563-.395-2 0l-10 9c-.437.395-.411 1.579 0 2h1c.41.421.593.36 1 0l1-1v10c0 .585.407 1 1 1h4c.592 0 1-.415 1-1v-7h5v7c-.009.584.407 1 1 1h4c.592 0 1-.415 1-1v-9s-.252-.218 0 0c.25.217.6.433 1 0l1-1z"/></symbol><symbol viewBox="0 0 24 24" id="icon-check-not-ok" xmlns="http://www.w3.org/2000/svg"><g clip-path="url(#awa)"><path d="M4.928 4.929c-3.903 3.903-3.903 10.239 0 14.142 3.904 3.903 10.24 3.903 14.143 0 3.903-3.903 3.903-10.239 0-14.142-3.904-3.903-10.24-3.903-14.143 0zm11.314 4.243L13.414 12l2.828 2.828-1.414 1.415L12 13.414l-2.83 2.829-1.414-1.415L10.585 12 7.757 9.172 9.17 7.757 12 10.586l2.828-2.829 1.414 1.415z"/></g><defs><clipPath id="awa"><path d="M0 0h24v24H0z"/></clipPath></defs></symbol><symbol viewBox="0 0 24 24" id="icon-check-ok" xmlns="http://www.w3.org/2000/svg"><path d="M12 2C6.48 2 2 6.48 2 12s4.48 10 10 10 10-4.48 10-10S17.52 2 12 2zm-2 15l-5-5 1.41-1.41L10 14.17l7.59-7.59L19 8l-9 9z"/></symbol><symbol viewBox="0 0 24 24" id="lines" xmlns="http://www.w3.org/2000/svg"><path fill-rule="evenodd" clip-rule="evenodd" d="M2 2h20v4H2V2zm0 8h20v4H2v-4zm20 8H2v4h20v-4z"/></symbol><symbol viewBox="0 0 12 18" id="location" xmlns="http://www.w3.org/2000/svg"><path d="M6.469 1.117a4.354 4.354 0 012.734 1.29c.755.728 1.198 1.588 1.328 2.577.13.99-.026 2.006-.469 3.047L6 15.453l-3.984-7.46a4.028 4.028 0 01-.586-2.227c.052-.808.234-1.537.547-2.188.312-.65.794-1.198 1.445-1.64a4.404 4.404 0 012.187-.82h.86zm-.82 15.43L6 17.21l.352-.664 4.414-8.125c.494-.86.716-1.745.664-2.656a6.95 6.95 0 00-.625-2.579c-.365-.78-.938-1.432-1.72-1.953A4.95 4.95 0 006.548.297H5.53a5.171 5.171 0 00-2.578.937 5.145 5.145 0 00-1.719 1.954A6.95 6.95 0 00.61 5.765c-.026.911.209 1.796.704 2.656l4.335 8.125zM4.828 6.43a1.543 1.543 0 01-.47-1.133c0-.443.157-.82.47-1.133.338-.338.728-.508 1.171-.508.443 0 .82.17 1.133.508.338.313.508.69.508 1.133 0 .443-.17.82-.508 1.133-.313.312-.69.468-1.133.468-.443 0-.833-.156-1.172-.468zm-.587-2.852a2.338 2.338 0 00-.703 1.719c0 .677.234 1.263.703 1.758A2.47 2.47 0 006 7.758c.677 0 1.25-.235 1.719-.703.495-.495.742-1.081.742-1.758s-.247-1.25-.742-1.719A2.277 2.277 0 006 2.836c-.677 0-1.263.247-1.758.742z"/></symbol><symbol viewBox="0 0 24 24" id="minus" xmlns="http://www.w3.org/2000/svg"><path d="M5.689 11.232H3.768v1.921h16.464v-1.921H5.689z"/></symbol><symbol viewBox="0 0 23 24" id="plane" xmlns="http://www.w3.org/2000/svg"><path d="M23 12.035c0-.968-1.08-2-2-2h-6l-6-10H7l3 10H3l-1-3H0l1 5-1 4h2l1-3h7l-3 10h2l6-10h6c.92 0 2-.031 2-1z"/></symbol><symbol viewBox="0 0 24 24" id="plus" xmlns="http://www.w3.org/2000/svg"><path d="M12 1v22M1 12h22"/></symbol><symbol viewBox="0 0 40 40" id="profile" xmlns="http://www.w3.org/2000/svg"><path d="M15.969 23c-1-1.063-1.5-2.313-1.5-3.75 0-1.5.5-2.75 1.5-3.75 1.062-1.063 2.312-1.594 3.75-1.594 1.5 0 2.75.531 3.75 1.594 1.062 1 1.593 2.25 1.593 3.75 0 1.438-.53 2.688-1.593 3.75-1 1-2.25 1.5-3.75 1.5-1.438 0-2.688-.5-3.75-1.5zm-1.313-8.906C13.22 15.469 12.5 17.188 12.5 19.25c0 2 .719 3.719 2.156 5.156 1.438 1.375 3.156 2.063 5.156 2.063 2 0 3.72-.688 5.157-2.063 1.437-1.437 2.156-3.156 2.156-5.156 0-2.063-.719-3.781-2.156-5.156-1.438-1.438-3.157-2.156-5.157-2.156s-3.718.718-5.156 2.156zm15 21.937h1.032c0-3.375-1.063-6.031-3.188-7.968-2.063-2-4.656-3-7.781-3-3.063 0-5.625 1-7.688 3C9.97 30 8.937 32.656 8.937 36.03h1.969c0-2.812.813-5 2.438-6.562 1.687-1.563 3.844-2.344 6.469-2.344 1.25 0 2.406.188 3.468.563 1.125.375 2.063.937 2.813 1.687.812.75 1.437 1.688 1.875 2.813.5 1.124.75 2.406.75 3.843h.937zm3-28.687C29.156 3.78 24.938 2 20 2c-4.938 0-9.188 1.781-12.75 5.344C3.75 10.844 2 15.062 2 20c0 4.938 1.75 9.188 5.25 12.75C10.813 36.25 15.063 38 20 38c4.938 0 9.156-1.75 12.656-5.25C36.22 29.187 38 24.937 38 20c0-4.938-1.781-9.156-5.344-12.656zM5.844 5.937C9.78 2 14.5.032 20 .032S30.188 2 34.063 5.938C38 9.813 39.968 14.5 39.968 20S38 30.219 34.062 34.156C30.189 38.031 25.5 39.97 20 39.97S9.781 38.03 5.844 34.156C1.969 30.22.03 25.5.03 20S1.97 9.812 5.844 5.937z"/></symbol><symbol viewBox="0 0 36 37" id="share" xmlns="http://www.w3.org/2000/svg"><path d="M30.023 6.477C26.695 3.102 22.688 1.414 18 1.414S9.281 3.102 5.906 6.477C2.578 9.805.914 13.812.914 18.5s1.664 8.719 4.992 12.094c3.375 3.328 7.407 4.992 12.094 4.992 4.688 0 8.695-1.664 12.023-4.992 3.375-3.375 5.063-7.407 5.063-12.094 0-4.688-1.688-8.695-5.063-12.023zm-24.75-.704C8.79 2.258 13.031.5 18 .5s9.21 1.758 12.727 5.273C34.242 9.29 36 13.531 36 18.5s-1.758 9.21-5.273 12.727C27.21 34.742 22.969 36.5 18 36.5s-9.21-1.758-12.727-5.273C1.758 27.71 0 23.469 0 18.5S1.758 9.29 5.273 5.773zm6.75 11.04a2.301 2.301 0 00-1.687-.704c-.656 0-1.219.235-1.688.703a2.301 2.301 0 00-.703 1.688c0 .656.235 1.219.703 1.688a2.302 2.302 0 001.688.703c.656 0 1.219-.235 1.687-.703a2.301 2.301 0 00.704-1.688c0-.656-.235-1.219-.704-1.688zm-4.007-.633c.656-.657 1.43-.985 2.32-.985.89 0 1.664.328 2.32.985.656.656.985 1.43.985 2.32 0 .89-.329 1.664-.985 2.32-.656.657-1.43.985-2.32.985-.89 0-1.664-.328-2.32-.985-.657-.656-.985-1.43-.985-2.32 0-.89.328-1.664.985-2.32zm16.172-5.485c-.422-.468-.961-.703-1.618-.703-.656 0-1.218.235-1.687.703-.469.422-.703.985-.703 1.688 0 .656.234 1.219.703 1.687.469.422 1.031.633 1.687.633.657 0 1.196-.21 1.617-.633a2.301 2.301 0 00.704-1.687c0-.703-.235-1.266-.703-1.688zM22.57 9.008c.938 0 1.711.328 2.32.984.657.656.985 1.43.985 2.32 0 .938-.328 1.735-.984 2.391a3.258 3.258 0 01-2.391.985c-.89 0-1.664-.329-2.32-.985a3.298 3.298 0 01-.914-2.32c0-.938.304-1.735.914-2.39.656-.657 1.453-.985 2.39-.985zM24.187 23c-.421-.469-.96-.703-1.617-.703a2.3 2.3 0 00-1.687.703c-.469.422-.703.984-.703 1.688a2.3 2.3 0 00.703 1.687c.469.422 1.031.633 1.687.633.657 0 1.196-.211 1.617-.633a2.302 2.302 0 00.704-1.688c0-.703-.235-1.265-.703-1.687zm-1.617-1.688c.61 0 1.172.165 1.688.493.515.28.914.68 1.195 1.195.281.516.422 1.078.422 1.688 0 .89-.328 1.664-.984 2.32-.657.656-1.453.984-2.391.984-.89 0-1.664-.328-2.32-.984a3.298 3.298 0 01-.914-2.32c0-.938.304-1.735.914-2.391.656-.656 1.453-.985 2.39-.985zm-2.742 2.32l.211-.421-7.242-3.516-.211.422-.211.422 7.242 3.516.211-.422zm0 0l.211-.421-7.242-3.516-.211.422-.211.422 7.242 3.516.211-.422zm0 0l-7.242-3.515 7.242 3.516z"/></symbol><symbol viewBox="0 0 24 24" id="square" xmlns="http://www.w3.org/2000/svg"><path fill-rule="evenodd" clip-rule="evenodd" d="M11 2H2v9h9V2zm11 0h-9v9h9V2zm-9 11h9v9h-9v-9zm-2 0H2v9h9v-9z"/></symbol><symbol viewBox="0 0 16 15" id="star" xmlns="http://www.w3.org/2000/svg"><path d="M8.321.574l1.964 4.515 5.028.42c.35.03.491.452.226.675l-3.814 3.21 1.143 4.775c.08.332-.29.593-.59.417l-4.322-2.532-4.32 2.532c-.301.175-.67-.086-.591-.417l1.143-4.775L.373 6.183c-.265-.223-.124-.645.226-.675l5.028-.42L7.591.575a.4.4 0 01.73 0z"/></symbol><symbol viewBox="0 0 14 15" id="tel" xmlns="http://www.w3.org/2000/svg"><path d="M13.754 11.879l-.51.86.03.018.033.016.447-.894zm.137.191l-.981.196.005.024.006.023.97-.243zm-.082.164l-.448-.894-.148.074-.116.118.712.702zM11.73 14.34l.673.74.02-.018.02-.02-.713-.702zm-.765.273v-1h-.123l-.12.03.243.97zm-.52-.027l.133-.991-.03-.004-.031-.002-.072.997zm-.82-.137l-.258.966.008.003.007.001.243-.97zm-1.094-.383l-.384.923.006.003.007.003.371-.929zm-1.34-.683l.515-.858-.013-.007-.013-.008-.489.873zm-3.308-2.625l-.707.707.707-.707zm-2.051-2.38l-.826.564.007.011.008.01.811-.584zM.656 6.356l-.932.361.007.019.008.018.917-.398zm-.492-1.53l-.972.233.972-.234zM0 3.811l-.997-.083L-1 3.77v.042h1zm.027-.328l.997.083.003-.041v-.042h-1zm.274-.574l-.703-.712-.019.02-.018.02.74.672zM2.406.832l.703.712.004-.005-.707-.707zm.356.055l-.895.447.006.01.005.011.884-.468zM4.43 4.03l.933-.359-.022-.056-.028-.053-.883.468zm-.137.492l-.447-.894-.145.073-.115.114.707.707zm-.766.766l-.707-.707-.115.115-.072.145.894.447zm-.218.656h-1v.415l.292.292.708-.707zm.054.192l-.986.164.013.078.025.074.948-.316zm.11.355l-.962.275.018.06.025.06.919-.395zm.218.492l-.91.414.024.052.029.049.857-.515zm.383.602l-.832.555.011.017.012.016.81-.588zm.547.738l-.8.6.021.028.023.027.756-.655zm.793.82l.697-.717-.007-.006-.006-.006-.684.73zm1.777 1.477l-.554.832.016.01.016.01.522-.852zm1.504.629l-.164.986.082.014h.082v-1zm.575-.219l-.708-.707.708.707zm.902-.902l.707.707.115-.115.072-.145-.894-.447zm.219-.11v1h.082l.082-.013-.164-.986zm.273.028l.51-.86-.03-.019-.033-.016-.447.895zm2.643 2.726a.763.763 0 01-.278-.238.706.706 0 01-.119-.269l1.961-.392a1.254 1.254 0 00-.67-.89l-.894 1.79zm-.386-.46a.866.866 0 01.44-.973l.895 1.789a1.134 1.134 0 00.605-1.301l-1.94.485zm.176-.781l-2.078 2.105 1.423 1.405 2.078-2.105-1.423-1.405zm-2.04 2.068c-.046.043-.064.048-.05.042a.36.36 0 01.15-.029v2c.528 0 .95-.263 1.246-.533l-1.345-1.48zm.1.013h-.193v2h.193v-2zm-.435.03a.75.75 0 01.132-.02l-.021-.002a3.457 3.457 0 01-.255-.026l-.265 1.982c.15.02.29.035.415.042.09.005.284.013.48-.036l-.486-1.94zm-.205-.055a3.822 3.822 0 01-.65-.109l-.485 1.94c.339.085.67.141.992.164l.143-1.995zm-.634-.105a9.314 9.314 0 01-.98-.345l-.743 1.857c.47.188.877.332 1.207.42l.516-1.932zm-.967-.34a9.35 9.35 0 01-1.21-.618l-1.03 1.715c.493.296.983.546 1.47.75l.77-1.847zM7.68 12.51a11.665 11.665 0 01-1.432-.982l-1.23 1.576c.608.476 1.17.863 1.685 1.151l.977-1.745zm-1.432-.982c-.547-.428-1.1-.92-1.658-1.477l-1.414 1.414a20.192 20.192 0 001.841 1.64l1.231-1.577zM4.59 10.051a18.625 18.625 0 01-1.947-2.257l-1.622 1.17a20.613 20.613 0 002.155 2.5l1.414-1.413zM2.658 7.816c-.53-.778-.883-1.394-1.084-1.858l-1.835.795c.272.63.704 1.363 1.267 2.19l1.652-1.127zm-1.07-1.822a11.18 11.18 0 01-.452-1.403l-1.944.467c.122.51.301 1.063.532 1.658l1.865-.722zm-.452-1.403C1.03 4.145 1 3.905 1 3.812h-2c0 .345.08.78.192 1.246l1.944-.467zm-.14-.695l.028-.329-1.993-.166-.028.328 1.994.167zm.031-.412c0 .08-.02.133-.028.15-.007.013 0-.004.042-.051L-.44 2.237c-.27.297-.534.719-.534 1.247h2zm-.024.138L3.11 1.544 1.704.12-.402 2.198l1.405 1.424zm2.11-2.083a.619.619 0 01-.168.115.843.843 0 01-.493.07.846.846 0 01-.455-.22.632.632 0 01-.13-.17L3.657.44c-.09-.18-.349-.607-.9-.692-.545-.084-.919.238-1.058.377l1.414 1.414zm-1.235-.184L3.546 4.5l1.767-.937L3.645.418l-1.767.937zM3.496 4.39s-.011-.03-.017-.082a.7.7 0 01.367-.68l.894 1.79c.29-.145.574-.41.687-.818a1.475 1.475 0 00-.064-.928l-1.867.718zm.09-.574l-.766.766 1.414 1.414L5 5.231 3.586 3.816zm-.953 1.026a5.12 5.12 0 00-.204.453c-.04.103-.12.324-.12.568h2a.75.75 0 01-.018.163c-.003.012-.003.007.007-.019.02-.052.058-.14.124-.27l-1.79-.895zm-.324 1.021v.083h2v-.083h-2zm.292.79a.952.952 0 01-.193-.28.709.709 0 01-.034-.091c-.005-.02-.004-.02.003.02l1.973-.33a2.207 2.207 0 00-.053-.24 1.3 1.3 0 00-.06-.17 1.07 1.07 0 00-.221-.324L2.6 6.652zm-.186-.2c.03.094.063.198.096.314l1.923-.55a9.54 9.54 0 00-.122-.397l-1.897.633zm.139.433c.058.137.134.308.227.512l1.82-.827a32.845 32.845 0 01-.21-.473l-1.837.788zm.28.613c.12.198.256.413.408.642l1.664-1.11a14.126 14.126 0 01-.357-.561L2.834 7.499zm.431.675c.15.206.336.456.556.75l1.6-1.2c-.217-.29-.396-.531-.538-.726L3.265 8.174zm.6.805c.262.302.55.6.865.895l1.368-1.459c-.269-.252-.51-.5-.721-.746L3.865 8.98zm.852.883c.668.648 1.308 1.183 1.92 1.591l1.11-1.664c-.483-.321-1.028-.77-1.636-1.362L4.717 9.862zm1.952 1.612c.297.182.566.334.801.449.216.105.475.216.733.259l.329-1.973c.038.006-.008.003-.184-.083a7.929 7.929 0 01-.634-.358l-1.045 1.706zm1.534.708l.328.054.329-1.972-.328-.055-.33 1.973zm.492.068c.46 0 .92-.15 1.282-.512l-1.415-1.414a.289.289 0 01.099-.063c.034-.013.05-.011.034-.011v2zm1.282-.512l.902-.902-1.414-1.414-.903.902 1.415 1.414zm1.09-1.162a.82.82 0 01-.366.365.702.702 0 01-.31.079v-2c-.338 0-.85.133-1.114.662l1.79.894zm-.512.43a.576.576 0 01-.338-.065l.894-1.789a1.43 1.43 0 00-.885-.119l.329 1.973zm-.4-.099l3.089 1.832 1.02-1.72-3.09-1.832-1.02 1.72z"/></symbol><symbol viewBox="0 0 20 20" id="user" xmlns="http://www.w3.org/2000/svg"><path d="M7.984 11.5a2.646 2.646 0 01-.75-1.875c0-.75.25-1.375.75-1.875.532-.531 1.157-.797 1.875-.797.75 0 1.375.266 1.875.797.532.5.797 1.125.797 1.875 0 .719-.265 1.344-.797 1.875-.5.5-1.125.75-1.875.75-.718 0-1.343-.25-1.875-.75zm-.656-4.453C6.61 7.734 6.25 8.594 6.25 9.625c0 1 .36 1.86 1.078 2.578a3.6 3.6 0 002.578 1.031c1 0 1.86-.343 2.578-1.03.72-.72 1.079-1.579 1.079-2.579 0-1.031-.36-1.89-1.079-2.578-.718-.719-1.578-1.078-2.578-1.078-1 0-1.86.36-2.578 1.078zm7.5 10.969h.516c0-1.688-.531-3.016-1.594-3.985-1.031-1-2.328-1.5-3.89-1.5-1.532 0-2.813.5-3.844 1.5-1.032.969-1.547 2.297-1.547 3.985h.984c0-1.407.406-2.5 1.219-3.282.844-.78 1.922-1.171 3.234-1.171.625 0 1.203.093 1.735.28a3.53 3.53 0 011.406.845c.406.374.719.843.937 1.406.25.562.375 1.203.375 1.922h.47zm1.5-14.344C14.578 1.89 12.468 1 10 1c-2.469 0-4.594.89-6.375 2.672C1.875 5.422 1 7.532 1 10c0 2.469.875 4.594 2.625 6.375C5.406 18.125 7.531 19 10 19s4.578-.875 6.328-2.625C18.11 14.594 19 12.469 19 10s-.89-4.578-2.672-6.328zM2.922 2.969C4.89 1 7.25.016 10 .016s5.094.984 7.031 2.953C19 4.906 19.984 7.25 19.984 10s-.984 5.11-2.953 7.078c-1.937 1.938-4.281 2.906-7.031 2.906s-5.11-.968-7.078-2.906C.984 15.11.016 12.75.016 10s.968-5.094 2.906-7.031z"/></symbol><symbol viewBox="0 0 36 36" id="vk" xmlns="http://www.w3.org/2000/svg"><path d="M30.305 30.637c-3.39 3.39-7.492 5.086-12.305 5.086s-8.941-1.696-12.387-5.086C2.223 27.19.527 23.062.527 18.25c0-4.813 1.696-8.914 5.086-12.305C9.06 2.5 13.187.777 18 .777c4.813 0 8.914 1.723 12.305 5.168 3.445 3.39 5.168 7.492 5.168 12.305s-1.723 8.941-5.168 12.387zm-1.23-23.461C26.011 4.059 22.32 2.5 18 2.5c-4.32 0-8.04 1.559-11.156 4.676C3.78 10.238 2.25 13.93 2.25 18.25s1.531 8.04 4.594 11.156C9.96 32.47 13.68 34 18 34s8.012-1.531 11.074-4.594c3.117-3.117 4.676-6.836 4.676-11.156s-1.559-8.012-4.676-11.074zm-3.282 10.09c-.547.71-.848 1.175-.902 1.394a.905.905 0 00.164.902l.82.82.082.083c.984.93 1.64 1.695 1.969 2.297.055.054.082.11.082.164v.328a.349.349 0 010 .328c0 .055-.082.137-.246.246-.11.11-.301.164-.575.164H24.48a1.02 1.02 0 01-.574 0 4.494 4.494 0 00-.574-.246l-.164-.164a7.104 7.104 0 01-.738-.656c-.274-.274-.52-.547-.739-.82a6.16 6.16 0 00-.656-.575c-.219-.218-.41-.3-.574-.246-.055.055-.11.082-.164.082l-.164.164c-.055.055-.11.164-.164.328-.055.11-.11.301-.164.575a3.049 3.049 0 00-.082.738c0 .11-.028.219-.082.328 0 .055-.028.11-.082.164v.082c-.11.11-.301.192-.575.246h-1.23a7.955 7.955 0 01-1.559-.164 7.28 7.28 0 01-1.312-.574 7.374 7.374 0 01-1.067-.738 4.989 4.989 0 01-.738-.575l-.328-.246a1.285 1.285 0 01-.246-.328c-.11-.164-.356-.492-.738-.984a10.388 10.388 0 01-1.149-1.559c-.383-.547-.82-1.285-1.312-2.215-.492-.93-.93-1.886-1.313-2.87a.63.63 0 01-.082-.247v-.246h.082c.11-.164.301-.246.574-.246h2.871c.11 0 .192.027.247.082.109 0 .164.027.164.082h.082c.11.11.191.219.246.328l.492 1.149.41.82.164.328.574 1.149c.22.273.383.492.493.656l.41.41c.164.11.3.164.41.164a.72.72 0 00.328-.082.954.954 0 00.164-.246c.055-.164.082-.328.082-.492.055-.22.082-.52.082-.903.055-.383.082-.82.082-1.312 0-.274-.027-.52-.082-.738-.055-.274-.11-.438-.164-.493l-.082-.164c-.164-.218-.465-.355-.902-.41-.11-.055-.082-.137.082-.246a.79.79 0 01.41-.328c.328-.219 1.148-.3 2.46-.246.602 0 1.095.027 1.477.082l.329.164c.109.055.164.137.164.246a.74.74 0 01.082.328c.054.11.082.274.082.492v3.61c0 .164.027.3.082.41l.246.246h.164a.72.72 0 00.328-.082l.328-.328c.164-.164.356-.41.574-.738.274-.383.52-.766.739-1.149.437-.71.82-1.504 1.148-2.379 0-.055.027-.11.082-.164.055-.055.11-.082.164-.082v-.082h.082l.082-.082h3.281c.274-.055.493-.055.657 0 .164.055.273.137.328.246l.082.082c.164.438-.356 1.477-1.559 3.117-.273.274-.52.547-.738.82z"/></symbol><symbol viewBox="0 0 36 37" id="youtube" xmlns="http://www.w3.org/2000/svg"><path d="M30.023 6.477C26.695 3.102 22.688 1.414 18 1.414S9.281 3.102 5.906 6.477C2.578 9.805.914 13.812.914 18.5s1.664 8.719 4.992 12.094c3.375 3.328 7.407 4.992 12.094 4.992 4.688 0 8.695-1.664 12.023-4.992 3.375-3.375 5.063-7.407 5.063-12.094 0-4.688-1.688-8.695-5.063-12.023zm-24.75-.704C8.79 2.258 13.031.5 18 .5s9.21 1.758 12.727 5.273C34.242 9.29 36 13.531 36 18.5s-1.758 9.21-5.273 12.727C27.21 34.742 22.969 36.5 18 36.5s-9.21-1.758-12.727-5.273C1.758 27.71 0 23.469 0 18.5S1.758 9.29 5.273 5.773zm18.704 7.454c.421 0 .773.164 1.054.492.328.281.516.61.563.984v7.594c0 .281-.07.539-.211.773-.14.235-.328.422-.563.563-.234.094-.492.14-.773.14H12.023a1.43 1.43 0 01-1.054-.421 1.43 1.43 0 01-.422-1.055v-7.594c0-.422.14-.773.422-1.055a1.43 1.43 0 011.054-.421h11.954zm-7.313 7.101l3.445-1.617-3.445-1.617v3.234z"/></symbol><symbol viewBox="0 0 20 19" id="zoom" xmlns="http://www.w3.org/2000/svg"><path d="M18.594 15.852c.372.372.558.816.558 1.332a1.56 1.56 0 01-.472 1.246c-.315.315-.716.472-1.203.472-.516 0-.974-.186-1.375-.558L9.57 11.812c-.86.459-1.79.688-2.793.688-1.632 0-3.036-.573-4.21-1.719C1.42 9.607.846 8.203.846 6.571c0-1.662.574-3.066 1.72-4.212C3.74 1.185 5.144.598 6.776.598c1.662 0 3.065.587 4.211 1.761 1.175 1.146 1.762 2.536 1.762 4.168 0 1.003-.23 1.934-.688 2.793l6.532 6.532zM3.21 3.004c-.973.974-1.46 2.163-1.46 3.566 0 1.375.487 2.564 1.46 3.567 1.004.974 2.192 1.46 3.567 1.46 1.404 0 2.593-.486 3.567-1.46 1.002-1.003 1.504-2.192 1.504-3.567 0-1.403-.502-2.592-1.504-3.566C9.37 2 8.18 1.5 6.777 1.5c-1.375 0-2.563.501-3.566 1.504zM17.434 18a.69.69 0 00.601-.215.693.693 0 00.215-.601 1.13 1.13 0 00-.344-.688l-6.36-6.36a7.41 7.41 0 01-1.16 1.16l6.36 6.36c.2.2.43.315.688.344z"/></symbol></svg>