<svg width="23" height="22" viewBox="0 0 23 22" fill="none" xmlns="http://www.w3.org/2000/svg">
<path d="M14.4688 7.29688L11.5156 1.4375L11.0469 0.5L10.5781 1.4375L7.76562 7.34375L1.20312 8.375L0.21875 8.51562L0.96875 9.21875L5.75 13.7656L4.71875 20.2812L4.53125 21.2656L5.42188 20.7969L11.2344 17.6562L17.1406 20.7031L18.0312 21.1719L17.8438 20.1406L16.625 13.6719L21.3125 8.98438L22.0156 8.28125L21.0312 8.14062L14.4688 7.29688ZM14.0938 8.23438L19.8594 9.03125L15.7344 13.1562L15.5469 13.3438L15.5938 13.5781L16.6719 19.3438L11.4688 16.6719L11.2344 16.5312L11 16.6719L5.84375 19.4375L6.78125 13.6719L6.82812 13.4375L6.64062 13.25L2.375 9.17188L8.1875 8.28125L8.42188 8.23438L8.5625 8L11.0469 2.79688L13.7188 7.95312L13.8125 8.23438H14.0938Z" fill="black"/>
</svg>
