<svg width="31" height="18" viewBox="0 0 31 18" fill="none" xmlns="http://www.w3.org/2000/svg">
<path d="M12.045 12.5687C10.6608 12.5687 9.54219 13.736 9.54219 15.1754C9.54219 16.6105 10.6608 17.778 12.045 17.778C13.4292 17.778 14.5478 16.6105 14.5478 15.1754C14.5478 13.736 13.4292 12.5687 12.045 12.5687ZM12.045 16.4767C11.3529 16.4767 10.7935 15.8908 10.7935 15.1753C10.7935 14.4557 11.3529 13.874 12.045 13.874C12.7371 13.874 13.2964 14.4557 13.2964 15.1753C13.2964 15.8908 12.7371 16.4767 12.045 16.4767ZM30.9215 10.6432V13.4222C30.9215 14.1154 30.3811 14.6774 29.7144 14.6774H28.4227C28.1893 13.0121 26.8092 11.7318 25.1433 11.7318C23.4815 11.7318 22.1013 13.0121 21.8679 14.6774H15.3212C15.0878 13.0121 13.7076 11.7318 12.0458 11.7318C10.384 11.7318 9.00378 13.0121 8.77044 14.6774H7.15286C6.48616 14.6774 5.94574 14.1155 5.94574 13.4222V10.6432H30.9215ZM25.1465 12.5687C23.7624 12.5687 22.6397 13.736 22.6397 15.1754C22.6397 16.6105 23.7624 17.778 25.1465 17.778C26.5267 17.778 27.6493 16.6105 27.6493 15.1754C27.6493 13.736 26.5267 12.5687 25.1465 12.5687ZM25.1465 16.4767C24.4544 16.4767 23.8951 15.8908 23.8951 15.1753C23.8951 14.4557 24.4544 13.874 25.1465 13.874C25.8346 13.874 26.398 14.4557 26.398 15.1753C26.398 15.8908 25.8346 16.4767 25.1465 16.4767ZM30.4459 7.84469L25.7019 2.96592C25.4001 2.65628 24.9937 2.48055 24.5711 2.48055H22.177V1.54745C22.177 0.852919 21.6378 0.292236 20.9699 0.292236H7.15202C6.48807 0.292236 5.94491 0.85297 5.94491 1.54745V1.74413L1.04629 2.33121L9.72643 3.50658L0.933594 4.41486L9.69546 5.71023L0.933594 6.5002L5.94521 7.48308L5.94486 9.94934H30.9207V9.03295C30.9207 8.58523 30.7477 8.1585 30.4459 7.84469ZM28.3776 8.00784H23.7865C23.6819 8.00784 23.5974 7.91999 23.5974 7.81121V4.12494C23.5974 4.01616 23.6819 3.92826 23.7865 3.92826H24.6597C24.708 3.92826 24.7563 3.94921 24.7925 3.98268L28.5065 7.66895C28.6311 7.79027 28.5466 8.00784 28.3776 8.00784Z" fill="white"/>
</svg>
