<svg width="21" height="18" viewBox="0 0 21 18" fill="none" xmlns="http://www.w3.org/2000/svg">
<path d="M19.1562 0.703125L20.9375 0.9375L20.7031 1.92188L18.7812 1.54688C18.5625 1.54688 18.4062 1.59375 18.3125 1.6875C18.3125 1.71875 18.2969 1.76563 18.2656 1.82812C18.2344 1.85938 18.2188 1.89062 18.2188 1.92188L14.8438 13.6875C15.4375 13.9062 15.7969 14.3438 15.9219 15C16.0469 15.5312 15.9688 16.0312 15.6875 16.5C15.4062 16.9688 15 17.2656 14.4688 17.3906C13.9375 17.5156 13.4375 17.4531 12.9688 17.2031C12.5 16.9219 12.2031 16.5 12.0781 15.9375H6.92188C6.67188 16.6875 6.1875 17.1719 5.46875 17.3906C5.125 17.4844 4.78125 17.4844 4.4375 17.3906C4.09375 17.2969 3.79688 17.125 3.54688 16.875C3.32812 16.625 3.17188 16.3125 3.07812 15.9375C2.95312 15.4062 3.03125 14.9062 3.3125 14.4375C3.59375 13.9688 4 13.6719 4.53125 13.5469C5.0625 13.4219 5.5625 13.5 6.03125 13.7812C6.5 14.0625 6.79688 14.4688 6.92188 15H11.9375C12.0625 14.5625 12.2969 14.2188 12.6406 13.9688C12.9844 13.6875 13.3594 13.5469 13.7656 13.5469L14.1406 12.4688H4.29688C3.92188 12.4688 3.57812 12.3594 3.26562 12.1406C2.95312 11.9219 2.73438 11.6406 2.60938 11.2969L1.0625 5.53125C0.9375 5.0625 1.01562 4.625 1.29688 4.21875C1.70312 3.65625 2.17188 3.45312 2.70312 3.60938H16.7656L17.2344 1.78125C17.3906 1.375 17.5938 1.09375 17.8438 0.9375C18.25 0.6875 18.6875 0.609375 19.1562 0.703125ZM4.29688 16.2656C4.48438 16.4531 4.71875 16.5469 5 16.5469C5.28125 16.5469 5.5 16.4531 5.65625 16.2656C5.84375 16.0781 5.9375 15.8594 5.9375 15.6094C5.9375 15.3594 5.84375 15.1406 5.65625 14.9531C5.46875 14.7344 5.25 14.625 5 14.625C4.75 14.625 4.53125 14.7188 4.34375 14.9062C4.15625 15.0938 4.0625 15.3281 4.0625 15.6094C4.0625 15.8594 4.14062 16.0781 4.29688 16.2656ZM4.29688 11.5312H14.4688L16.5312 4.54688H2.70312C2.45312 4.42188 2.26562 4.5 2.14062 4.78125C2.04688 4.875 2 5.04688 2 5.29688L3.54688 11.0625C3.70312 11.375 3.95312 11.5312 4.29688 11.5312ZM14 16.5469C14.2812 16.5469 14.5 16.4531 14.6562 16.2656C14.8438 16.0781 14.9375 15.8594 14.9375 15.6094C14.9375 15.3594 14.8438 15.1406 14.6562 14.9531C14.4688 14.7344 14.25 14.625 14 14.625C13.75 14.625 13.5312 14.7188 13.3438 14.9062C13.1562 15.0938 13.0625 15.3281 13.0625 15.6094C13.0625 15.7656 13.0938 15.9219 13.1562 16.0781C13.2188 16.2031 13.3281 16.3125 13.4844 16.4062C13.6406 16.5 13.8125 16.5469 14 16.5469Z" fill="black"/>
</svg>
