<svg width="41" height="35" viewBox="0 0 41 35" fill="none" xmlns="http://www.w3.org/2000/svg">
<path d="M37.3125 0.40625L40.875 0.875L40.4062 2.84375L36.5625 2.09375C36.125 2.09375 35.8125 2.1875 35.625 2.375C35.625 2.4375 35.5938 2.53125 35.5312 2.65625C35.4688 2.71875 35.4375 2.78125 35.4375 2.84375L28.6875 26.375C29.875 26.8125 30.5938 27.6875 30.8438 29C31.0938 30.0625 30.9375 31.0625 30.375 32C29.8125 32.9375 29 33.5312 27.9375 33.7812C26.875 34.0312 25.875 33.9062 24.9375 33.4062C24 32.8438 23.4062 32 23.1562 30.875H12.8438C12.3438 32.375 11.375 33.3438 9.9375 33.7812C9.25 33.9688 8.5625 33.9688 7.875 33.7812C7.1875 33.5938 6.59375 33.25 6.09375 32.75C5.65625 32.25 5.34375 31.625 5.15625 30.875C4.90625 29.8125 5.0625 28.8125 5.625 27.875C6.1875 26.9375 7 26.3438 8.0625 26.0938C9.125 25.8438 10.125 26 11.0625 26.5625C12 27.125 12.5938 27.9375 12.8438 29H22.875C23.125 28.125 23.5938 27.4375 24.2812 26.9375C24.9688 26.375 25.7188 26.0938 26.5312 26.0938L27.2812 23.9375H7.59375C6.84375 23.9375 6.15625 23.7188 5.53125 23.2812C4.90625 22.8438 4.46875 22.2812 4.21875 21.5938L1.125 10.0625C0.875 9.125 1.03125 8.25 1.59375 7.4375C2.40625 6.3125 3.34375 5.90625 4.40625 6.21875H32.5312L33.4688 2.5625C33.7812 1.75 34.1875 1.1875 34.6875 0.875C35.5 0.375 36.375 0.21875 37.3125 0.40625ZM7.59375 31.5312C7.96875 31.9062 8.4375 32.0938 9 32.0938C9.5625 32.0938 10 31.9062 10.3125 31.5312C10.6875 31.1562 10.875 30.7188 10.875 30.2188C10.875 29.7188 10.6875 29.2812 10.3125 28.9062C9.9375 28.4688 9.5 28.25 9 28.25C8.5 28.25 8.0625 28.4375 7.6875 28.8125C7.3125 29.1875 7.125 29.6562 7.125 30.2188C7.125 30.7188 7.28125 31.1562 7.59375 31.5312ZM7.59375 22.0625H27.9375L32.0625 8.09375H4.40625C3.90625 7.84375 3.53125 8 3.28125 8.5625C3.09375 8.75 3 9.09375 3 9.59375L6.09375 21.125C6.40625 21.75 6.90625 22.0625 7.59375 22.0625ZM27 32.0938C27.5625 32.0938 28 31.9062 28.3125 31.5312C28.6875 31.1562 28.875 30.7188 28.875 30.2188C28.875 29.7188 28.6875 29.2812 28.3125 28.9062C27.9375 28.4688 27.5 28.25 27 28.25C26.5 28.25 26.0625 28.4375 25.6875 28.8125C25.3125 29.1875 25.125 29.6562 25.125 30.2188C25.125 30.5312 25.1875 30.8438 25.3125 31.1562C25.4375 31.4062 25.6562 31.625 25.9688 31.8125C26.2812 32 26.625 32.0938 27 32.0938Z" fill="white"/>
</svg>
