<svg width="24" height="24" viewBox="0 0 24 24" fill="none" xmlns="http://www.w3.org/2000/svg">
<path d="M17.0625 6.6H15.375C15.375 4.611 13.8647 3 12 3C10.1353 3 8.625 4.611 8.625 6.6H6.9375C6.00937 6.6 5.25 7.41 5.25 8.4V19.2C5.25 20.19 6.00937 21 6.9375 21H17.0625C17.9906 21 18.75 20.19 18.75 19.2V8.4C18.75 7.41 17.9906 6.6 17.0625 6.6ZM10.3125 10.2C10.3125 10.695 9.93281 11.1 9.46875 11.1C9.00469 11.1 8.625 10.695 8.625 10.2V8.4H10.3125V10.2ZM12 4.8C12.9281 4.8 13.6875 5.61 13.6875 6.6H10.3125C10.3125 5.61 11.0719 4.8 12 4.8ZM15.375 10.2C15.375 10.695 14.9953 11.1 14.5312 11.1C14.0672 11.1 13.6875 10.695 13.6875 10.2V8.4H15.375V10.2Z" fill="white"/>
</svg>
