<svg width="40" height="40" viewBox="0 0 40 40" fill="none" xmlns="http://www.w3.org/2000/svg">
<path d="M5.84375 5.9375C9.78125 2 14.5 0.03125 20 0.03125C25.5 0.03125 30.1875 2 34.0625 5.9375C38 9.8125 39.9688 14.5 39.9688 20C39.9688 23.625 39.0625 26.9688 37.25 30.0312C35.5 33.0938 33.0938 35.5312 30.0312 37.3438C26.9688 39.0938 23.625 39.9688 20 39.9688C16.375 39.9688 13.0312 39.0938 9.96875 37.3438C6.90625 35.5312 4.46875 33.0938 2.65625 30.0312C0.90625 26.9688 0.03125 23.625 0.03125 20C0.03125 14.5 1.96875 9.8125 5.84375 5.9375ZM8.65625 31.3438C11.7812 34.4688 15.5625 36.0312 20 36.0312C24.4375 36.0312 28.2188 34.4688 31.3438 31.3438C34.4688 28.2188 36.0312 24.4375 36.0312 20C36.0312 15.5625 34.4688 11.7812 31.3438 8.65625C28.2188 5.53125 24.4375 3.96875 20 3.96875C15.5625 3.96875 11.7812 5.53125 8.65625 8.65625C5.53125 11.7812 3.96875 15.5625 3.96875 20C3.96875 24.4375 5.53125 28.2188 8.65625 31.3438ZM21.0312 9.96875V20.4688L30.0312 25.8125L28.5312 28.3438L18.0312 21.9688V9.96875H21.0312Z" fill="#F7F7F7"/>
</svg>
