<svg width="24" height="24" viewBox="0 0 24 24" fill="none" xmlns="http://www.w3.org/2000/svg">
<path d="M4.61328 7.28333H6.25495H19.3883" stroke="#949494" stroke-width="1.64167" stroke-linecap="round" stroke-linejoin="round"/>
<path d="M8.71836 7.28333V5.64167C8.71836 5.20627 8.89132 4.78871 9.19919 4.48083C9.50706 4.17296 9.92463 4 10.36 4H13.6434C14.0788 4 14.4963 4.17296 14.8042 4.48083C15.1121 4.78871 15.285 5.20627 15.285 5.64167V7.28333M17.7475 7.28333V18.775C17.7475 19.2104 17.5746 19.628 17.2667 19.9358C16.9588 20.2437 16.5413 20.4167 16.1059 20.4167H7.89753C7.46213 20.4167 7.04456 20.2437 6.73669 19.9358C6.42882 19.628 6.25586 19.2104 6.25586 18.775V7.28333H17.7475Z" stroke="#949494" stroke-width="1.64167" stroke-linecap="round" stroke-linejoin="round"/>
<path d="M10.3594 11.3875V16.3125" stroke="#949494" stroke-width="1.64167" stroke-linecap="round" stroke-linejoin="round"/>
<path d="M13.6426 11.3875V16.3125" stroke="#949494" stroke-width="1.64167" stroke-linecap="round" stroke-linejoin="round"/>
</svg>
