<svg width="19" height="12" viewBox="0 0 19 12" fill="none" xmlns="http://www.w3.org/2000/svg">
<path d="M18 8.03503V8.53503H18.5V8.03503H18ZM0.646447 7.68148C0.451184 7.87674 0.451184 8.19333 0.646447 8.38859L3.82843 11.5706C4.02369 11.7658 4.34027 11.7658 4.53553 11.5706C4.7308 11.3753 4.7308 11.0587 4.53553 10.8635L1.70711 8.03503L4.53553 5.20661C4.7308 5.01134 4.7308 4.69476 4.53553 4.4995C4.34027 4.30424 4.02369 4.30424 3.82843 4.4995L0.646447 7.68148ZM17.5 0.0350342V8.03503H18.5V0.0350342H17.5ZM18 7.53503H1V8.53503H18V7.53503Z" fill="#067147"/>
</svg>
