<svg width="16" height="16" viewBox="0 0 16 16" fill="none" xmlns="http://www.w3.org/2000/svg">
<path d="M4.5 6.28125C4.79167 6.67708 4.9375 7.125 4.9375 7.625C4.9375 8.10417 4.79167 8.54167 4.5 8.9375C4.22917 9.33333 3.875 9.61458 3.4375 9.78125V14.4688C3.4375 14.6771 3.35417 14.8542 3.1875 15C3.04167 15.1667 2.86458 15.25 2.65625 15.25C2.44792 15.25 2.27083 15.1667 2.125 15C1.97917 14.8542 1.90625 14.6771 1.90625 14.4688V9.78125C1.61458 9.67708 1.35417 9.52083 1.125 9.3125C0.895833 9.10417 0.708333 8.85417 0.5625 8.5625C0.4375 8.25 0.375 7.9375 0.375 7.625C0.375 7.29167 0.4375 6.97917 0.5625 6.6875C0.708333 6.39583 0.895833 6.14583 1.125 5.9375C1.35417 5.72917 1.61458 5.57292 1.90625 5.46875V0.75C1.90625 0.541667 1.97917 0.364583 2.125 0.21875C2.27083 0.0729167 2.44792 0 2.65625 0C2.86458 0 3.04167 0.0729167 3.1875 0.21875C3.35417 0.364583 3.4375 0.541667 3.4375 0.75V5.46875C3.875 5.61458 4.22917 5.88542 4.5 6.28125ZM3.1875 8.15625C3.35417 8.01042 3.4375 7.83333 3.4375 7.625C3.4375 7.41667 3.35417 7.23958 3.1875 7.09375C3.04167 6.92708 2.86458 6.84375 2.65625 6.84375C2.44792 6.84375 2.27083 6.92708 2.125 7.09375C1.97917 7.23958 1.90625 7.41667 1.90625 7.625C1.90625 7.83333 1.97917 8.01042 2.125 8.15625C2.27083 8.30208 2.44792 8.375 2.65625 8.375C2.86458 8.375 3.04167 8.30208 3.1875 8.15625ZM10.2812 12.9375C10.2812 13.5833 10.0521 14.125 9.59375 14.5625C9.15625 15.0208 8.625 15.25 8 15.25C7.375 15.25 6.83333 15.0208 6.375 14.5625C5.9375 14.125 5.71875 13.5833 5.71875 12.9375C5.71875 12.625 5.78125 12.3229 5.90625 12.0312C6.03125 11.7396 6.20833 11.4896 6.4375 11.2812C6.66667 11.0729 6.9375 10.9167 7.25 10.8125V0.75C7.25 0.541667 7.32292 0.364583 7.46875 0.21875C7.61458 0.0729167 7.79167 0 8 0C8.20833 0 8.38542 0.0729167 8.53125 0.21875C8.67708 0.364583 8.75 0.541667 8.75 0.75V10.7812C9.20833 10.9479 9.57292 11.2292 9.84375 11.625C10.1354 12.0208 10.2812 12.4583 10.2812 12.9375ZM8.53125 13.5C8.67708 13.3542 8.75 13.1771 8.75 12.9688C8.75 12.7396 8.67708 12.5521 8.53125 12.4062C8.38542 12.2604 8.20833 12.1875 8 12.1875C7.79167 12.1875 7.61458 12.2604 7.46875 12.4062C7.32292 12.5521 7.25 12.7396 7.25 12.9688C7.25 13.1771 7.32292 13.3542 7.46875 13.5C7.61458 13.6458 7.79167 13.7188 8 13.7188C8.20833 13.7188 8.38542 13.6458 8.53125 13.5ZM15.625 2.28125C15.625 2.78125 15.4792 3.22917 15.1875 3.625C14.8958 4.02083 14.5312 4.29167 14.0938 4.4375C14.0938 4.47917 14.0938 4.52083 14.0938 4.5625V14.4688C14.0938 14.6771 14.0208 14.8542 13.875 15C13.7292 15.1667 13.5521 15.25 13.3438 15.25C13.1354 15.25 12.9479 15.1667 12.7812 15C12.6354 14.8542 12.5625 14.6771 12.5625 14.4688V4.5625C12.5625 4.52083 12.5729 4.47917 12.5938 4.4375C12.1354 4.29167 11.7604 4.02083 11.4688 3.625C11.1979 3.22917 11.0625 2.78125 11.0625 2.28125C11.0625 1.65625 11.2812 1.125 11.7188 0.6875C12.1562 0.229167 12.6875 0 13.3125 0C13.9583 0 14.5 0.229167 14.9375 0.6875C15.3958 1.125 15.625 1.65625 15.625 2.28125ZM13.875 2.84375C14.0208 2.67708 14.0938 2.48958 14.0938 2.28125C14.0938 2.07292 14.0208 1.89583 13.875 1.75C13.7292 1.60417 13.5521 1.53125 13.3438 1.53125C13.1979 1.53125 13.0625 1.5625 12.9375 1.625C12.8333 1.6875 12.7396 1.78125 12.6562 1.90625C12.5938 2.03125 12.5625 2.15625 12.5625 2.28125C12.5625 2.48958 12.6354 2.67708 12.7812 2.84375C12.9479 2.98958 13.1354 3.0625 13.3438 3.0625C13.5521 3.0625 13.7292 2.98958 13.875 2.84375Z" fill="#00639A"/>
</svg>
