<svg width="18" height="17" viewBox="0 0 18 17" fill="none" xmlns="http://www.w3.org/2000/svg">
<path d="M8.60229 3.53274L9 4.05472L9.39771 3.53274C9.71699 3.1137 10.2655 2.4689 10.9624 1.93298C11.6636 1.39382 12.4689 0.999969 13.3125 0.999969C15.5654 0.999969 17.5 3.09326 17.5 5.79686C17.5 7.01729 17.0947 8.17388 16.3672 9.06471L16.3357 9.10329L16.3218 9.12967L16.3168 9.13524C16.2651 9.19242 16.2184 9.23791 16.1634 9.28977L16.1634 9.28973L16.1584 9.29462L16.0844 9.36641L16.0844 9.36637L16.0791 9.3716L8.99994 16.4483L2.16354 9.62596L2.13401 9.5749L2.07762 9.52313C1.08015 8.60748 0.5 7.25915 0.5 5.79686C0.5 3.09326 2.43464 0.999969 4.68749 0.999969C5.53112 0.999969 6.33644 1.39382 7.0376 1.93298C7.73453 2.4689 8.28301 3.1137 8.60229 3.53274Z" stroke="white"/>
</svg>
