<svg width="22" height="22" viewBox="0 0 22 22" fill="none" xmlns="http://www.w3.org/2000/svg">
<path d="M21.9996 10.0351C22.3984 9.60262 22.4459 9.41988 21.9996 9.03508L11.9996 0.0350778C11.5533 -0.349719 10.4365 -0.359831 9.99962 0.0350778L-0.000384778 9.03508C-0.437267 9.42999 -0.411235 10.614 -0.000384778 11.0351H0.999615C1.40996 11.4561 1.59271 11.3946 1.99962 11.0351L2.99962 10.0351V20.0351C2.99962 20.6198 3.40697 21.0351 3.99962 21.0351H7.99962C8.59226 21.0351 8.99962 20.6198 8.99962 20.0351V13.0351H13.9996V20.0351C13.9911 20.6194 14.407 21.0351 14.9996 21.0351H18.9996C19.5923 21.0351 19.9996 20.6198 19.9996 20.0351V11.0351C19.9996 11.0351 19.7484 10.8174 19.9996 11.0351C20.2504 11.2524 20.6008 11.468 20.9996 11.0351L21.9996 10.0351Z" fill="#067147"/>
</svg>
