<svg width="12" height="18" viewBox="0 0 12 18" fill="none" xmlns="http://www.w3.org/2000/svg">
<path d="M6.46875 1.11719C7.53646 1.22135 8.44792 1.65104 9.20312 2.40625C9.95833 3.13542 10.401 3.99479 10.5312 4.98438C10.6615 5.97396 10.5052 6.98958 10.0625 8.03125L6 15.4531L2.01562 7.99219C1.59896 7.28906 1.40365 6.54688 1.42969 5.76562C1.48177 4.95833 1.66406 4.22917 1.97656 3.57812C2.28906 2.92708 2.77083 2.38021 3.42188 1.9375C4.07292 1.46875 4.80208 1.19531 5.60938 1.11719H6.03906H6.46875ZM5.64844 16.5469L6 17.2109L6.35156 16.5469L10.7656 8.42188C11.2604 7.5625 11.4818 6.67708 11.4297 5.76562C11.3776 4.82812 11.1693 3.96875 10.8047 3.1875C10.4401 2.40625 9.86719 1.75521 9.08594 1.23438C8.33073 0.6875 7.48438 0.375 6.54688 0.296875H6.50781H6.03906H5.57031H5.53125C4.59375 0.375 3.73438 0.6875 2.95312 1.23438C2.19792 1.75521 1.625 2.40625 1.23438 3.1875C0.869792 3.96875 0.661458 4.82812 0.609375 5.76562C0.583333 6.67708 0.817708 7.5625 1.3125 8.42188L5.64844 16.5469ZM4.82812 6.42969C4.51562 6.11719 4.35938 5.73958 4.35938 5.29688C4.35938 4.85417 4.51562 4.47656 4.82812 4.16406C5.16667 3.82552 5.55729 3.65625 6 3.65625C6.44271 3.65625 6.82031 3.82552 7.13281 4.16406C7.47135 4.47656 7.64062 4.85417 7.64062 5.29688C7.64062 5.73958 7.47135 6.11719 7.13281 6.42969C6.82031 6.74219 6.44271 6.89844 6 6.89844C5.55729 6.89844 5.16667 6.74219 4.82812 6.42969ZM4.24219 3.57812C3.77344 4.04688 3.53906 4.61979 3.53906 5.29688C3.53906 5.97396 3.77344 6.5599 4.24219 7.05469C4.73698 7.52344 5.32292 7.75781 6 7.75781C6.67708 7.75781 7.25 7.52344 7.71875 7.05469C8.21354 6.5599 8.46094 5.97396 8.46094 5.29688C8.46094 4.61979 8.21354 4.04688 7.71875 3.57812C7.25 3.08333 6.67708 2.83594 6 2.83594C5.32292 2.83594 4.73698 3.08333 4.24219 3.57812Z" fill="black"/>
</svg>
