<svg width="24" height="24" viewBox="0 0 24 24" fill="none" xmlns="http://www.w3.org/2000/svg">
<path d="M12 3C8.68286 3 6 5.817 6 9.3C6 10.866 6.42857 12.333 7.20857 13.656C8.02286 15.042 9.09429 16.23 9.91714 17.616C10.32 18.291 10.6114 18.921 10.92 19.65C11.1429 20.145 11.3229 21 12 21C12.6771 21 12.8571 20.145 13.0714 19.65C13.3886 18.921 13.6714 18.291 14.0743 17.616C14.8971 16.239 15.9686 15.051 16.7829 13.656C17.5714 12.333 18 10.866 18 9.3C18 5.817 15.3171 3 12 3ZM12 11.775C10.8171 11.775 9.85714 10.767 9.85714 9.525C9.85714 8.283 10.8171 7.275 12 7.275C13.1829 7.275 14.1429 8.283 14.1429 9.525C14.1429 10.767 13.1829 11.775 12 11.775Z" fill="#D2D2D2"/>
</svg>
