<svg width="40" height="40" viewBox="0 0 40 40" fill="none" xmlns="http://www.w3.org/2000/svg">
<path d="M15.9688 23C14.9688 21.9375 14.4688 20.6875 14.4688 19.25C14.4688 17.75 14.9688 16.5 15.9688 15.5C17.0312 14.4375 18.2812 13.9062 19.7188 13.9062C21.2188 13.9062 22.4688 14.4375 23.4688 15.5C24.5312 16.5 25.0625 17.75 25.0625 19.25C25.0625 20.6875 24.5312 21.9375 23.4688 23C22.4688 24 21.2188 24.5 19.7188 24.5C18.2812 24.5 17.0312 24 15.9688 23ZM14.6562 14.0938C13.2188 15.4688 12.5 17.1875 12.5 19.25C12.5 21.25 13.2188 22.9688 14.6562 24.4062C16.0938 25.7812 17.8125 26.4688 19.8125 26.4688C21.8125 26.4688 23.5312 25.7812 24.9688 24.4062C26.4062 22.9688 27.125 21.25 27.125 19.25C27.125 17.1875 26.4062 15.4688 24.9688 14.0938C23.5312 12.6562 21.8125 11.9375 19.8125 11.9375C17.8125 11.9375 16.0938 12.6562 14.6562 14.0938ZM29.6562 36.0312H30.6875C30.6875 32.6562 29.625 30 27.5 28.0625C25.4375 26.0625 22.8438 25.0625 19.7188 25.0625C16.6562 25.0625 14.0938 26.0625 12.0312 28.0625C9.96875 30 8.9375 32.6562 8.9375 36.0312H9.875H10.9062C10.9062 33.2188 11.7188 31.0312 13.3438 29.4688C15.0312 27.9062 17.1875 27.125 19.8125 27.125C21.0625 27.125 22.2188 27.3125 23.2812 27.6875C24.4062 28.0625 25.3438 28.625 26.0938 29.375C26.9062 30.125 27.5312 31.0625 27.9688 32.1875C28.4688 33.3125 28.7188 34.5938 28.7188 36.0312H29.6562ZM32.6562 7.34375C29.1562 3.78125 24.9375 2 20 2C15.0625 2 10.8125 3.78125 7.25 7.34375C3.75 10.8438 2 15.0625 2 20C2 24.9375 3.75 29.1875 7.25 32.75C10.8125 36.25 15.0625 38 20 38C24.9375 38 29.1562 36.25 32.6562 32.75C36.2188 29.1875 38 24.9375 38 20C38 15.0625 36.2188 10.8438 32.6562 7.34375ZM5.84375 5.9375C9.78125 2 14.5 0.03125 20 0.03125C25.5 0.03125 30.1875 2 34.0625 5.9375C38 9.8125 39.9688 14.5 39.9688 20C39.9688 25.5 38 30.2188 34.0625 34.1562C30.1875 38.0312 25.5 39.9688 20 39.9688C14.5 39.9688 9.78125 38.0312 5.84375 34.1562C1.96875 30.2188 0.03125 25.5 0.03125 20C0.03125 14.5 1.96875 9.8125 5.84375 5.9375Z" fill="white"/>
</svg>
