<svg width="14" height="14" viewBox="0 0 14 14" fill="none" xmlns="http://www.w3.org/2000/svg">
<path d="M1 7C1 8.64583 1.58333 10.0625 2.75 11.25C3.9375 12.4167 5.35417 13 7 13C8.64583 13 10.0521 12.4167 11.2188 11.25C12.4062 10.0625 13 8.64583 13 7C13 5.35417 12.4062 3.94792 11.2188 2.78125C10.0521 1.59375 8.64583 1 7 1C5.16667 1 3.64583 1.78125 2.4375 3.34375H5V4H1.34375V0.34375H2V2.8125C3.29167 1.16667 4.95833 0.34375 7 0.34375C8.83333 0.34375 10.3958 1 11.6875 2.3125C13 3.60417 13.6562 5.16667 13.6562 7C13.6562 8.83333 13 10.4062 11.6875 11.7188C10.3958 13.0104 8.83333 13.6562 7 13.6562C5.16667 13.6562 3.59375 13.0104 2.28125 11.7188C0.989583 10.4062 0.34375 8.83333 0.34375 7H1Z" fill="#00639A"/>
</svg>
