<svg width="36" height="37" viewBox="0 0 36 37" fill="none" xmlns="http://www.w3.org/2000/svg">
<path d="M30.0234 6.47656C26.6953 3.10156 22.6875 1.41406 18 1.41406C13.3125 1.41406 9.28125 3.10156 5.90625 6.47656C2.57813 9.80469 0.914062 13.8125 0.914062 18.5C0.914062 23.1875 2.57813 27.2188 5.90625 30.5938C9.28125 33.9219 13.3125 35.5859 18 35.5859C22.6875 35.5859 26.6953 33.9219 30.0234 30.5938C33.3984 27.2188 35.0859 23.1875 35.0859 18.5C35.0859 13.8125 33.3984 9.80469 30.0234 6.47656ZM5.27344 5.77344C8.78906 2.25781 13.0312 0.5 18 0.5C22.9688 0.5 27.2109 2.25781 30.7266 5.77344C34.2422 9.28906 36 13.5312 36 18.5C36 23.4688 34.2422 27.7109 30.7266 31.2266C27.2109 34.7422 22.9688 36.5 18 36.5C13.0312 36.5 8.78906 34.7422 5.27344 31.2266C1.75781 27.7109 0 23.4688 0 18.5C0 13.5312 1.75781 9.28906 5.27344 5.77344ZM12.0234 16.8125C11.5547 16.3438 10.9922 16.1094 10.3359 16.1094C9.67969 16.1094 9.11719 16.3438 8.64844 16.8125C8.17969 17.2812 7.94531 17.8438 7.94531 18.5C7.94531 19.1562 8.17969 19.7188 8.64844 20.1875C9.11719 20.6562 9.67969 20.8906 10.3359 20.8906C10.9922 20.8906 11.5547 20.6562 12.0234 20.1875C12.4922 19.7188 12.7266 19.1562 12.7266 18.5C12.7266 17.8438 12.4922 17.2812 12.0234 16.8125ZM8.01562 16.1797C8.67188 15.5234 9.44531 15.1953 10.3359 15.1953C11.2266 15.1953 12 15.5234 12.6562 16.1797C13.3125 16.8359 13.6406 17.6094 13.6406 18.5C13.6406 19.3906 13.3125 20.1641 12.6562 20.8203C12 21.4766 11.2266 21.8047 10.3359 21.8047C9.44531 21.8047 8.67188 21.4766 8.01562 20.8203C7.35938 20.1641 7.03125 19.3906 7.03125 18.5C7.03125 17.6094 7.35938 16.8359 8.01562 16.1797ZM24.1875 10.6953C23.7656 10.2266 23.2266 9.99219 22.5703 9.99219C21.9141 9.99219 21.3516 10.2266 20.8828 10.6953C20.4141 11.1172 20.1797 11.6797 20.1797 12.3828C20.1797 13.0391 20.4141 13.6016 20.8828 14.0703C21.3516 14.4922 21.9141 14.7031 22.5703 14.7031C23.2266 14.7031 23.7656 14.4922 24.1875 14.0703C24.6562 13.6016 24.8906 13.0391 24.8906 12.3828C24.8906 11.6797 24.6562 11.1172 24.1875 10.6953ZM22.5703 9.00781C23.5078 9.00781 24.2812 9.33594 24.8906 9.99219C25.5469 10.6484 25.875 11.4219 25.875 12.3125C25.875 13.25 25.5469 14.0469 24.8906 14.7031C24.2344 15.3594 23.4375 15.6875 22.5 15.6875C21.6094 15.6875 20.8359 15.3594 20.1797 14.7031C19.5703 14.0469 19.2656 13.2734 19.2656 12.3828C19.2656 11.4453 19.5703 10.6484 20.1797 9.99219C20.8359 9.33594 21.6328 9.00781 22.5703 9.00781ZM24.1875 23C23.7656 22.5312 23.2266 22.2969 22.5703 22.2969C21.9141 22.2969 21.3516 22.5312 20.8828 23C20.4141 23.4219 20.1797 23.9844 20.1797 24.6875C20.1797 25.3438 20.4141 25.9062 20.8828 26.375C21.3516 26.7969 21.9141 27.0078 22.5703 27.0078C23.2266 27.0078 23.7656 26.7969 24.1875 26.375C24.6562 25.9062 24.8906 25.3438 24.8906 24.6875C24.8906 23.9844 24.6562 23.4219 24.1875 23ZM22.5703 21.3125C23.1797 21.3125 23.7422 21.4766 24.2578 21.8047C24.7734 22.0859 25.1719 22.4844 25.4531 23C25.7344 23.5156 25.875 24.0781 25.875 24.6875C25.875 25.5781 25.5469 26.3516 24.8906 27.0078C24.2344 27.6641 23.4375 27.9922 22.5 27.9922C21.6094 27.9922 20.8359 27.6641 20.1797 27.0078C19.5703 26.3516 19.2656 25.5781 19.2656 24.6875C19.2656 23.75 19.5703 22.9531 20.1797 22.2969C20.8359 21.6406 21.6328 21.3125 22.5703 21.3125ZM19.8281 23.6328L20.0391 23.2109L12.7969 19.6953L12.5859 20.1172L12.375 20.5391L19.6172 24.0547L19.8281 23.6328ZM19.8281 23.6328L20.0391 23.2109L12.7969 19.6953L12.5859 20.1172L12.375 20.5391L19.6172 24.0547L19.8281 23.6328ZM19.8281 23.6328L12.5859 20.1172L19.8281 23.6328Z" fill="black"/>
</svg>
