<svg width="24" height="24" viewBox="0 0 24 24" fill="none" xmlns="http://www.w3.org/2000/svg">
<path d="M16.25 9.33301C17.5617 9.33301 18.625 8.26968 18.625 6.95801C18.625 5.64633 17.5617 4.58301 16.25 4.58301C14.9383 4.58301 13.875 5.64633 13.875 6.95801C13.875 8.26968 14.9383 9.33301 16.25 9.33301Z" stroke="#1F839F" stroke-width="1.58333" stroke-linecap="round" stroke-linejoin="round"/>
<path d="M6.75 14.875C8.06168 14.875 9.125 13.8117 9.125 12.5C9.125 11.1883 8.06168 10.125 6.75 10.125C5.43832 10.125 4.375 11.1883 4.375 12.5C4.375 13.8117 5.43832 14.875 6.75 14.875Z" stroke="#1F839F" stroke-width="1.58333" stroke-linecap="round" stroke-linejoin="round"/>
<path d="M16.25 20.417C17.5617 20.417 18.625 19.3537 18.625 18.042C18.625 16.7303 17.5617 15.667 16.25 15.667C14.9383 15.667 13.875 16.7303 13.875 18.042C13.875 19.3537 14.9383 20.417 16.25 20.417Z" stroke="#1F839F" stroke-width="1.58333" stroke-linecap="round" stroke-linejoin="round"/>
<path d="M8.80029 13.6953L14.2074 16.8461" stroke="#1F839F" stroke-width="1.58333" stroke-linecap="round" stroke-linejoin="round"/>
<path d="M14.1995 8.15332L8.80029 11.3042" stroke="#1F839F" stroke-width="1.58333" stroke-linecap="round" stroke-linejoin="round"/>
</svg>
