<svg width="20" height="20" viewBox="0 0 20 20" fill="none" xmlns="http://www.w3.org/2000/svg">
<path d="M7.98438 11.5C7.48438 10.9688 7.23438 10.3438 7.23438 9.625C7.23438 8.875 7.48438 8.25 7.98438 7.75C8.51562 7.21875 9.14062 6.95312 9.85938 6.95312C10.6094 6.95312 11.2344 7.21875 11.7344 7.75C12.2656 8.25 12.5312 8.875 12.5312 9.625C12.5312 10.3438 12.2656 10.9688 11.7344 11.5C11.2344 12 10.6094 12.25 9.85938 12.25C9.14062 12.25 8.51562 12 7.98438 11.5ZM7.32812 7.04688C6.60938 7.73438 6.25 8.59375 6.25 9.625C6.25 10.625 6.60938 11.4844 7.32812 12.2031C8.04688 12.8906 8.90625 13.2344 9.90625 13.2344C10.9062 13.2344 11.7656 12.8906 12.4844 12.2031C13.2031 11.4844 13.5625 10.625 13.5625 9.625C13.5625 8.59375 13.2031 7.73438 12.4844 7.04688C11.7656 6.32812 10.9062 5.96875 9.90625 5.96875C8.90625 5.96875 8.04688 6.32812 7.32812 7.04688ZM14.8281 18.0156H15.3438C15.3438 16.3281 14.8125 15 13.75 14.0312C12.7188 13.0312 11.4219 12.5312 9.85938 12.5312C8.32812 12.5312 7.04688 13.0312 6.01562 14.0312C4.98438 15 4.46875 16.3281 4.46875 18.0156H4.9375H5.45312C5.45312 16.6094 5.85938 15.5156 6.67188 14.7344C7.51562 13.9531 8.59375 13.5625 9.90625 13.5625C10.5312 13.5625 11.1094 13.6562 11.6406 13.8438C12.2031 14.0312 12.6719 14.3125 13.0469 14.6875C13.4531 15.0625 13.7656 15.5312 13.9844 16.0938C14.2344 16.6562 14.3594 17.2969 14.3594 18.0156H14.8281ZM16.3281 3.67188C14.5781 1.89062 12.4688 1 10 1C7.53125 1 5.40625 1.89062 3.625 3.67188C1.875 5.42188 1 7.53125 1 10C1 12.4688 1.875 14.5938 3.625 16.375C5.40625 18.125 7.53125 19 10 19C12.4688 19 14.5781 18.125 16.3281 16.375C18.1094 14.5938 19 12.4688 19 10C19 7.53125 18.1094 5.42188 16.3281 3.67188ZM2.92188 2.96875C4.89062 1 7.25 0.015625 10 0.015625C12.75 0.015625 15.0938 1 17.0312 2.96875C19 4.90625 19.9844 7.25 19.9844 10C19.9844 12.75 19 15.1094 17.0312 17.0781C15.0938 19.0156 12.75 19.9844 10 19.9844C7.25 19.9844 4.89062 19.0156 2.92188 17.0781C0.984375 15.1094 0.015625 12.75 0.015625 10C0.015625 7.25 0.984375 4.90625 2.92188 2.96875Z" fill="black"/>
</svg>
