<svg width="36" height="36" viewBox="0 0 36 36" fill="none" xmlns="http://www.w3.org/2000/svg">
<path d="M30.3047 30.6367C26.9141 34.0273 22.8125 35.7227 18 35.7227C13.1875 35.7227 9.05859 34.0273 5.61328 30.6367C2.22266 27.1914 0.527344 23.0625 0.527344 18.25C0.527344 13.4375 2.22266 9.33594 5.61328 5.94531C9.05859 2.5 13.1875 0.777344 18 0.777344C22.8125 0.777344 26.9141 2.5 30.3047 5.94531C33.75 9.33594 35.4727 13.4375 35.4727 18.25C35.4727 23.0625 33.75 27.1914 30.3047 30.6367ZM29.0742 7.17578C26.0117 4.05859 22.3203 2.5 18 2.5C13.6797 2.5 9.96094 4.05859 6.84375 7.17578C3.78125 10.2383 2.25 13.9297 2.25 18.25C2.25 22.5703 3.78125 26.2891 6.84375 29.4062C9.96094 32.4688 13.6797 34 18 34C22.3203 34 26.0117 32.4688 29.0742 29.4062C32.1914 26.2891 33.75 22.5703 33.75 18.25C33.75 13.9297 32.1914 10.2383 29.0742 7.17578ZM25.793 17.2656C25.2461 17.9766 24.9453 18.4414 24.8906 18.6602C24.7812 18.9883 24.8359 19.2891 25.0547 19.5625C25.1641 19.6719 25.4375 19.9453 25.875 20.3828L25.957 20.4648C26.9414 21.3945 27.5977 22.1602 27.9258 22.7617C27.9805 22.8164 28.0078 22.8711 28.0078 22.9258C28.0078 22.9805 28.0078 23.0898 28.0078 23.2539C28.0625 23.3633 28.0625 23.4727 28.0078 23.582C28.0078 23.6367 27.9258 23.7188 27.7617 23.8281C27.6523 23.9375 27.4609 23.9922 27.1875 23.9922H24.4805C24.3164 24.0469 24.125 24.0469 23.9062 23.9922C23.6875 23.8828 23.4961 23.8008 23.332 23.7461L23.168 23.582C22.9492 23.418 22.7031 23.1992 22.4297 22.9258C22.1562 22.6523 21.9102 22.3789 21.6914 22.1055C21.4727 21.8867 21.2539 21.6953 21.0352 21.5312C20.8164 21.3125 20.625 21.2305 20.4609 21.2852C20.4062 21.3398 20.3516 21.3672 20.2969 21.3672C20.2969 21.3672 20.2422 21.4219 20.1328 21.5312C20.0781 21.5859 20.0234 21.6953 19.9688 21.8594C19.9141 21.9688 19.8594 22.1602 19.8047 22.4336C19.75 22.6523 19.7227 22.8984 19.7227 23.1719C19.7227 23.2812 19.6953 23.3906 19.6406 23.5C19.6406 23.5547 19.6133 23.6094 19.5586 23.6641V23.7461C19.4492 23.8555 19.2578 23.9375 18.9844 23.9922H17.7539C17.2617 23.9922 16.7422 23.9375 16.1953 23.8281C15.7031 23.6641 15.2656 23.4727 14.8828 23.2539C14.5 23.0352 14.1445 22.7891 13.8164 22.5156C13.4883 22.2969 13.2422 22.1055 13.0781 21.9414L12.75 21.6953C12.6406 21.5859 12.5586 21.4766 12.5039 21.3672C12.3945 21.2031 12.1484 20.875 11.7656 20.3828C11.3281 19.8906 10.9453 19.3711 10.6172 18.8242C10.2344 18.2773 9.79688 17.5391 9.30469 16.6094C8.8125 15.6797 8.375 14.7227 7.99219 13.7383C7.9375 13.6289 7.91016 13.5469 7.91016 13.4922C7.91016 13.3828 7.91016 13.3008 7.91016 13.2461H7.99219C8.10156 13.082 8.29297 13 8.56641 13H11.4375C11.5469 13 11.6289 13.0273 11.6836 13.082C11.793 13.082 11.8477 13.1094 11.8477 13.1641H11.9297C12.0391 13.2734 12.1211 13.3828 12.1758 13.4922C12.3398 13.875 12.5039 14.2578 12.668 14.6406C12.832 14.9688 12.9688 15.2422 13.0781 15.4609L13.2422 15.7891C13.4609 16.2266 13.6523 16.6094 13.8164 16.9375C14.0352 17.2109 14.1992 17.4297 14.3086 17.5938C14.4727 17.7578 14.6094 17.8945 14.7188 18.0039C14.8828 18.1133 15.0195 18.168 15.1289 18.168C15.2383 18.168 15.3477 18.1406 15.457 18.0859C15.5117 18.0312 15.5664 17.9492 15.6211 17.8398C15.6758 17.6758 15.7031 17.5117 15.7031 17.3477C15.7578 17.1289 15.7852 16.8281 15.7852 16.4453C15.8398 16.0625 15.8672 15.625 15.8672 15.1328C15.8672 14.8594 15.8398 14.6133 15.7852 14.3945C15.7305 14.1211 15.6758 13.957 15.6211 13.9023L15.5391 13.7383C15.375 13.5195 15.0742 13.3828 14.6367 13.3281C14.5273 13.2734 14.5547 13.1914 14.7188 13.082C14.8281 12.918 14.9648 12.8086 15.1289 12.7539C15.457 12.5352 16.2773 12.4531 17.5898 12.5078C18.1914 12.5078 18.6836 12.5352 19.0664 12.5898C19.1758 12.6445 19.2852 12.6992 19.3945 12.7539C19.5039 12.8086 19.5586 12.8906 19.5586 13C19.6133 13.1094 19.6406 13.2188 19.6406 13.3281C19.6953 13.4375 19.7227 13.6016 19.7227 13.8203C19.7227 14.0391 19.7227 14.2305 19.7227 14.3945C19.7227 14.7773 19.7227 15.0234 19.7227 15.1328C19.7227 15.4609 19.7227 15.7617 19.7227 16.0352C19.7227 16.0898 19.7227 16.2266 19.7227 16.4453C19.7227 16.5547 19.7227 16.6914 19.7227 16.8555C19.7227 16.8555 19.7227 16.8828 19.7227 16.9375C19.7227 17.1016 19.7227 17.2656 19.7227 17.4297C19.7227 17.5938 19.75 17.7305 19.8047 17.8398C19.9141 17.9492 19.9961 18.0312 20.0508 18.0859C20.1055 18.0859 20.1602 18.0859 20.2148 18.0859C20.3242 18.0859 20.4336 18.0586 20.543 18.0039C20.6523 17.8945 20.7617 17.7852 20.8711 17.6758C21.0352 17.5117 21.2266 17.2656 21.4453 16.9375C21.7188 16.5547 21.9648 16.1719 22.1836 15.7891C22.6211 15.0781 23.0039 14.2852 23.332 13.4102C23.332 13.3555 23.3594 13.3008 23.4141 13.2461C23.4688 13.1914 23.5234 13.1641 23.5781 13.1641V13.082H23.6602L23.7422 13C23.8516 13 23.9336 13 23.9883 13H27.0234C27.2969 12.9453 27.5156 12.9453 27.6797 13C27.8438 13.0547 27.9531 13.1367 28.0078 13.2461L28.0898 13.3281C28.2539 13.7656 27.7344 14.8047 26.5312 16.4453C26.2578 16.7188 26.0117 16.9922 25.793 17.2656Z" fill="black"/>
</svg>
