<svg width="36" height="37" viewBox="0 0 36 37" fill="none" xmlns="http://www.w3.org/2000/svg">
<path d="M30.0234 6.47656C26.6953 3.10156 22.6875 1.41406 18 1.41406C13.3125 1.41406 9.28125 3.10156 5.90625 6.47656C2.57813 9.80469 0.914062 13.8125 0.914062 18.5C0.914062 23.1875 2.57813 27.2188 5.90625 30.5938C9.28125 33.9219 13.3125 35.5859 18 35.5859C22.6875 35.5859 26.6953 33.9219 30.0234 30.5938C33.3984 27.2188 35.0859 23.1875 35.0859 18.5C35.0859 13.8125 33.3984 9.80469 30.0234 6.47656ZM5.27344 5.77344C8.78906 2.25781 13.0312 0.5 18 0.5C22.9688 0.5 27.2109 2.25781 30.7266 5.77344C34.2422 9.28906 36 13.5312 36 18.5C36 23.4688 34.2422 27.7109 30.7266 31.2266C27.2109 34.7422 22.9688 36.5 18 36.5C13.0312 36.5 8.78906 34.7422 5.27344 31.2266C1.75781 27.7109 0 23.4688 0 18.5C0 13.5312 1.75781 9.28906 5.27344 5.77344ZM23.9766 13.2266C24.3984 13.2266 24.75 13.3906 25.0312 13.7188C25.3594 14 25.5469 14.3281 25.5938 14.7031V22.2969C25.5938 22.5781 25.5234 22.8359 25.3828 23.0703C25.2422 23.3047 25.0547 23.4922 24.8203 23.6328C24.5859 23.7266 24.3281 23.7734 24.0469 23.7734H12.0234C11.6016 23.7734 11.25 23.6328 10.9688 23.3516C10.6875 23.0703 10.5469 22.7188 10.5469 22.2969V14.7031C10.5469 14.2812 10.6875 13.9297 10.9688 13.6484C11.25 13.3672 11.6016 13.2266 12.0234 13.2266H23.9766ZM16.6641 20.3281L20.1094 18.7109L16.6641 17.0938V20.3281Z" fill="black"/>
</svg>
