<svg width="20" height="20" viewBox="0 0 20 20" fill="none" xmlns="http://www.w3.org/2000/svg">
<path d="M14.6772 12.9095C15.6613 11.5655 16.25 9.91467 16.25 8.12503C16.25 3.64504 12.605 0 8.12499 0C3.645 0 0 3.64504 0 8.12503C0 12.605 3.64504 16.2501 8.12503 16.2501C9.91467 16.2501 11.5657 15.6613 12.9097 14.6771L18.2325 20L20.0001 18.2324C20.0001 18.2324 14.6772 12.9095 14.6772 12.9095ZM8.12503 13.75C5.02321 13.75 2.50002 11.2269 2.50002 8.12503C2.50002 5.02321 5.02321 2.50002 8.12503 2.50002C11.2269 2.50002 13.75 5.02321 13.75 8.12503C13.75 11.2269 11.2268 13.75 8.12503 13.75Z" fill="white"/>
</svg>
