<svg width="20" height="19" viewBox="0 0 20 19" fill="none" xmlns="http://www.w3.org/2000/svg">
<path d="M18.5938 15.8516C18.9661 16.224 19.1523 16.668 19.1523 17.1836C19.181 17.6706 19.0234 18.0859 18.6797 18.4297C18.3646 18.7448 17.9635 18.9023 17.4766 18.9023C16.9609 18.9023 16.5026 18.7161 16.1016 18.3438L9.57031 11.8125C8.71094 12.2708 7.77995 12.5 6.77734 12.5C5.14453 12.5 3.74089 11.9271 2.56641 10.7812C1.42057 9.60677 0.847656 8.20312 0.847656 6.57031C0.847656 4.90885 1.42057 3.50521 2.56641 2.35938C3.74089 1.1849 5.14453 0.597656 6.77734 0.597656C8.4388 0.597656 9.84245 1.1849 10.9883 2.35938C12.1628 3.50521 12.75 4.89453 12.75 6.52734C12.75 7.52995 12.5208 8.46094 12.0625 9.32031L18.5938 15.8516ZM3.21094 3.00391C2.23698 3.97786 1.75 5.16667 1.75 6.57031C1.75 7.94531 2.23698 9.13411 3.21094 10.1367C4.21354 11.1107 5.40234 11.5977 6.77734 11.5977C8.18099 11.5977 9.36979 11.1107 10.3438 10.1367C11.3464 9.13411 11.8477 7.94531 11.8477 6.57031C11.8477 5.16667 11.3464 3.97786 10.3438 3.00391C9.36979 2.0013 8.18099 1.5 6.77734 1.5C5.40234 1.5 4.21354 2.0013 3.21094 3.00391ZM17.4336 18C17.6628 18.0286 17.8633 17.957 18.0352 17.7852C18.207 17.6133 18.2786 17.4128 18.25 17.1836C18.2214 16.9258 18.1068 16.6966 17.9062 16.4961L11.5469 10.1367C11.2031 10.5664 10.8164 10.9531 10.3867 11.2969L16.7461 17.6562C16.9466 17.8568 17.1758 17.9714 17.4336 18Z" fill="black"/>
</svg>
